<svg
  xmlns="http://www.w3.org/2000/svg"
  xmlns:xlink="http://www.w3.org/1999/xlink"
  font-family="Arial,Helvetica,sans-serif" width="892" height="358">
<circle stroke="black" cx="106" cy="146" r="6" />\n
<rect stroke="#d3d3d3" fill="#ffffff" rx="10" ry="10" x="87" y="182" width="39" height="26"/>
<text font-family="Arial,Helvetica,sans-serif" font-size="12px" x="93" y="200">Run</text>
<circle stroke="black" stroke-width="2" fill="#ffffff" cx="106" cy="250" r="10" />\n<circle stroke="black" cx="106" cy="250" r="6" />\n
<path stroke="black" d="M106,152 L106,182" />
<g transform="rotate(90 106 182)"><path stroke="black" fill="#ffffff" d="M106,182 l-8,-4 l 0,8 Z" /></g>

<path stroke="black" d="M106,208 L106,238" />
<g transform="rotate(90 106 238)"><path stroke="black" fill="#ffffff" d="M106,238 l-8,-4 l 0,8 Z" /></g>

<rect stroke="#d3d3d3" fill="#ffffff" x="212" y="140" width="139" height="164"/>
<line stroke="#d3d3d3" x1="212" y1="170" x2="351" y2="170"/><text font-family="Arial,Helvetica,sans-serif" font-size="12px" x="218" y="186">Direction()</text>
<text font-family="Arial,Helvetica,sans-serif" font-size="12px" x="218" y="202">Height()</text>
<text font-family="Arial,Helvetica,sans-serif" font-size="12px" x="218" y="218">Position()</text>
<text font-family="Arial,Helvetica,sans-serif" font-size="12px" x="218" y="234">SetClass()</text>
<text font-family="Arial,Helvetica,sans-serif" font-size="12px" x="218" y="250">SetX()</text>
<text font-family="Arial,Helvetica,sans-serif" font-size="12px" x="218" y="266">SetY()</text>
<text font-family="Arial,Helvetica,sans-serif" font-size="12px" x="218" y="282">Width()</text>
<text font-family="Arial,Helvetica,sans-serif" font-size="12px" x="218" y="298">WriteSVG()</text>
<text font-family="Arial,Helvetica,sans-serif" font-size="12px" x="218" y="160">shape.Shape interface</text>
<rect stroke="#d3d3d3" fill="#ffffff" x="451" y="252" width="117" height="52"/>
<line stroke="#d3d3d3" x1="451" y1="282" x2="568" y2="282"/><text font-family="Arial,Helvetica,sans-serif" font-size="12px" x="457" y="298">Radius</text>
<text font-family="Arial,Helvetica,sans-serif" font-size="12px" x="457" y="272">shape.Circle struct</text>
<path stroke="black" stroke-dasharray="5,5,5" d="M451,263 L351,239" />
<g transform="rotate(193 351 239)"><path stroke="black" fill="#ffffff" d="M351,239 l-8,-4 l 0,8 Z" /></g>

<path stroke="#d3d3d3" fill="#ffffcc" d="M501,140 v 41 h 159 v -31 l -10,-10 L 501,140 M660,150 h -10 v -10"/>
<text font-family="Arial,Helvetica,sans-serif" font-size="12px" x="511" y="156">Anything is possible!</text>
<text font-family="Arial,Helvetica,sans-serif" font-size="12px" x="511" y="172">Go draw your next design</text>

<circle stroke="black" stroke-width="2" fill="#ffffff" cx="511" cy="74" r="5" />
<path stroke="black" stroke-width="2" fill="#ffffff" d="M511,79 l 0,15 m -10,-10 l 20,0 m -10,10 l -10,10 m 10,-10 l 10,10 Z" />

<path stroke="black" d="M521,96 L561,140" />
<g transform="rotate(47 561 140)"><path stroke="black" fill="#ffffff" d="M561,140 l-8,-4 l 0,8 Z" /></g>

<rect stroke="#d3d3d3" fill="#ffffff" x="730" y="70" width="62" height="26"/>
<rect stroke="#d3d3d3" fill="#ffffff" x="725" y="75" width="10" height="5"/><rect stroke="#d3d3d3" fill="#ffffff" x="725" y="86" width="10" height="5"/><text font-family="Arial,Helvetica,sans-serif" font-size="12px" x="741" y="88">Service</text>
<path stroke="#d3d3d3" stroke-width="1" fill="#ffffff" d="M 822 76 L 822 100 C 822 112, 888 112, 888 100 L 888 76" />
<ellipse stroke="#d3d3d3" stroke-width="1" fill="#ffffff" cx="855" cy="76" rx="33" ry="6" />
<text class="database-title" font-size="12px" x="828" y="96">database</text>
<circle stroke="#d3d3d3" fill="#e2e2e2" cx="761" cy="166" r="40" />\n
<text font-family="Arial,Helvetica,sans-serif" font-size="12px" x="740" y="172">Internet</text>
<rect stroke="#d3d3d3" fill="#e2e2e2" x="728" y="236" width="66" height="26"/>
<rect stroke="#d3d3d3" fill="#e2e2e2" x="723" y="241" width="10" height="5"/><rect stroke="#d3d3d3" fill="#e2e2e2" x="723" y="252" width="10" height="5"/><text class="external-title" font-size="12px" x="739" y="254">Browser</text>
<line stroke="#d3d3d3" x1="38" y1="24" x2="38" y2="101"/>
<text font-family="Arial,Helvetica,sans-serif" font-size="12px" x="10" y="18">app.Client</text>
<line stroke="#d3d3d3" x1="228" y1="24" x2="228" y2="101"/>
<text font-family="Arial,Helvetica,sans-serif" font-size="12px" x="198" y="18">app.Server</text>
<line stroke="#d3d3d3" x1="418" y1="24" x2="418" y2="101"/>
<text font-family="Arial,Helvetica,sans-serif" font-size="12px" x="400" y="18">sql.DB</text>
<path stroke="black" d="M38,57 L228,57" />
<g transform="rotate(0 228 57)"><path stroke="black" fill="#ffffff" d="M228,57 l-8,-4 l 0,8 Z" /></g>

<text font-family="Arial,Helvetica,sans-serif" font-size="12px" x="107" y="54">connect()</text>
<path stroke="black" d="M228,90 L418,90" />
<g transform="rotate(0 418 90)"><path stroke="black" fill="#ffffff" d="M418,90 l-8,-4 l 0,8 Z" /></g>

<text font-family="Arial,Helvetica,sans-serif" font-size="12px" x="318" y="87">...</text>
<text font-family="Arial,Helvetica,sans-serif" font-size="12px" x="320" y="351">gregoryv/draw provided shapes and diagrams</text></svg>