<svg
  xmlns="http://www.w3.org/2000/svg"
  xmlns:xlink="http://www.w3.org/1999/xlink"
  font-family="Arial,Helvetica,sans-serif" width="892" height="358">
<circle stroke="black" cx="106" cy="146" r="6" />\n
<rect stroke="#d3d3d3" fill="#ffffff" rx="10" ry="10" x="87" y="182" width="39" height="26"/>
<text font-family="Arial,Helvetica,sans-serif" font-size="12px" x="93" y="200">Run</text>
<circle stroke="black" stroke-width="2" fill="#ffffff" cx="106" cy="250" r="10" />\n<circle stroke="black" cx="106" cy="250" r="6" />\n
<path stroke="black" d="M106,152 L106,182" />
<g transform="rotate(180 106 182)"><path stroke="black" fill="#ffffff" d="M102,190 l4,-8 l 4,8 Z" /></g>

<path stroke="black" d="M106,208 L106,238" />
<g transform="rotate(180 106 238)"><path stroke="black" fill="#ffffff" d="M102,246 l4,-8 l 4,8 Z" /></g>

<rect stroke="#d3d3d3" fill="#ffffff" x="212" y="140" width="139" height="164"/>
<path stroke="#d3d3d3" d="M212,166 L351,166" />
<text font-family="Arial,Helvetica,sans-serif" font-size="12px" x="218" y="182">Direction()</text>
<text font-family="Arial,Helvetica,sans-serif" font-size="12px" x="218" y="198">Height()</text>
<text font-family="Arial,Helvetica,sans-serif" font-size="12px" x="218" y="214">Position()</text>
<text font-family="Arial,Helvetica,sans-serif" font-size="12px" x="218" y="230">SetClass()</text>
<text font-family="Arial,Helvetica,sans-serif" font-size="12px" x="218" y="246">SetX()</text>
<text font-family="Arial,Helvetica,sans-serif" font-size="12px" x="218" y="262">SetY()</text>
<text font-family="Arial,Helvetica,sans-serif" font-size="12px" x="218" y="278">Width()</text>
<text font-family="Arial,Helvetica,sans-serif" font-size="12px" x="218" y="294">WriteSVG()</text>
<text font-family="Arial,Helvetica,sans-serif" font-size="12px" x="218" y="156">shape.Shape interface</text>
<rect stroke="#d3d3d3" fill="#ffffff" x="451" y="236" width="117" height="68"/>
<path stroke="#d3d3d3" d="M451,262 L568,262" />
<text font-family="Arial,Helvetica,sans-serif" font-size="12px" x="457" y="278">Point</text>
<text font-family="Arial,Helvetica,sans-serif" font-size="12px" x="457" y="294">Radius</text>
<text font-family="Arial,Helvetica,sans-serif" font-size="12px" x="457" y="252">shape.Circle struct</text>
<path stroke="black" stroke-dasharray="5,5,5" d="M451,257 L351,236" />
<g transform="rotate(281 351 236)"><path stroke="black" fill="#ffffff" d="M347,244 l4,-8 l 4,8 Z" /></g>

<path stroke="#d3d3d3" fill="#ffffcc" d="M501,108 v 41 h 159 v -31 l -10,-10 L 501,108 M660,118 h -10 v -10"/>
<text font-family="Arial,Helvetica,sans-serif" font-size="12px" x="511" y="124">Anything is possible!</text>
<text font-family="Arial,Helvetica,sans-serif" font-size="12px" x="511" y="140">Go draw your next design</text>

<circle stroke="black" stroke-width="2" fill="#ffffff" cx="511" cy="42" r="5" />
<path stroke="black" stroke-width="2" fill="#ffffff" d="M511,47 l 0,15 m -10,-10 l 20,0 m -10,10 l -10,10 m 10,-10 l 10,10 Z" />

<path stroke="black" d="M521,64 L561,108" />
<g transform="rotate(137 561 108)"><path stroke="black" fill="#ffffff" d="M557,116 l4,-8 l 4,8 Z" /></g>

<rect stroke="#d3d3d3" fill="#ffffff" x="730" y="38" width="62" height="26"/>
<rect stroke="#d3d3d3" fill="#ffffff" x="725" y="43" width="10" height="5"/><rect stroke="#d3d3d3" fill="#ffffff" x="725" y="54" width="10" height="5"/><text font-family="Arial,Helvetica,sans-serif" font-size="12px" x="741" y="56">Service</text>
<path stroke="#d3d3d3" stroke-width="1" fill="#ffffff" d="M 822 44 L 822 68 C 822 80, 888 80, 888 68 L 888 44" />
<ellipse stroke="#d3d3d3" stroke-width="1" fill="#ffffff" cx="855" cy="44" rx="33" ry="6" />
<text class="database-title" font-size="12px" x="828" y="64">database</text>
<circle stroke="#d3d3d3" fill="#e2e2e2" cx="761" cy="134" r="40" />\n
<text font-family="Arial,Helvetica,sans-serif" font-size="12px" x="740" y="140">Internet</text>
<rect stroke="#d3d3d3" fill="#e2e2e2" x="728" y="204" width="66" height="26"/>
<rect stroke="#d3d3d3" fill="#e2e2e2" x="723" y="209" width="10" height="5"/><rect stroke="#d3d3d3" fill="#e2e2e2" x="723" y="220" width="10" height="5"/><text class="external-title" font-size="12px" x="739" y="222">Browser</text>
<path stroke="#d3d3d3" d="M38,24 L38,101" />

<text font-family="Arial,Helvetica,sans-serif" font-size="12px" x="10" y="18">app.Client</text>
<path stroke="#d3d3d3" d="M228,24 L228,101" />

<text font-family="Arial,Helvetica,sans-serif" font-size="12px" x="198" y="18">app.Server</text>
<path stroke="#d3d3d3" d="M418,24 L418,101" />

<text font-family="Arial,Helvetica,sans-serif" font-size="12px" x="400" y="18">sql.DB</text>
<path stroke="black" d="M38,57 L228,57" />
<g transform="rotate(90 228 57)"><path stroke="black" fill="#ffffff" d="M224,65 l4,-8 l 4,8 Z" /></g>

<text font-family="Arial,Helvetica,sans-serif" font-size="12px" x="107" y="54">connect()</text>
<path stroke="black" d="M228,90 L418,90" />
<g transform="rotate(90 418 90)"><path stroke="black" fill="#ffffff" d="M414,98 l4,-8 l 4,8 Z" /></g>

<text font-family="Arial,Helvetica,sans-serif" font-size="12px" x="318" y="87">...</text>
<text font-family="Arial,Helvetica,sans-serif" font-size="12px" x="320" y="351">gregoryv/draw provided shapes and diagrams</text></svg>