<svg
  xmlns="http://www.w3.org/2000/svg"
  xmlns:xlink="http://www.w3.org/1999/xlink"
  font-family="Arial,Helvetica,sans-serif" width="610" height="348">
<circle stroke="black" cx="106" cy="146" r="6" />\n
<rect stroke="#d3d3d3" fill="#ffffff" rx="10" ry="10" x="87" y="182" width="39" height="26"/>
<text font-family="Arial,Helvetica,sans-serif" font-size="12px" x="93" y="200">Run</text>
<circle stroke="black" stroke-width="2" fill="#ffffff" cx="106" cy="250" r="10" />\n<circle stroke="black" cx="106" cy="250" r="6" />\n
<path stroke="black" d="M106,152 L106,182" />
<g transform="rotate(90 106 182)"><path stroke="black" fill="#ffffff" d="M106,182 l-8,-4 l 0,8 Z" /></g>

<path stroke="black" d="M106,208 L106,238" />
<g transform="rotate(90 106 238)"><path stroke="black" fill="#ffffff" d="M106,238 l-8,-4 l 0,8 Z" /></g>

<rect stroke="#d3d3d3" fill="#ffffff" x="212" y="140" width="139" height="164"/>
<line stroke="#d3d3d3" x1="212" y1="170" x2="351" y2="170"/><text font-family="Arial,Helvetica,sans-serif" font-size="12px" x="218" y="186">Direction()</text>
<text font-family="Arial,Helvetica,sans-serif" font-size="12px" x="218" y="202">Height()</text>
<text font-family="Arial,Helvetica,sans-serif" font-size="12px" x="218" y="218">Position()</text>
<text font-family="Arial,Helvetica,sans-serif" font-size="12px" x="218" y="234">SetClass()</text>
<text font-family="Arial,Helvetica,sans-serif" font-size="12px" x="218" y="250">SetX()</text>
<text font-family="Arial,Helvetica,sans-serif" font-size="12px" x="218" y="266">SetY()</text>
<text font-family="Arial,Helvetica,sans-serif" font-size="12px" x="218" y="282">Width()</text>
<text font-family="Arial,Helvetica,sans-serif" font-size="12px" x="218" y="298">WriteSVG()</text>
<text font-family="Arial,Helvetica,sans-serif" font-size="12px" x="218" y="160">shape.Shape interface</text>
<rect stroke="#d3d3d3" fill="#ffffff" x="451" y="196" width="117" height="52"/>
<line stroke="#d3d3d3" x1="451" y1="226" x2="568" y2="226"/><text font-family="Arial,Helvetica,sans-serif" font-size="12px" x="457" y="242">Radius</text>
<text font-family="Arial,Helvetica,sans-serif" font-size="12px" x="457" y="216">shape.Circle struct</text>
<path stroke="#d3d3d3" stroke-width="1" fill="#ffffff" d="M 451 286 L 451 332 C 451 348, 531 348, 531 332 L 531 286" />
<ellipse stroke="#d3d3d3" stroke-width="1" fill="#ffffff" cx="491" cy="286" rx="40" ry="8" />

<path stroke="black" stroke-dasharray="5,5,5" d="M451,222 L351,222" />
<g transform="rotate(180 351 222)"><path stroke="black" fill="#ffffff" d="M351,222 l-8,-4 l 0,8 Z" /></g>

<text font-family="Arial,Helvetica,sans-serif" font-size="12px" x="370" y="218">implements</text>
<path stroke="#d3d3d3" fill="#ffffcc" d="M451,114 v 41 h 159 v -31 l -10,-10 L 451,114 M610,124 h -10 v -10"/>
<text font-family="Arial,Helvetica,sans-serif" font-size="12px" x="461" y="130">Anything is possible!</text>
<text font-family="Arial,Helvetica,sans-serif" font-size="12px" x="461" y="146">Go draw your next design</text>

<circle stroke="black" stroke-width="2" fill="#ffffff" cx="600" cy="48" r="5" />
<path stroke="black" stroke-width="2" fill="#ffffff" d="M600,53 l 0,15 m -10,-10 l 20,0 m -10,10 l -10,10 m 10,-10 l 10,10 Z" />

<path stroke="black" d="M590,70 L548,114" />
<g transform="rotate(134 548 114)"><path stroke="black" fill="#ffffff" d="M548,114 l-8,-4 l 0,8 Z" /></g>

<line stroke="#d3d3d3" x1="38" y1="24" x2="38" y2="101"/>
<text font-family="Arial,Helvetica,sans-serif" font-size="12px" x="10" y="18">app.Client</text>
<line stroke="#d3d3d3" x1="228" y1="24" x2="228" y2="101"/>
<text font-family="Arial,Helvetica,sans-serif" font-size="12px" x="198" y="18">app.Server</text>
<line stroke="#d3d3d3" x1="418" y1="24" x2="418" y2="101"/>
<text font-family="Arial,Helvetica,sans-serif" font-size="12px" x="400" y="18">sql.DB</text>
<path stroke="black" d="M38,57 L228,57" />
<g transform="rotate(0 228 57)"><path stroke="black" fill="#ffffff" d="M228,57 l-8,-4 l 0,8 Z" /></g>

<text font-family="Arial,Helvetica,sans-serif" font-size="12px" x="107" y="54">connect()</text>
<path stroke="black" d="M228,90 L418,90" />
<g transform="rotate(0 418 90)"><path stroke="black" fill="#ffffff" d="M418,90 l-8,-4 l 0,8 Z" /></g>

<text font-family="Arial,Helvetica,sans-serif" font-size="12px" x="318" y="87">...</text></svg>