<svg
  xmlns="http://www.w3.org/2000/svg"
  xmlns:xlink="http://www.w3.org/1999/xlink"
  width="436" height="222" font-family="Arial, Helvetica, sans-serif">
<line stroke="#d3d3d3" x1="38" y1="24" x2="38" y2="222"/>
<text font-family="Arial,Helvetica,sans-serif" font-size="12px" x="10" y="18">app.Client</text>
<line stroke="#d3d3d3" x1="228" y1="24" x2="228" y2="222"/>
<text font-family="Arial,Helvetica,sans-serif" font-size="12px" x="198" y="18">app.Server</text>
<line stroke="#d3d3d3" x1="418" y1="24" x2="418" y2="222"/>
<text font-family="Arial,Helvetica,sans-serif" font-size="12px" x="400" y="18">sql.DB</text>
<path stroke="black" d="M38,57 L228,57" />
<g transform="rotate(0 228 57)"><path stroke="black" fill="#ffffff" d="M228,57 l-8,-4 l 0,8 Z" /></g>

<text font-family="Arial,Helvetica,sans-serif" font-size="12px" x="107" y="54">connect()</text>
<path stroke="red" d="M228,90 L418,90" />
<g transform="rotate(0 418 90)"><path stroke="red" fill="#ffffff" d="M418,90 l-8,-4 l 0,8 Z" /></g>

<text font-family="Arial,Helvetica,sans-serif" font-size="12px" x="299" y="87">SELECT</text>
<path stroke="black" d="M418,123 L228,123" />
<g transform="rotate(180 228 123)"><path stroke="black" fill="#ffffff" d="M228,123 l-8,-4 l 0,8 Z" /></g>

<text font-family="Arial,Helvetica,sans-serif" font-size="12px" x="308" y="120">Rows</text>
<line stroke="red" x1="228" y1="156" x2="243" y2="156"/>
<line stroke="red" x1="243" y1="156" x2="243" y2="188"/>
<path stroke="red" d="M243,188 L228,188" />
<g transform="rotate(180 228 188)"><path stroke="red" fill="#ffffff" d="M228,188 l-8,-4 l 0,8 Z" /></g>

<text font-family="Arial,Helvetica,sans-serif" font-size="12px" x="249" y="175">Transform to view model</text>
<path stroke="black" d="M228,211 L38,211" />
<g transform="rotate(180 38 211)"><path stroke="black" fill="#ffffff" d="M38,211 l-8,-4 l 0,8 Z" /></g>

<text font-family="Arial,Helvetica,sans-serif" font-size="12px" x="101" y="208">Send HTML</text></svg>