<svg
  xmlns="http://www.w3.org/2000/svg"
  xmlns:xlink="http://www.w3.org/1999/xlink"
  width="841" height="980" font-family="Arial, Helvetica, sans-serif">
<path stroke="black" stroke-dasharray="5,5,5" d="M145,206 L220,152" />
<g transform="rotate(-35 220 152)"><path stroke="black" fill="#ffffff" d="M220,152 l-8,-4 l 0,8 Z" /></g>

<path stroke="black" stroke-dasharray="5,5,5" d="M434,238 L359,167" />
<g transform="rotate(223 359 167)"><path stroke="black" fill="#ffffff" d="M359,167 l-8,-4 l 0,8 Z" /></g>

<path stroke="black" stroke-dasharray="5,5,5" d="M289,296 L289,184" />
<g transform="rotate(-90 289 184)"><path stroke="black" fill="#ffffff" d="M289,184 l-8,-4 l 0,8 Z" /></g>

<path stroke="black" stroke-dasharray="5,5,5" d="M639,70 L359,95" />
<g transform="rotate(175 359 95)"><path stroke="black" fill="#ffffff" d="M359,95 l-8,-4 l 0,8 Z" /></g>

<path stroke="black" stroke-dasharray="5,5,5" d="M639,162 L359,114" />
<g transform="rotate(189 359 114)"><path stroke="black" fill="#ffffff" d="M359,114 l-8,-4 l 0,8 Z" /></g>

<path stroke="black" stroke-dasharray="5,5,5" d="M639,238 L359,129" />
<g transform="rotate(201 359 129)"><path stroke="black" fill="#ffffff" d="M359,129 l-8,-4 l 0,8 Z" /></g>

<path stroke="black" d="M82,386 L82,506" />
<g transform="rotate(90 82 386)"><path stroke="black" fill="#777777" d="M82,386 l 6,-4 6,4 -6,4 -6,-4" /></g>
<g transform="rotate(90 82 506)"><path stroke="black" fill="#ffffff" d="M82,506 l-8,-4 l 0,8 Z" /></g>

<path stroke="black" d="M233,551 L137,551" />
<g transform="rotate(180 233 551)"><path stroke="black" fill="#777777" d="M233,551 l 6,-4 6,4 -6,4 -6,-4" /></g>
<g transform="rotate(180 137 551)"><path stroke="black" fill="#ffffff" d="M137,551 l-8,-4 l 0,8 Z" /></g>

<path stroke="black" d="M690,790 L570,637" />
<g transform="rotate(231 690 790)"><path stroke="black" fill="#777777" d="M690,790 l 6,-4 6,4 -6,4 -6,-4" /></g>
<g transform="rotate(231 570 637)"><path stroke="black" fill="#ffffff" d="M570,637 l-8,-4 l 0,8 Z" /></g>

<path stroke="black" d="M502,822 L502,732" />
<g transform="rotate(-90 502 822)"><path stroke="black" fill="#777777" d="M502,822 l 6,-4 6,4 -6,4 -6,-4" /></g>
<g transform="rotate(-90 502 732)"><path stroke="black" fill="#ffffff" d="M502,732 l-8,-4 l 0,8 Z" /></g>

<path stroke="black" d="M570,551 L650,551" />
<g transform="rotate(0 570 551)"><path stroke="black" fill="#777777" d="M570,551 l 6,-4 6,4 -6,4 -6,-4" /></g>
<g transform="rotate(0 650 551)"><path stroke="black" fill="#ffffff" d="M650,551 l-8,-4 l 0,8 Z" /></g>

<path stroke="black" d="M435,551 L345,551" />
<g transform="rotate(180 435 551)"><path stroke="black" fill="#777777" d="M435,551 l 6,-4 6,4 -6,4 -6,-4" /></g>
<g transform="rotate(180 345 551)"><path stroke="black" fill="#ffffff" d="M345,551 l-8,-4 l 0,8 Z" /></g>

<rect stroke="#d3d3d3" fill="#ffffff" x="220" y="20" width="139" height="164"/>
<line stroke="#d3d3d3" x1="220" y1="50" x2="359" y2="50"/><text font-family="Arial,Helvetica,sans-serif" font-size="12px" x="226" y="66">Direction()</text>
<text font-family="Arial,Helvetica,sans-serif" font-size="12px" x="226" y="82">Height()</text>
<text font-family="Arial,Helvetica,sans-serif" font-size="12px" x="226" y="98">Position()</text>
<text font-family="Arial,Helvetica,sans-serif" font-size="12px" x="226" y="114">SetClass()</text>
<text font-family="Arial,Helvetica,sans-serif" font-size="12px" x="226" y="130">SetX()</text>
<text font-family="Arial,Helvetica,sans-serif" font-size="12px" x="226" y="146">SetY()</text>
<text font-family="Arial,Helvetica,sans-serif" font-size="12px" x="226" y="162">Width()</text>
<text font-family="Arial,Helvetica,sans-serif" font-size="12px" x="226" y="178">WriteSvg()</text>
<text font-family="Arial,Helvetica,sans-serif" font-size="12px" x="226" y="40">shape.Shape interface</text>
<rect stroke="#d3d3d3" fill="#ffffff" x="20" y="120" width="125" height="266"/>
<line stroke="#d3d3d3" x1="20" y1="150" x2="145" y2="150"/><text font-family="Arial,Helvetica,sans-serif" font-size="12px" x="26" y="166">X</text>
<text font-family="Arial,Helvetica,sans-serif" font-size="12px" x="26" y="182">Y</text>
<text font-family="Arial,Helvetica,sans-serif" font-size="12px" x="26" y="198">Title</text>
<text font-family="Arial,Helvetica,sans-serif" font-size="12px" x="26" y="214">Fields</text>
<text font-family="Arial,Helvetica,sans-serif" font-size="12px" x="26" y="230">Methods</text>
<text font-family="Arial,Helvetica,sans-serif" font-size="12px" x="26" y="246">Font</text>
<text font-family="Arial,Helvetica,sans-serif" font-size="12px" x="26" y="262">Pad</text>
<line stroke="#d3d3d3" x1="20" y1="268" x2="145" y2="268"/><text font-family="Arial,Helvetica,sans-serif" font-size="12px" x="26" y="284">Edge()</text>
<text font-family="Arial,Helvetica,sans-serif" font-size="12px" x="26" y="300">HideFields()</text>
<text font-family="Arial,Helvetica,sans-serif" font-size="12px" x="26" y="316">HideMethod()</text>
<text font-family="Arial,Helvetica,sans-serif" font-size="12px" x="26" y="332">HideMethods()</text>
<text font-family="Arial,Helvetica,sans-serif" font-size="12px" x="26" y="348">SetFont()</text>
<text font-family="Arial,Helvetica,sans-serif" font-size="12px" x="26" y="364">SetTextPad()</text>
<text font-family="Arial,Helvetica,sans-serif" font-size="12px" x="26" y="380">String()</text>
<text font-family="Arial,Helvetica,sans-serif" font-size="12px" x="26" y="140">shape.Record struct</text>
<rect stroke="#d3d3d3" fill="#ffffff" x="235" y="296" width="109" height="90"/>
<line stroke="#d3d3d3" x1="235" y1="326" x2="344" y2="326"/><text font-family="Arial,Helvetica,sans-serif" font-size="12px" x="241" y="342">Start</text>
<text font-family="Arial,Helvetica,sans-serif" font-size="12px" x="241" y="358">End</text>
<line stroke="#d3d3d3" x1="235" y1="364" x2="344" y2="364"/><text font-family="Arial,Helvetica,sans-serif" font-size="12px" x="241" y="380">String()</text>
<text font-family="Arial,Helvetica,sans-serif" font-size="12px" x="241" y="316">shape.Line struct</text>
<rect stroke="#d3d3d3" fill="#ffffff" x="434" y="200" width="117" height="186"/>
<line stroke="#d3d3d3" x1="434" y1="230" x2="551" y2="230"/><text font-family="Arial,Helvetica,sans-serif" font-size="12px" x="440" y="246">Start</text>
<text font-family="Arial,Helvetica,sans-serif" font-size="12px" x="440" y="262">End</text>
<text font-family="Arial,Helvetica,sans-serif" font-size="12px" x="440" y="278">Tail</text>
<text font-family="Arial,Helvetica,sans-serif" font-size="12px" x="440" y="294">Head</text>
<line stroke="#d3d3d3" x1="434" y1="300" x2="551" y2="300"/><text font-family="Arial,Helvetica,sans-serif" font-size="12px" x="440" y="316">DirQ1()</text>
<text font-family="Arial,Helvetica,sans-serif" font-size="12px" x="440" y="332">DirQ2()</text>
<text font-family="Arial,Helvetica,sans-serif" font-size="12px" x="440" y="348">DirQ3()</text>
<text font-family="Arial,Helvetica,sans-serif" font-size="12px" x="440" y="364">DirQ4()</text>
<text font-family="Arial,Helvetica,sans-serif" font-size="12px" x="440" y="380">String()</text>
<text font-family="Arial,Helvetica,sans-serif" font-size="12px" x="440" y="220">shape.Arrow struct</text>
<rect stroke="#d3d3d3" fill="#ffffff" x="639" y="20" width="117" height="90"/>
<line stroke="#d3d3d3" x1="639" y1="50" x2="756" y2="50"/><text font-family="Arial,Helvetica,sans-serif" font-size="12px" x="645" y="66">Radius</text>
<line stroke="#d3d3d3" x1="639" y1="72" x2="756" y2="72"/><text font-family="Arial,Helvetica,sans-serif" font-size="12px" x="645" y="88">Edge()</text>
<text font-family="Arial,Helvetica,sans-serif" font-size="12px" x="645" y="104">String()</text>
<text font-family="Arial,Helvetica,sans-serif" font-size="12px" x="645" y="40">shape.Circle struct</text>
<rect stroke="#d3d3d3" fill="#ffffff" x="639" y="140" width="135" height="68"/>
<line stroke="#d3d3d3" x1="639" y1="170" x2="774" y2="170"/><text font-family="Arial,Helvetica,sans-serif" font-size="12px" x="645" y="186">Edge()</text>
<text font-family="Arial,Helvetica,sans-serif" font-size="12px" x="645" y="202">String()</text>
<text font-family="Arial,Helvetica,sans-serif" font-size="12px" x="645" y="160">shape.Diamond struct</text>
<rect stroke="#d3d3d3" fill="#ffffff" x="639" y="238" width="130" height="52"/>
<line stroke="#d3d3d3" x1="639" y1="268" x2="769" y2="268"/><text font-family="Arial,Helvetica,sans-serif" font-size="12px" x="645" y="284">String()</text>
<text font-family="Arial,Helvetica,sans-serif" font-size="12px" x="645" y="258">shape.Triangle struct</text>
<rect stroke="#d3d3d3" fill="#ffffff" x="28" y="506" width="109" height="90"/>
<line stroke="#d3d3d3" x1="28" y1="536" x2="137" y2="536"/><text font-family="Arial,Helvetica,sans-serif" font-size="12px" x="34" y="552">Height</text>
<text font-family="Arial,Helvetica,sans-serif" font-size="12px" x="34" y="568">LineHeight</text>
<line stroke="#d3d3d3" x1="28" y1="574" x2="137" y2="574"/><text font-family="Arial,Helvetica,sans-serif" font-size="12px" x="34" y="590">TextWidth()</text>
<text font-family="Arial,Helvetica,sans-serif" font-size="12px" x="34" y="526">shape.Font struct</text>
<rect stroke="#d3d3d3" fill="#ffffff" x="233" y="490" width="112" height="122"/>
<line stroke="#d3d3d3" x1="233" y1="520" x2="345" y2="520"/><text font-family="Arial,Helvetica,sans-serif" font-size="12px" x="239" y="536">Font</text>
<text font-family="Arial,Helvetica,sans-serif" font-size="12px" x="239" y="552">TextPad</text>
<text font-family="Arial,Helvetica,sans-serif" font-size="12px" x="239" y="568">Pad</text>
<line stroke="#d3d3d3" x1="233" y1="574" x2="345" y2="574"/><text font-family="Arial,Helvetica,sans-serif" font-size="12px" x="239" y="590">SetOutput()</text>
<text font-family="Arial,Helvetica,sans-serif" font-size="12px" x="239" y="606">Write()</text>
<text font-family="Arial,Helvetica,sans-serif" font-size="12px" x="239" y="510">shape.Style struct</text>
<rect stroke="#d3d3d3" fill="#ffffff" x="435" y="370" width="135" height="362"/>
<line stroke="#d3d3d3" x1="435" y1="400" x2="570" y2="400"/><text font-family="Arial,Helvetica,sans-serif" font-size="12px" x="441" y="416">Svg</text>
<text font-family="Arial,Helvetica,sans-serif" font-size="12px" x="441" y="432">Aligner</text>
<text font-family="Arial,Helvetica,sans-serif" font-size="12px" x="441" y="448">Style</text>
<text font-family="Arial,Helvetica,sans-serif" font-size="12px" x="441" y="464">Caption</text>
<line stroke="#d3d3d3" x1="435" y1="470" x2="570" y2="470"/><text font-family="Arial,Helvetica,sans-serif" font-size="12px" x="441" y="486">AdaptSize()</text>
<text font-family="Arial,Helvetica,sans-serif" font-size="12px" x="441" y="502">Append()</text>
<text font-family="Arial,Helvetica,sans-serif" font-size="12px" x="441" y="518">Height()</text>
<text font-family="Arial,Helvetica,sans-serif" font-size="12px" x="441" y="534">Link()</text>
<text font-family="Arial,Helvetica,sans-serif" font-size="12px" x="441" y="550">LinkAll()</text>
<text font-family="Arial,Helvetica,sans-serif" font-size="12px" x="441" y="566">Place()</text>
<text font-family="Arial,Helvetica,sans-serif" font-size="12px" x="441" y="582">PlaceGrid()</text>
<text font-family="Arial,Helvetica,sans-serif" font-size="12px" x="441" y="598">Prepend()</text>
<text font-family="Arial,Helvetica,sans-serif" font-size="12px" x="441" y="614">SaveAs()</text>
<text font-family="Arial,Helvetica,sans-serif" font-size="12px" x="441" y="630">SetCaption()</text>
<text font-family="Arial,Helvetica,sans-serif" font-size="12px" x="441" y="646">SetHeight()</text>
<text font-family="Arial,Helvetica,sans-serif" font-size="12px" x="441" y="662">SetSize()</text>
<text font-family="Arial,Helvetica,sans-serif" font-size="12px" x="441" y="678">SetWidth()</text>
<text font-family="Arial,Helvetica,sans-serif" font-size="12px" x="441" y="694">TextWidth()</text>
<text font-family="Arial,Helvetica,sans-serif" font-size="12px" x="441" y="710">Width()</text>
<text font-family="Arial,Helvetica,sans-serif" font-size="12px" x="441" y="726">WriteSvg()</text>
<text font-family="Arial,Helvetica,sans-serif" font-size="12px" x="441" y="390">design.Diagram struct</text>
<rect stroke="#d3d3d3" fill="#ffffff" x="650" y="485" width="124" height="132"/>
<line stroke="#d3d3d3" x1="650" y1="515" x2="774" y2="515"/><text font-family="Arial,Helvetica,sans-serif" font-size="12px" x="656" y="531">HAlignBottom()</text>
<text font-family="Arial,Helvetica,sans-serif" font-size="12px" x="656" y="547">HAlignCenter()</text>
<text font-family="Arial,Helvetica,sans-serif" font-size="12px" x="656" y="563">HAlignTop()</text>
<text font-family="Arial,Helvetica,sans-serif" font-size="12px" x="656" y="579">VAlignCenter()</text>
<text font-family="Arial,Helvetica,sans-serif" font-size="12px" x="656" y="595">VAlignLeft()</text>
<text font-family="Arial,Helvetica,sans-serif" font-size="12px" x="656" y="611">VAlignRight()</text>
<text font-family="Arial,Helvetica,sans-serif" font-size="12px" x="656" y="505">shape.Aligner struct</text>
<rect stroke="#d3d3d3" fill="#ffffff" x="28" y="666" width="130" height="116"/>
<line stroke="#d3d3d3" x1="28" y1="696" x2="158" y2="696"/><text font-family="Arial,Helvetica,sans-serif" font-size="12px" x="34" y="712">Above()</text>
<text font-family="Arial,Helvetica,sans-serif" font-size="12px" x="34" y="728">At()</text>
<text font-family="Arial,Helvetica,sans-serif" font-size="12px" x="34" y="744">Below()</text>
<text font-family="Arial,Helvetica,sans-serif" font-size="12px" x="34" y="760">LeftOf()</text>
<text font-family="Arial,Helvetica,sans-serif" font-size="12px" x="34" y="776">RightOf()</text>
<text font-family="Arial,Helvetica,sans-serif" font-size="12px" x="34" y="686">shape.Adjuster struct</text>
<rect stroke="#d3d3d3" fill="#ffffff" x="650" y="790" width="191" height="138"/>
<line stroke="#d3d3d3" x1="650" y1="820" x2="841" y2="820"/><text font-family="Arial,Helvetica,sans-serif" font-size="12px" x="656" y="836">Diagram</text>
<text font-family="Arial,Helvetica,sans-serif" font-size="12px" x="656" y="852">ColWidth</text>
<text font-family="Arial,Helvetica,sans-serif" font-size="12px" x="656" y="868">VMargin</text>
<line stroke="#d3d3d3" x1="650" y1="874" x2="841" y2="874"/><text font-family="Arial,Helvetica,sans-serif" font-size="12px" x="656" y="890">AddColumns()</text>
<text font-family="Arial,Helvetica,sans-serif" font-size="12px" x="656" y="906">AddStruct()</text>
<text font-family="Arial,Helvetica,sans-serif" font-size="12px" x="656" y="922">ClearLinks()</text>
<text font-family="Arial,Helvetica,sans-serif" font-size="12px" x="656" y="810">design.SequenceDiagram struct</text>
<rect stroke="#d3d3d3" fill="#ffffff" x="420" y="822" width="166" height="106"/>
<line stroke="#d3d3d3" x1="420" y1="852" x2="586" y2="852"/><text font-family="Arial,Helvetica,sans-serif" font-size="12px" x="426" y="868">Diagram</text>
<line stroke="#d3d3d3" x1="420" y1="874" x2="586" y2="874"/><text font-family="Arial,Helvetica,sans-serif" font-size="12px" x="426" y="890">HideRealizations()</text>
<text font-family="Arial,Helvetica,sans-serif" font-size="12px" x="426" y="906">Interface()</text>
<text font-family="Arial,Helvetica,sans-serif" font-size="12px" x="426" y="922">Struct()</text>
<text font-family="Arial,Helvetica,sans-serif" font-size="12px" x="426" y="842">design.ClassDiagram struct</text>
<text font-family="Arial,Helvetica,sans-serif" font-size="12px" x="250" y="974">Figure 1. Class diagram of design and design.shape packages</text></svg>