<svg
  xmlns="http://www.w3.org/2000/svg"
  xmlns:xlink="http://www.w3.org/1999/xlink"
  width="841" height="1030" font-family="Arial, Helvetica, sans-serif">
<path stroke="black" stroke-dasharray="5,5,5" d="M145,206 L220,152" />
<g transform="rotate(-35 220 152)"><path stroke="black" fill="#ffffff" d="M220,152 l-8,-4 l 0,8 Z" /></g>

<path stroke="black" stroke-dasharray="5,5,5" d="M434,238 L359,167" />
<g transform="rotate(223 359 167)"><path stroke="black" fill="#ffffff" d="M359,167 l-8,-4 l 0,8 Z" /></g>

<path stroke="black" stroke-dasharray="5,5,5" d="M289,296 L289,184" />
<g transform="rotate(-90 289 184)"><path stroke="black" fill="#ffffff" d="M289,184 l-8,-4 l 0,8 Z" /></g>

<path stroke="black" stroke-dasharray="5,5,5" d="M639,70 L359,95" />
<g transform="rotate(175 359 95)"><path stroke="black" fill="#ffffff" d="M359,95 l-8,-4 l 0,8 Z" /></g>

<path stroke="black" stroke-dasharray="5,5,5" d="M639,162 L359,114" />
<g transform="rotate(189 359 114)"><path stroke="black" fill="#ffffff" d="M359,114 l-8,-4 l 0,8 Z" /></g>

<path stroke="black" stroke-dasharray="5,5,5" d="M639,238 L359,129" />
<g transform="rotate(201 359 129)"><path stroke="black" fill="#ffffff" d="M359,129 l-8,-4 l 0,8 Z" /></g>

<path stroke="black" d="M82,386 L82,556" />
<g transform="rotate(90 82 386)"><path stroke="black" fill="#777777" d="M82,386 l 6,-4 6,4 -6,4 -6,-4" /></g>
<g transform="rotate(90 82 556)"><path stroke="black" fill="#ffffff" d="M82,556 l-8,-4 l 0,8 Z" /></g>

<path stroke="black" d="M233,601 L137,601" />
<g transform="rotate(180 233 601)"><path stroke="black" fill="#777777" d="M233,601 l 6,-4 6,4 -6,4 -6,-4" /></g>
<g transform="rotate(180 137 601)"><path stroke="black" fill="#ffffff" d="M137,601 l-8,-4 l 0,8 Z" /></g>

<path stroke="black" d="M690,840 L570,687" />
<g transform="rotate(231 690 840)"><path stroke="black" fill="#777777" d="M690,840 l 6,-4 6,4 -6,4 -6,-4" /></g>
<g transform="rotate(231 570 687)"><path stroke="black" fill="#ffffff" d="M570,687 l-8,-4 l 0,8 Z" /></g>

<path stroke="black" d="M502,872 L502,782" />
<g transform="rotate(-90 502 872)"><path stroke="black" fill="#777777" d="M502,872 l 6,-4 6,4 -6,4 -6,-4" /></g>
<g transform="rotate(-90 502 782)"><path stroke="black" fill="#ffffff" d="M502,782 l-8,-4 l 0,8 Z" /></g>

<path stroke="black" d="M435,601 L345,601" />
<g transform="rotate(180 435 601)"><path stroke="black" fill="#777777" d="M435,601 l 6,-4 6,4 -6,4 -6,-4" /></g>
<g transform="rotate(180 345 601)"><path stroke="black" fill="#ffffff" d="M345,601 l-8,-4 l 0,8 Z" /></g>

<path stroke="black" d="M570,601 L650,601" />
<g transform="rotate(0 570 601)"><path stroke="black" fill="#777777" d="M570,601 l 6,-4 6,4 -6,4 -6,-4" /></g>
<g transform="rotate(0 650 601)"><path stroke="black" fill="#ffffff" d="M650,601 l-8,-4 l 0,8 Z" /></g>

<rect stroke="#d3d3d3" fill="#ffffff" x="220" y="20" width="139" height="164"/>
<line stroke="#d3d3d3" x1="220" y1="50" x2="359" y2="50"/><text font-family="Arial,Helvetica,sans-serif" font-size="12px" x="226" y="66">Direction()</text>
<text font-family="Arial,Helvetica,sans-serif" font-size="12px" x="226" y="82">Height()</text>
<text font-family="Arial,Helvetica,sans-serif" font-size="12px" x="226" y="98">Position()</text>
<text font-family="Arial,Helvetica,sans-serif" font-size="12px" x="226" y="114">SetClass()</text>
<text font-family="Arial,Helvetica,sans-serif" font-size="12px" x="226" y="130">SetX()</text>
<text font-family="Arial,Helvetica,sans-serif" font-size="12px" x="226" y="146">SetY()</text>
<text font-family="Arial,Helvetica,sans-serif" font-size="12px" x="226" y="162">Width()</text>
<text font-family="Arial,Helvetica,sans-serif" font-size="12px" x="226" y="178">WriteSvg()</text>
<text font-family="Arial,Helvetica,sans-serif" font-size="12px" x="226" y="40">shape.Shape interface</text>
<rect stroke="#d3d3d3" fill="#ffffff" x="20" y="120" width="125" height="266"/>
<line stroke="#d3d3d3" x1="20" y1="150" x2="145" y2="150"/><text font-family="Arial,Helvetica,sans-serif" font-size="12px" x="26" y="166">X</text>
<text font-family="Arial,Helvetica,sans-serif" font-size="12px" x="26" y="182">Y</text>
<text font-family="Arial,Helvetica,sans-serif" font-size="12px" x="26" y="198">Title</text>
<text font-family="Arial,Helvetica,sans-serif" font-size="12px" x="26" y="214">Fields</text>
<text font-family="Arial,Helvetica,sans-serif" font-size="12px" x="26" y="230">Methods</text>
<text font-family="Arial,Helvetica,sans-serif" font-size="12px" x="26" y="246">Font</text>
<text font-family="Arial,Helvetica,sans-serif" font-size="12px" x="26" y="262">Pad</text>
<line stroke="#d3d3d3" x1="20" y1="268" x2="145" y2="268"/><text font-family="Arial,Helvetica,sans-serif" font-size="12px" x="26" y="284">Edge()</text>
<text font-family="Arial,Helvetica,sans-serif" font-size="12px" x="26" y="300">HideFields()</text>
<text font-family="Arial,Helvetica,sans-serif" font-size="12px" x="26" y="316">HideMethod()</text>
<text font-family="Arial,Helvetica,sans-serif" font-size="12px" x="26" y="332">HideMethods()</text>
<text font-family="Arial,Helvetica,sans-serif" font-size="12px" x="26" y="348">SetFont()</text>
<text font-family="Arial,Helvetica,sans-serif" font-size="12px" x="26" y="364">SetTextPad()</text>
<text font-family="Arial,Helvetica,sans-serif" font-size="12px" x="26" y="380">String()</text>
<text font-family="Arial,Helvetica,sans-serif" font-size="12px" x="26" y="140">shape.Record struct</text>
<rect stroke="#d3d3d3" fill="#ffffff" x="235" y="296" width="109" height="90"/>
<line stroke="#d3d3d3" x1="235" y1="326" x2="344" y2="326"/><text font-family="Arial,Helvetica,sans-serif" font-size="12px" x="241" y="342">Start</text>
<text font-family="Arial,Helvetica,sans-serif" font-size="12px" x="241" y="358">End</text>
<line stroke="#d3d3d3" x1="235" y1="364" x2="344" y2="364"/><text font-family="Arial,Helvetica,sans-serif" font-size="12px" x="241" y="380">String()</text>
<text font-family="Arial,Helvetica,sans-serif" font-size="12px" x="241" y="316">shape.Line struct</text>
<rect stroke="#d3d3d3" fill="#ffffff" x="434" y="200" width="117" height="186"/>
<line stroke="#d3d3d3" x1="434" y1="230" x2="551" y2="230"/><text font-family="Arial,Helvetica,sans-serif" font-size="12px" x="440" y="246">Start</text>
<text font-family="Arial,Helvetica,sans-serif" font-size="12px" x="440" y="262">End</text>
<text font-family="Arial,Helvetica,sans-serif" font-size="12px" x="440" y="278">Tail</text>
<text font-family="Arial,Helvetica,sans-serif" font-size="12px" x="440" y="294">Head</text>
<line stroke="#d3d3d3" x1="434" y1="300" x2="551" y2="300"/><text font-family="Arial,Helvetica,sans-serif" font-size="12px" x="440" y="316">DirQ1()</text>
<text font-family="Arial,Helvetica,sans-serif" font-size="12px" x="440" y="332">DirQ2()</text>
<text font-family="Arial,Helvetica,sans-serif" font-size="12px" x="440" y="348">DirQ3()</text>
<text font-family="Arial,Helvetica,sans-serif" font-size="12px" x="440" y="364">DirQ4()</text>
<text font-family="Arial,Helvetica,sans-serif" font-size="12px" x="440" y="380">String()</text>
<text font-family="Arial,Helvetica,sans-serif" font-size="12px" x="440" y="220">shape.Arrow struct</text>
<rect stroke="#d3d3d3" fill="#ffffff" x="639" y="20" width="117" height="90"/>
<line stroke="#d3d3d3" x1="639" y1="50" x2="756" y2="50"/><text font-family="Arial,Helvetica,sans-serif" font-size="12px" x="645" y="66">Radius</text>
<line stroke="#d3d3d3" x1="639" y1="72" x2="756" y2="72"/><text font-family="Arial,Helvetica,sans-serif" font-size="12px" x="645" y="88">Edge()</text>
<text font-family="Arial,Helvetica,sans-serif" font-size="12px" x="645" y="104">String()</text>
<text font-family="Arial,Helvetica,sans-serif" font-size="12px" x="645" y="40">shape.Circle struct</text>
<rect stroke="#d3d3d3" fill="#ffffff" x="639" y="140" width="135" height="68"/>
<line stroke="#d3d3d3" x1="639" y1="170" x2="774" y2="170"/><text font-family="Arial,Helvetica,sans-serif" font-size="12px" x="645" y="186">Edge()</text>
<text font-family="Arial,Helvetica,sans-serif" font-size="12px" x="645" y="202">String()</text>
<text font-family="Arial,Helvetica,sans-serif" font-size="12px" x="645" y="160">shape.Diamond struct</text>
<rect stroke="#d3d3d3" fill="#ffffff" x="639" y="238" width="130" height="52"/>
<line stroke="#d3d3d3" x1="639" y1="268" x2="769" y2="268"/><text font-family="Arial,Helvetica,sans-serif" font-size="12px" x="645" y="284">String()</text>
<text font-family="Arial,Helvetica,sans-serif" font-size="12px" x="645" y="258">shape.Triangle struct</text>
<rect stroke="#d3d3d3" fill="#ffffff" x="28" y="556" width="109" height="90"/>
<line stroke="#d3d3d3" x1="28" y1="586" x2="137" y2="586"/><text font-family="Arial,Helvetica,sans-serif" font-size="12px" x="34" y="602">Height</text>
<text font-family="Arial,Helvetica,sans-serif" font-size="12px" x="34" y="618">LineHeight</text>
<line stroke="#d3d3d3" x1="28" y1="624" x2="137" y2="624"/><text font-family="Arial,Helvetica,sans-serif" font-size="12px" x="34" y="640">TextWidth()</text>
<text font-family="Arial,Helvetica,sans-serif" font-size="12px" x="34" y="576">shape.Font struct</text>
<rect stroke="#d3d3d3" fill="#ffffff" x="233" y="540" width="112" height="122"/>
<line stroke="#d3d3d3" x1="233" y1="570" x2="345" y2="570"/><text font-family="Arial,Helvetica,sans-serif" font-size="12px" x="239" y="586">Font</text>
<text font-family="Arial,Helvetica,sans-serif" font-size="12px" x="239" y="602">TextPad</text>
<text font-family="Arial,Helvetica,sans-serif" font-size="12px" x="239" y="618">Pad</text>
<line stroke="#d3d3d3" x1="233" y1="624" x2="345" y2="624"/><text font-family="Arial,Helvetica,sans-serif" font-size="12px" x="239" y="640">SetOutput()</text>
<text font-family="Arial,Helvetica,sans-serif" font-size="12px" x="239" y="656">Write()</text>
<text font-family="Arial,Helvetica,sans-serif" font-size="12px" x="239" y="560">shape.Style struct</text>
<rect stroke="#d3d3d3" fill="#ffffff" x="435" y="420" width="135" height="362"/>
<line stroke="#d3d3d3" x1="435" y1="450" x2="570" y2="450"/><text font-family="Arial,Helvetica,sans-serif" font-size="12px" x="441" y="466">Svg</text>
<text font-family="Arial,Helvetica,sans-serif" font-size="12px" x="441" y="482">Aligner</text>
<text font-family="Arial,Helvetica,sans-serif" font-size="12px" x="441" y="498">Style</text>
<text font-family="Arial,Helvetica,sans-serif" font-size="12px" x="441" y="514">Caption</text>
<line stroke="#d3d3d3" x1="435" y1="520" x2="570" y2="520"/><text font-family="Arial,Helvetica,sans-serif" font-size="12px" x="441" y="536">AdaptSize()</text>
<text font-family="Arial,Helvetica,sans-serif" font-size="12px" x="441" y="552">Append()</text>
<text font-family="Arial,Helvetica,sans-serif" font-size="12px" x="441" y="568">Height()</text>
<text font-family="Arial,Helvetica,sans-serif" font-size="12px" x="441" y="584">Link()</text>
<text font-family="Arial,Helvetica,sans-serif" font-size="12px" x="441" y="600">LinkAll()</text>
<text font-family="Arial,Helvetica,sans-serif" font-size="12px" x="441" y="616">Place()</text>
<text font-family="Arial,Helvetica,sans-serif" font-size="12px" x="441" y="632">PlaceGrid()</text>
<text font-family="Arial,Helvetica,sans-serif" font-size="12px" x="441" y="648">Prepend()</text>
<text font-family="Arial,Helvetica,sans-serif" font-size="12px" x="441" y="664">SaveAs()</text>
<text font-family="Arial,Helvetica,sans-serif" font-size="12px" x="441" y="680">SetCaption()</text>
<text font-family="Arial,Helvetica,sans-serif" font-size="12px" x="441" y="696">SetHeight()</text>
<text font-family="Arial,Helvetica,sans-serif" font-size="12px" x="441" y="712">SetSize()</text>
<text font-family="Arial,Helvetica,sans-serif" font-size="12px" x="441" y="728">SetWidth()</text>
<text font-family="Arial,Helvetica,sans-serif" font-size="12px" x="441" y="744">TextWidth()</text>
<text font-family="Arial,Helvetica,sans-serif" font-size="12px" x="441" y="760">Width()</text>
<text font-family="Arial,Helvetica,sans-serif" font-size="12px" x="441" y="776">WriteSvg()</text>
<text font-family="Arial,Helvetica,sans-serif" font-size="12px" x="441" y="440">design.Diagram struct</text>
<rect stroke="#d3d3d3" fill="#ffffff" x="650" y="535" width="124" height="132"/>
<line stroke="#d3d3d3" x1="650" y1="565" x2="774" y2="565"/><text font-family="Arial,Helvetica,sans-serif" font-size="12px" x="656" y="581">HAlignBottom()</text>
<text font-family="Arial,Helvetica,sans-serif" font-size="12px" x="656" y="597">HAlignCenter()</text>
<text font-family="Arial,Helvetica,sans-serif" font-size="12px" x="656" y="613">HAlignTop()</text>
<text font-family="Arial,Helvetica,sans-serif" font-size="12px" x="656" y="629">VAlignCenter()</text>
<text font-family="Arial,Helvetica,sans-serif" font-size="12px" x="656" y="645">VAlignLeft()</text>
<text font-family="Arial,Helvetica,sans-serif" font-size="12px" x="656" y="661">VAlignRight()</text>
<text font-family="Arial,Helvetica,sans-serif" font-size="12px" x="656" y="555">shape.Aligner struct</text>
<rect stroke="#d3d3d3" fill="#ffffff" x="28" y="716" width="130" height="116"/>
<line stroke="#d3d3d3" x1="28" y1="746" x2="158" y2="746"/><text font-family="Arial,Helvetica,sans-serif" font-size="12px" x="34" y="762">Above()</text>
<text font-family="Arial,Helvetica,sans-serif" font-size="12px" x="34" y="778">At()</text>
<text font-family="Arial,Helvetica,sans-serif" font-size="12px" x="34" y="794">Below()</text>
<text font-family="Arial,Helvetica,sans-serif" font-size="12px" x="34" y="810">LeftOf()</text>
<text font-family="Arial,Helvetica,sans-serif" font-size="12px" x="34" y="826">RightOf()</text>
<text font-family="Arial,Helvetica,sans-serif" font-size="12px" x="34" y="736">shape.Adjuster struct</text>
<rect stroke="#d3d3d3" fill="#ffffff" x="650" y="840" width="191" height="138"/>
<line stroke="#d3d3d3" x1="650" y1="870" x2="841" y2="870"/><text font-family="Arial,Helvetica,sans-serif" font-size="12px" x="656" y="886">Diagram</text>
<text font-family="Arial,Helvetica,sans-serif" font-size="12px" x="656" y="902">ColWidth</text>
<text font-family="Arial,Helvetica,sans-serif" font-size="12px" x="656" y="918">VMargin</text>
<line stroke="#d3d3d3" x1="650" y1="924" x2="841" y2="924"/><text font-family="Arial,Helvetica,sans-serif" font-size="12px" x="656" y="940">AddColumns()</text>
<text font-family="Arial,Helvetica,sans-serif" font-size="12px" x="656" y="956">AddStruct()</text>
<text font-family="Arial,Helvetica,sans-serif" font-size="12px" x="656" y="972">ClearLinks()</text>
<text font-family="Arial,Helvetica,sans-serif" font-size="12px" x="656" y="860">design.SequenceDiagram struct</text>
<rect stroke="#d3d3d3" fill="#ffffff" x="420" y="872" width="166" height="106"/>
<line stroke="#d3d3d3" x1="420" y1="902" x2="586" y2="902"/><text font-family="Arial,Helvetica,sans-serif" font-size="12px" x="426" y="918">Diagram</text>
<line stroke="#d3d3d3" x1="420" y1="924" x2="586" y2="924"/><text font-family="Arial,Helvetica,sans-serif" font-size="12px" x="426" y="940">HideRealizations()</text>
<text font-family="Arial,Helvetica,sans-serif" font-size="12px" x="426" y="956">Interface()</text>
<text font-family="Arial,Helvetica,sans-serif" font-size="12px" x="426" y="972">Struct()</text>
<text font-family="Arial,Helvetica,sans-serif" font-size="12px" x="426" y="892">design.ClassDiagram struct</text>
<text font-family="Arial,Helvetica,sans-serif" font-size="12px" x="250" y="1024">Figure 1. Class diagram of design and design.shape packages</text></svg>