<svg
  xmlns="http://www.w3.org/2000/svg"
  xmlns:xlink="http://www.w3.org/1999/xlink"
  font-family="Arial,Helvetica,sans-serif" width="609" height="320">
<rect stroke="black" stroke-width="0" fill="#ff9999" fill-opacity="0.1" x="228" y="24" width="190" height="295"/>
<text class="area-red-title" font-size="12px" x="234" y="42"></text>
<rect stroke="black" stroke-width="0" fill="#99e6ff" fill-opacity="0.1" x="38" y="24" width="190" height="295"/>
<text class="area-blue-title" font-size="12px" x="44" y="42"></text>
<path stroke="#d3d3d3" d="M38,24 L38,277" />

<text font-family="Arial,Helvetica,sans-serif" font-size="12px" x="10" y="18">app.Client</text>
<path stroke="#d3d3d3" d="M228,24 L228,277" />

<text font-family="Arial,Helvetica,sans-serif" font-size="12px" x="198" y="18">app.Server</text>
<text font-style="italic" font-family="Arial,Helvetica,sans-serif" font-size="12px" x="101" y="312">Public https</text>
<path stroke="#d3d3d3" d="M418,24 L418,277" />

<text font-family="Arial,Helvetica,sans-serif" font-size="12px" x="400" y="18">sql.DB</text>
<text font-style="italic" font-family="Arial,Helvetica,sans-serif" font-size="12px" x="271" y="312">Private rpc via Gob</text>
<path stroke="black" d="M38,57 L228,57" />

<text font-family="Arial,Helvetica,sans-serif" font-size="12px" x="107" y="54">connect()</text>
<path stroke="red" d="M228,90 L418,90" />

<text font-family="Arial,Helvetica,sans-serif" font-size="12px" x="299" y="87">SELECT</text>
<path stroke="black" d="M418,123 L228,123" />

<text font-family="Arial,Helvetica,sans-serif" font-size="12px" x="307" y="120">Rows</text>
<path stroke="red" d="M228,156 L243,156" />

<path stroke="red" d="M243,156 L243,188" />

<path stroke="red" d="M243,188 L228,188" />

<text font-family="Arial,Helvetica,sans-serif" font-size="12px" x="249" y="175">Transform to view model</text>
<path stroke="#ffffff" stroke-dasharray="2,2,2" d="M0,211 L0,227" />

<path stroke="#ffffff" stroke-dasharray="2,2,2" d="M0,211 L0,227" />

<path stroke="#ffffff" stroke-dasharray="2,2,2" d="M0,211 L0,227" />

<path stroke="#ffffff" stroke-dasharray="2,2,2" d="M38,211 L38,227" />

<path stroke="#ffffff" stroke-dasharray="2,2,2" d="M228,211 L228,227" />

<path stroke="#ffffff" stroke-dasharray="2,2,2" d="M418,211 L418,227" />

<path stroke="#ffffff" stroke-dasharray="2,2,2" d="M608,211 L608,227" />

<path stroke="black" d="M228,244 L38,244" />

<text font-family="Arial,Helvetica,sans-serif" font-size="12px" x="100" y="241">Send HTML</text></svg>