<svg
  xmlns="http://www.w3.org/2000/svg"
  xmlns:xlink="http://www.w3.org/1999/xlink"
  font-family="Arial,Helvetica,sans-serif" width="838" height="738">
<path stroke="black" d="M284,348 L145,241" />
<g transform="rotate(217 284 348)"><path stroke="black" fill="#ffffff" d="M284,348 l 6,-4 6,4 -6,4 -6,-4" /></g>
<g transform="rotate(217 145 241)"><path stroke="black" fill="#ffffff" d="M145,241 l-8,-4 l 0,8 Z" /></g>

<path stroke="black" d="M567,483 L647,483" />
<g transform="rotate(0 567 483)"><path stroke="black" fill="#777777" d="M567,483 l 6,-4 6,4 -6,4 -6,-4" /></g>
<g transform="rotate(0 647 483)"><path stroke="black" fill="#ffffff" d="M647,483 l-8,-4 l 0,8 Z" /></g>

<path stroke="black" d="M432,483 L342,483" />
<g transform="rotate(180 432 483)"><path stroke="black" fill="#777777" d="M432,483 l 6,-4 6,4 -6,4 -6,-4" /></g>
<g transform="rotate(180 342 483)"><path stroke="black" fill="#ffffff" d="M342,483 l-8,-4 l 0,8 Z" /></g>

<path stroke="black" d="M499,634 L499,544" />
<g transform="rotate(-90 499 634)"><path stroke="black" fill="#777777" d="M499,634 l 6,-4 6,4 -6,4 -6,-4" /></g>
<g transform="rotate(-90 499 544)"><path stroke="black" fill="#ffffff" d="M499,544 l-8,-4 l 0,8 Z" /></g>

<path stroke="black" d="M678,602 L567,528" />
<g transform="rotate(213 678 602)"><path stroke="black" fill="#777777" d="M678,602 l 6,-4 6,4 -6,4 -6,-4" /></g>
<g transform="rotate(213 567 528)"><path stroke="black" fill="#ffffff" d="M567,528 l-8,-4 l 0,8 Z" /></g>

<path stroke="black" d="M237,483 L133,483" />
<g transform="rotate(180 237 483)"><path stroke="black" fill="#777777" d="M237,483 l 6,-4 6,4 -6,4 -6,-4" /></g>
<g transform="rotate(180 133 483)"><path stroke="black" fill="#ffffff" d="M133,483 l-8,-4 l 0,8 Z" /></g>

<path stroke="black" d="M82,268 L82,438" />
<g transform="rotate(90 82 268)"><path stroke="black" fill="#777777" d="M82,268 l 6,-4 6,4 -6,4 -6,-4" /></g>
<g transform="rotate(90 82 438)"><path stroke="black" fill="#ffffff" d="M82,438 l-8,-4 l 0,8 Z" /></g>

<path stroke="black" stroke-dasharray="5,5,5" d="M639,160 L359,113" />
<g transform="rotate(189 359 113)"><path stroke="black" fill="#ffffff" d="M359,113 l-8,-4 l 0,8 Z" /></g>

<path stroke="black" stroke-dasharray="5,5,5" d="M639,112 L359,104" />
<g transform="rotate(181 359 104)"><path stroke="black" fill="#ffffff" d="M359,104 l-8,-4 l 0,8 Z" /></g>

<path stroke="black" stroke-dasharray="5,5,5" d="M639,53 L359,92" />
<g transform="rotate(173 359 92)"><path stroke="black" fill="#ffffff" d="M359,92 l-8,-4 l 0,8 Z" /></g>

<path stroke="black" stroke-dasharray="5,5,5" d="M289,200 L289,184" />
<g transform="rotate(-90 289 184)"><path stroke="black" fill="#ffffff" d="M289,184 l-8,-4 l 0,8 Z" /></g>

<path stroke="black" stroke-dasharray="5,5,5" d="M434,184 L359,142" />
<g transform="rotate(209 359 142)"><path stroke="black" fill="#ffffff" d="M359,142 l-8,-4 l 0,8 Z" /></g>

<path stroke="black" stroke-dasharray="5,5,5" d="M145,165 L220,132" />
<g transform="rotate(-23 220 132)"><path stroke="black" fill="#ffffff" d="M220,132 l-8,-4 l 0,8 Z" /></g>

<rect stroke="#d3d3d3" fill="#ffffff" x="220" y="20" width="139" height="164"/>
<line stroke="#d3d3d3" x1="220" y1="50" x2="359" y2="50"/><text font-family="Arial,Helvetica,sans-serif" font-size="12px" x="226" y="66">Direction()</text>
<text font-family="Arial,Helvetica,sans-serif" font-size="12px" x="226" y="82">Height()</text>
<text font-family="Arial,Helvetica,sans-serif" font-size="12px" x="226" y="98">Position()</text>
<text font-family="Arial,Helvetica,sans-serif" font-size="12px" x="226" y="114">SetClass()</text>
<text font-family="Arial,Helvetica,sans-serif" font-size="12px" x="226" y="130">SetX()</text>
<text font-family="Arial,Helvetica,sans-serif" font-size="12px" x="226" y="146">SetY()</text>
<text font-family="Arial,Helvetica,sans-serif" font-size="12px" x="226" y="162">Width()</text>
<text font-family="Arial,Helvetica,sans-serif" font-size="12px" x="226" y="178">WriteSVG()</text>
<text font-family="Arial,Helvetica,sans-serif" font-size="12px" x="226" y="40">shape.Shape interface</text>
<rect stroke="#d3d3d3" fill="#ffffff" x="20" y="120" width="125" height="148"/>
<line stroke="#d3d3d3" x1="20" y1="150" x2="145" y2="150"/><text font-family="Arial,Helvetica,sans-serif" font-size="12px" x="26" y="166">X</text>
<text font-family="Arial,Helvetica,sans-serif" font-size="12px" x="26" y="182">Y</text>
<text font-family="Arial,Helvetica,sans-serif" font-size="12px" x="26" y="198">Title</text>
<text font-family="Arial,Helvetica,sans-serif" font-size="12px" x="26" y="214">Fields</text>
<text font-family="Arial,Helvetica,sans-serif" font-size="12px" x="26" y="230">Methods</text>
<text font-family="Arial,Helvetica,sans-serif" font-size="12px" x="26" y="246">Font</text>
<text font-family="Arial,Helvetica,sans-serif" font-size="12px" x="26" y="262">Pad</text>
<text font-family="Arial,Helvetica,sans-serif" font-size="12px" x="26" y="140">shape.Record struct</text>
<rect stroke="#d3d3d3" fill="#ffffff" x="235" y="200" width="109" height="68"/>
<line stroke="#d3d3d3" x1="235" y1="230" x2="344" y2="230"/><text font-family="Arial,Helvetica,sans-serif" font-size="12px" x="241" y="246">Start</text>
<text font-family="Arial,Helvetica,sans-serif" font-size="12px" x="241" y="262">End</text>
<text font-family="Arial,Helvetica,sans-serif" font-size="12px" x="241" y="220">shape.Line struct</text>
<rect stroke="#d3d3d3" fill="#ffffff" x="434" y="168" width="117" height="100"/>
<line stroke="#d3d3d3" x1="434" y1="198" x2="551" y2="198"/><text font-family="Arial,Helvetica,sans-serif" font-size="12px" x="440" y="214">Start</text>
<text font-family="Arial,Helvetica,sans-serif" font-size="12px" x="440" y="230">End</text>
<text font-family="Arial,Helvetica,sans-serif" font-size="12px" x="440" y="246">Tail</text>
<text font-family="Arial,Helvetica,sans-serif" font-size="12px" x="440" y="262">Head</text>
<text font-family="Arial,Helvetica,sans-serif" font-size="12px" x="440" y="188">shape.Arrow struct</text>
<rect stroke="#d3d3d3" fill="#ffffff" x="639" y="20" width="117" height="52"/>
<line stroke="#d3d3d3" x1="639" y1="50" x2="756" y2="50"/><text font-family="Arial,Helvetica,sans-serif" font-size="12px" x="645" y="66">Radius</text>
<text font-family="Arial,Helvetica,sans-serif" font-size="12px" x="645" y="40">shape.Circle struct</text>
<rect stroke="#d3d3d3" fill="#ffffff" x="639" y="102" width="135" height="26"/>
<text font-family="Arial,Helvetica,sans-serif" font-size="12px" x="645" y="122">shape.Diamond struct</text>
<rect stroke="#d3d3d3" fill="#ffffff" x="639" y="158" width="130" height="26"/>
<text font-family="Arial,Helvetica,sans-serif" font-size="12px" x="645" y="178">shape.Triangle struct</text>
<rect stroke="#d3d3d3" fill="#ffffff" x="31" y="438" width="102" height="90"/>
<line stroke="#d3d3d3" x1="31" y1="468" x2="133" y2="468"/><text font-family="Arial,Helvetica,sans-serif" font-size="12px" x="37" y="484">Height</text>
<text font-family="Arial,Helvetica,sans-serif" font-size="12px" x="37" y="500">LineHeight</text>
<line stroke="#d3d3d3" x1="31" y1="506" x2="133" y2="506"/><text font-family="Arial,Helvetica,sans-serif" font-size="12px" x="37" y="522">TextWidth()</text>
<text font-family="Arial,Helvetica,sans-serif" font-size="12px" x="37" y="458">draw.Font struct</text>
<rect stroke="#d3d3d3" fill="#ffffff" x="237" y="441" width="105" height="84"/>
<line stroke="#d3d3d3" x1="237" y1="471" x2="342" y2="471"/><text font-family="Arial,Helvetica,sans-serif" font-size="12px" x="243" y="487">Font</text>
<text font-family="Arial,Helvetica,sans-serif" font-size="12px" x="243" y="503">TextPad</text>
<text font-family="Arial,Helvetica,sans-serif" font-size="12px" x="243" y="519">Pad</text>
<text font-family="Arial,Helvetica,sans-serif" font-size="12px" x="243" y="461">draw.Style struct</text>
<rect stroke="#d3d3d3" fill="#ffffff" x="235" y="348" width="134" height="26"/>
<text font-family="Arial,Helvetica,sans-serif" font-size="12px" x="241" y="368">design.Relation struct</text>
<rect stroke="#d3d3d3" fill="#ffffff" x="432" y="422" width="135" height="122"/>
<line stroke="#d3d3d3" x1="432" y1="452" x2="567" y2="452"/><text font-family="Arial,Helvetica,sans-serif" font-size="12px" x="438" y="468">SVG</text>
<text font-family="Arial,Helvetica,sans-serif" font-size="12px" x="438" y="484">Aligner</text>
<text font-family="Arial,Helvetica,sans-serif" font-size="12px" x="438" y="500">Style</text>
<text font-family="Arial,Helvetica,sans-serif" font-size="12px" x="438" y="516">Caption</text>
<line stroke="#d3d3d3" x1="432" y1="522" x2="567" y2="522"/><text font-family="Arial,Helvetica,sans-serif" font-size="12px" x="438" y="538">TextWidth()</text>
<text font-family="Arial,Helvetica,sans-serif" font-size="12px" x="438" y="442">design.Diagram struct</text>
<rect stroke="#d3d3d3" fill="#ffffff" x="647" y="417" width="124" height="132"/>
<line stroke="#d3d3d3" x1="647" y1="447" x2="771" y2="447"/><text font-family="Arial,Helvetica,sans-serif" font-size="12px" x="653" y="463">HAlignBottom()</text>
<text font-family="Arial,Helvetica,sans-serif" font-size="12px" x="653" y="479">HAlignCenter()</text>
<text font-family="Arial,Helvetica,sans-serif" font-size="12px" x="653" y="495">HAlignTop()</text>
<text font-family="Arial,Helvetica,sans-serif" font-size="12px" x="653" y="511">VAlignCenter()</text>
<text font-family="Arial,Helvetica,sans-serif" font-size="12px" x="653" y="527">VAlignLeft()</text>
<text font-family="Arial,Helvetica,sans-serif" font-size="12px" x="653" y="543">VAlignRight()</text>
<text font-family="Arial,Helvetica,sans-serif" font-size="12px" x="653" y="437">shape.Aligner struct</text>
<rect stroke="#d3d3d3" fill="#ffffff" x="31" y="598" width="130" height="26"/>
<text font-family="Arial,Helvetica,sans-serif" font-size="12px" x="37" y="618">shape.Adjuster struct</text>
<rect stroke="#d3d3d3" fill="#ffffff" x="647" y="602" width="191" height="84"/>
<line stroke="#d3d3d3" x1="647" y1="632" x2="838" y2="632"/><text font-family="Arial,Helvetica,sans-serif" font-size="12px" x="653" y="648">Diagram</text>
<text font-family="Arial,Helvetica,sans-serif" font-size="12px" x="653" y="664">ColWidth</text>
<text font-family="Arial,Helvetica,sans-serif" font-size="12px" x="653" y="680">VMargin</text>
<text font-family="Arial,Helvetica,sans-serif" font-size="12px" x="653" y="622">design.SequenceDiagram struct</text>
<rect stroke="#d3d3d3" fill="#ffffff" x="417" y="634" width="166" height="52"/>
<line stroke="#d3d3d3" x1="417" y1="664" x2="583" y2="664"/><text font-family="Arial,Helvetica,sans-serif" font-size="12px" x="423" y="680">Diagram</text>
<text font-family="Arial,Helvetica,sans-serif" font-size="12px" x="423" y="654">design.ClassDiagram struct</text>
<text font-family="Arial,Helvetica,sans-serif" font-size="12px" x="249" y="732">Figure 1. Class diagram of design and design.shape packages</text></svg>