<svg
  xmlns="http://www.w3.org/2000/svg"
  xmlns:xlink="http://www.w3.org/1999/xlink"
  font-family="Arial,Helvetica,sans-serif" width="775" height="1054">
<path stroke="black" d="M280,293 L145,293" />
<g transform="rotate(180 280 293)"><path stroke="black" fill="#ffffff" d="M280,293 l 6,-4 6,4 -6,4 -6,-4" /></g>
<g transform="rotate(270 145 293)"><path stroke="black" fill="#ffffff" d="M141,301 l4,-8 l 4,8 Z" /></g>

<path stroke="black" d="M522,591 L582,591" />
<g transform="rotate(0 522 591)"><path stroke="black" fill="#777777" d="M522,591 l 6,-4 6,4 -6,4 -6,-4" /></g>
<g transform="rotate(90 582 591)"><path stroke="black" fill="#ffffff" d="M578,599 l4,-8 l 4,8 Z" /></g>

<path stroke="black" d="M387,591 L317,591" />
<g transform="rotate(180 387 591)"><path stroke="black" fill="#777777" d="M387,591 l 6,-4 6,4 -6,4 -6,-4" /></g>
<g transform="rotate(270 317 591)"><path stroke="black" fill="#ffffff" d="M313,599 l4,-8 l 4,8 Z" /></g>

<path stroke="black" d="M454,878 L454,788" />
<g transform="rotate(-90 454 878)"><path stroke="black" fill="#ffffff" d="M454,878 l 6,-4 6,4 -6,4 -6,-4" /></g>
<g transform="rotate(0 454 788)"><path stroke="black" fill="#ffffff" d="M450,796 l4,-8 l 4,8 Z" /></g>

<path stroke="black" d="M596,782 L522,682" />
<g transform="rotate(233 596 782)"><path stroke="black" fill="#ffffff" d="M596,782 l 6,-4 6,4 -6,4 -6,-4" /></g>
<g transform="rotate(323 522 682)"><path stroke="black" fill="#ffffff" d="M518,690 l4,-8 l 4,8 Z" /></g>

<path stroke="black" d="M212,591 L133,591" />
<g transform="rotate(180 212 591)"><path stroke="black" fill="#777777" d="M212,591 l 6,-4 6,4 -6,4 -6,-4" /></g>
<g transform="rotate(270 133 591)"><path stroke="black" fill="#ffffff" d="M129,599 l4,-8 l 4,8 Z" /></g>

<path stroke="black" d="M82,426 L82,546" />
<g transform="rotate(90 82 426)"><path stroke="black" fill="#777777" d="M82,426 l 6,-4 6,4 -6,4 -6,-4" /></g>
<g transform="rotate(180 82 546)"><path stroke="black" fill="#ffffff" d="M78,554 l4,-8 l 4,8 Z" /></g>

<path stroke="black" stroke-dasharray="5,5,5" d="M636,258 L419,140" />
<g transform="rotate(298 419 140)"><path stroke="black" fill="#ffffff" d="M415,148 l4,-8 l 4,8 Z" /></g>

<path stroke="black" stroke-dasharray="5,5,5" d="M619,175 L419,121" />
<g transform="rotate(285 419 121)"><path stroke="black" fill="#ffffff" d="M415,129 l4,-8 l 4,8 Z" /></g>

<path stroke="black" stroke-dasharray="5,5,5" d="M619,71 L419,94" />
<g transform="rotate(264 419 94)"><path stroke="black" fill="#ffffff" d="M415,102 l4,-8 l 4,8 Z" /></g>

<path stroke="black" stroke-dasharray="5,5,5" d="M145,247 L280,151" />
<g transform="rotate(55 280 151)"><path stroke="black" fill="#ffffff" d="M276,159 l4,-8 l 4,8 Z" /></g>

<rect stroke="#d3d3d3" fill="#ffffff" x="280" y="20" width="139" height="164"/>
<path stroke="#d3d3d3" d="M280,46 L419,46" />
<text font-family="Arial,Helvetica,sans-serif" font-size="12px" x="286" y="62">Direction()</text>
<text font-family="Arial,Helvetica,sans-serif" font-size="12px" x="286" y="78">Height()</text>
<text font-family="Arial,Helvetica,sans-serif" font-size="12px" x="286" y="94">Position()</text>
<text font-family="Arial,Helvetica,sans-serif" font-size="12px" x="286" y="110">SetClass()</text>
<text font-family="Arial,Helvetica,sans-serif" font-size="12px" x="286" y="126">SetX()</text>
<text font-family="Arial,Helvetica,sans-serif" font-size="12px" x="286" y="142">SetY()</text>
<text font-family="Arial,Helvetica,sans-serif" font-size="12px" x="286" y="158">Width()</text>
<text font-family="Arial,Helvetica,sans-serif" font-size="12px" x="286" y="174">WriteSVG()</text>
<text font-family="Arial,Helvetica,sans-serif" font-size="12px" x="286" y="36">shape.Shape interface</text>
<rect stroke="#d3d3d3" fill="#ffffff" x="20" y="160" width="125" height="266"/>
<path stroke="#d3d3d3" d="M20,186 L145,186" />
<text font-family="Arial,Helvetica,sans-serif" font-size="12px" x="26" y="202">X</text>
<text font-family="Arial,Helvetica,sans-serif" font-size="12px" x="26" y="218">Y</text>
<text font-family="Arial,Helvetica,sans-serif" font-size="12px" x="26" y="234">Title</text>
<text font-family="Arial,Helvetica,sans-serif" font-size="12px" x="26" y="250">Fields</text>
<text font-family="Arial,Helvetica,sans-serif" font-size="12px" x="26" y="266">Methods</text>
<text font-family="Arial,Helvetica,sans-serif" font-size="12px" x="26" y="282">Font</text>
<text font-family="Arial,Helvetica,sans-serif" font-size="12px" x="26" y="298">Pad</text>
<path stroke="#d3d3d3" d="M20,304 L145,304" />
<text font-family="Arial,Helvetica,sans-serif" font-size="12px" x="26" y="320">Edge()</text>
<text font-family="Arial,Helvetica,sans-serif" font-size="12px" x="26" y="336">HideFields()</text>
<text font-family="Arial,Helvetica,sans-serif" font-size="12px" x="26" y="352">HideMethod()</text>
<text font-family="Arial,Helvetica,sans-serif" font-size="12px" x="26" y="368">HideMethods()</text>
<text font-family="Arial,Helvetica,sans-serif" font-size="12px" x="26" y="384">SetFont()</text>
<text font-family="Arial,Helvetica,sans-serif" font-size="12px" x="26" y="400">SetTextPad()</text>
<text font-family="Arial,Helvetica,sans-serif" font-size="12px" x="26" y="416">String()</text>
<text font-family="Arial,Helvetica,sans-serif" font-size="12px" x="26" y="176">shape.Record struct</text>
<rect stroke="#d3d3d3" fill="#ffffff" x="619" y="20" width="117" height="90"/>
<path stroke="#d3d3d3" d="M619,46 L736,46" />
<text font-family="Arial,Helvetica,sans-serif" font-size="12px" x="625" y="62">Radius</text>
<path stroke="#d3d3d3" d="M619,68 L736,68" />
<text font-family="Arial,Helvetica,sans-serif" font-size="12px" x="625" y="84">Edge()</text>
<text font-family="Arial,Helvetica,sans-serif" font-size="12px" x="625" y="100">String()</text>
<text font-family="Arial,Helvetica,sans-serif" font-size="12px" x="625" y="36">shape.Circle struct</text>
<rect stroke="#d3d3d3" fill="#ffffff" x="619" y="160" width="135" height="68"/>
<path stroke="#d3d3d3" d="M619,186 L754,186" />
<text font-family="Arial,Helvetica,sans-serif" font-size="12px" x="625" y="202">Edge()</text>
<text font-family="Arial,Helvetica,sans-serif" font-size="12px" x="625" y="218">String()</text>
<text font-family="Arial,Helvetica,sans-serif" font-size="12px" x="625" y="176">shape.Diamond struct</text>
<rect stroke="#d3d3d3" fill="#ffffff" x="619" y="258" width="130" height="52"/>
<path stroke="#d3d3d3" d="M619,284 L749,284" />
<text font-family="Arial,Helvetica,sans-serif" font-size="12px" x="625" y="300">String()</text>
<text font-family="Arial,Helvetica,sans-serif" font-size="12px" x="625" y="274">shape.Triangle struct</text>
<rect stroke="#d3d3d3" fill="#ffffff" x="31" y="546" width="102" height="90"/>
<path stroke="#d3d3d3" d="M31,572 L133,572" />
<text font-family="Arial,Helvetica,sans-serif" font-size="12px" x="37" y="588">Height</text>
<text font-family="Arial,Helvetica,sans-serif" font-size="12px" x="37" y="604">LineHeight</text>
<path stroke="#d3d3d3" d="M31,610 L133,610" />
<text font-family="Arial,Helvetica,sans-serif" font-size="12px" x="37" y="626">TextWidth()</text>
<text font-family="Arial,Helvetica,sans-serif" font-size="12px" x="37" y="562">draw.Font struct</text>
<rect stroke="#d3d3d3" fill="#ffffff" x="212" y="522" width="105" height="138"/>
<path stroke="#d3d3d3" d="M212,548 L317,548" />
<text font-family="Arial,Helvetica,sans-serif" font-size="12px" x="218" y="564">Font</text>
<text font-family="Arial,Helvetica,sans-serif" font-size="12px" x="218" y="580">TextPad</text>
<text font-family="Arial,Helvetica,sans-serif" font-size="12px" x="218" y="596">Pad</text>
<text font-family="Arial,Helvetica,sans-serif" font-size="12px" x="218" y="612">Spacing</text>
<path stroke="#d3d3d3" d="M212,618 L317,618" />
<text font-family="Arial,Helvetica,sans-serif" font-size="12px" x="218" y="634">SetOutput()</text>
<text font-family="Arial,Helvetica,sans-serif" font-size="12px" x="218" y="650">Write()</text>
<text font-family="Arial,Helvetica,sans-serif" font-size="12px" x="218" y="538">draw.Style struct</text>
<rect stroke="#d3d3d3" fill="#ffffff" x="280" y="280" width="134" height="26"/>
<text font-family="Arial,Helvetica,sans-serif" font-size="12px" x="286" y="296">design.Relation struct</text>
<rect stroke="#d3d3d3" fill="#ffffff" x="387" y="394" width="135" height="394"/>
<path stroke="#d3d3d3" d="M387,420 L522,420" />
<text font-family="Arial,Helvetica,sans-serif" font-size="12px" x="393" y="436">SVG</text>
<text font-family="Arial,Helvetica,sans-serif" font-size="12px" x="393" y="452">Aligner</text>
<text font-family="Arial,Helvetica,sans-serif" font-size="12px" x="393" y="468">Style</text>
<text font-family="Arial,Helvetica,sans-serif" font-size="12px" x="393" y="484">Caption</text>
<path stroke="#d3d3d3" d="M387,490 L522,490" />
<text font-family="Arial,Helvetica,sans-serif" font-size="12px" x="393" y="506">AdaptSize()</text>
<text font-family="Arial,Helvetica,sans-serif" font-size="12px" x="393" y="522">Append()</text>
<text font-family="Arial,Helvetica,sans-serif" font-size="12px" x="393" y="538">Height()</text>
<text font-family="Arial,Helvetica,sans-serif" font-size="12px" x="393" y="554">Inline()</text>
<text font-family="Arial,Helvetica,sans-serif" font-size="12px" x="393" y="570">Link()</text>
<text font-family="Arial,Helvetica,sans-serif" font-size="12px" x="393" y="586">LinkAll()</text>
<text font-family="Arial,Helvetica,sans-serif" font-size="12px" x="393" y="602">Place()</text>
<text font-family="Arial,Helvetica,sans-serif" font-size="12px" x="393" y="618">PlaceGrid()</text>
<text font-family="Arial,Helvetica,sans-serif" font-size="12px" x="393" y="634">Prepend()</text>
<text font-family="Arial,Helvetica,sans-serif" font-size="12px" x="393" y="650">SaveAs()</text>
<text font-family="Arial,Helvetica,sans-serif" font-size="12px" x="393" y="666">SetCaption()</text>
<text font-family="Arial,Helvetica,sans-serif" font-size="12px" x="393" y="682">SetHeight()</text>
<text font-family="Arial,Helvetica,sans-serif" font-size="12px" x="393" y="698">SetSize()</text>
<text font-family="Arial,Helvetica,sans-serif" font-size="12px" x="393" y="714">SetWidth()</text>
<text font-family="Arial,Helvetica,sans-serif" font-size="12px" x="393" y="730">String()</text>
<text font-family="Arial,Helvetica,sans-serif" font-size="12px" x="393" y="746">TextWidth()</text>
<text font-family="Arial,Helvetica,sans-serif" font-size="12px" x="393" y="762">Width()</text>
<text font-family="Arial,Helvetica,sans-serif" font-size="12px" x="393" y="778">WriteSVG()</text>
<text font-family="Arial,Helvetica,sans-serif" font-size="12px" x="393" y="410">design.Diagram struct</text>
<rect stroke="#d3d3d3" fill="#ffffff" x="582" y="525" width="124" height="132"/>
<path stroke="#d3d3d3" d="M582,551 L706,551" />
<text font-family="Arial,Helvetica,sans-serif" font-size="12px" x="588" y="567">HAlignBottom()</text>
<text font-family="Arial,Helvetica,sans-serif" font-size="12px" x="588" y="583">HAlignCenter()</text>
<text font-family="Arial,Helvetica,sans-serif" font-size="12px" x="588" y="599">HAlignTop()</text>
<text font-family="Arial,Helvetica,sans-serif" font-size="12px" x="588" y="615">VAlignCenter()</text>
<text font-family="Arial,Helvetica,sans-serif" font-size="12px" x="588" y="631">VAlignLeft()</text>
<text font-family="Arial,Helvetica,sans-serif" font-size="12px" x="588" y="647">VAlignRight()</text>
<text font-family="Arial,Helvetica,sans-serif" font-size="12px" x="588" y="541">shape.Aligner struct</text>
<rect stroke="#d3d3d3" fill="#ffffff" x="31" y="706" width="130" height="138"/>
<path stroke="#d3d3d3" d="M31,732 L161,732" />
<text font-family="Arial,Helvetica,sans-serif" font-size="12px" x="37" y="748">Spacing</text>
<path stroke="#d3d3d3" d="M31,754 L161,754" />
<text font-family="Arial,Helvetica,sans-serif" font-size="12px" x="37" y="770">Above()</text>
<text font-family="Arial,Helvetica,sans-serif" font-size="12px" x="37" y="786">At()</text>
<text font-family="Arial,Helvetica,sans-serif" font-size="12px" x="37" y="802">Below()</text>
<text font-family="Arial,Helvetica,sans-serif" font-size="12px" x="37" y="818">LeftOf()</text>
<text font-family="Arial,Helvetica,sans-serif" font-size="12px" x="37" y="834">RightOf()</text>
<text font-family="Arial,Helvetica,sans-serif" font-size="12px" x="37" y="722">shape.Adjuster struct</text>
<rect stroke="#d3d3d3" fill="#ffffff" x="582" y="782" width="191" height="218"/>
<path stroke="#d3d3d3" d="M582,808 L773,808" />
<text font-family="Arial,Helvetica,sans-serif" font-size="12px" x="588" y="824">Diagram</text>
<text font-family="Arial,Helvetica,sans-serif" font-size="12px" x="588" y="840">ColWidth</text>
<text font-family="Arial,Helvetica,sans-serif" font-size="12px" x="588" y="856">VMargin</text>
<path stroke="#d3d3d3" d="M582,862 L773,862" />
<text font-family="Arial,Helvetica,sans-serif" font-size="12px" x="588" y="878">Add()</text>
<text font-family="Arial,Helvetica,sans-serif" font-size="12px" x="588" y="894">AddColumns()</text>
<text font-family="Arial,Helvetica,sans-serif" font-size="12px" x="588" y="910">AddInterface()</text>
<text font-family="Arial,Helvetica,sans-serif" font-size="12px" x="588" y="926">AddStruct()</text>
<text font-family="Arial,Helvetica,sans-serif" font-size="12px" x="588" y="942">ClearLinks()</text>
<text font-family="Arial,Helvetica,sans-serif" font-size="12px" x="588" y="958">Group()</text>
<text font-family="Arial,Helvetica,sans-serif" font-size="12px" x="588" y="974">Return()</text>
<text font-family="Arial,Helvetica,sans-serif" font-size="12px" x="588" y="990">Skip()</text>
<text font-family="Arial,Helvetica,sans-serif" font-size="12px" x="588" y="798">design.SequenceDiagram struct</text>
<rect stroke="#d3d3d3" fill="#ffffff" x="372" y="878" width="166" height="122"/>
<path stroke="#d3d3d3" d="M372,904 L538,904" />
<text font-family="Arial,Helvetica,sans-serif" font-size="12px" x="378" y="920">Diagram</text>
<path stroke="#d3d3d3" d="M372,926 L538,926" />
<text font-family="Arial,Helvetica,sans-serif" font-size="12px" x="378" y="942">HideRealizations()</text>
<text font-family="Arial,Helvetica,sans-serif" font-size="12px" x="378" y="958">Interface()</text>
<text font-family="Arial,Helvetica,sans-serif" font-size="12px" x="378" y="974">Slice()</text>
<text font-family="Arial,Helvetica,sans-serif" font-size="12px" x="378" y="990">Struct()</text>
<text font-family="Arial,Helvetica,sans-serif" font-size="12px" x="378" y="894">design.ClassDiagram struct</text>
<text font-family="Arial,Helvetica,sans-serif" font-size="12px" x="217" y="1047">Figure 1. Class diagram of design and design.shape packages</text></svg>