<svg
  xmlns="http://www.w3.org/2000/svg"
  xmlns:xlink="http://www.w3.org/1999/xlink"
  font-family="Arial,Helvetica,sans-serif" width="840" height="1064">
<path stroke="black" d="M290,496 L145,326" />
<g transform="rotate(229 290 496)"><path stroke="black" fill="#ffffff" d="M290,496 l 6,-4 6,4 -6,4 -6,-4" /></g>
<g transform="rotate(229 145 326)"><path stroke="black" fill="#ffffff" d="M145,326 l-8,-4 l 0,8 Z" /></g>

<path stroke="black" d="M567,601 L647,601" />
<g transform="rotate(0 567 601)"><path stroke="black" fill="#777777" d="M567,601 l 6,-4 6,4 -6,4 -6,-4" /></g>
<g transform="rotate(0 647 601)"><path stroke="black" fill="#ffffff" d="M647,601 l-8,-4 l 0,8 Z" /></g>

<path stroke="black" d="M432,601 L342,601" />
<g transform="rotate(180 432 601)"><path stroke="black" fill="#777777" d="M432,601 l 6,-4 6,4 -6,4 -6,-4" /></g>
<g transform="rotate(180 342 601)"><path stroke="black" fill="#ffffff" d="M342,601 l-8,-4 l 0,8 Z" /></g>

<path stroke="black" d="M499,888 L499,798" />
<g transform="rotate(-90 499 888)"><path stroke="black" fill="#777777" d="M499,888 l 6,-4 6,4 -6,4 -6,-4" /></g>
<g transform="rotate(-90 499 798)"><path stroke="black" fill="#ffffff" d="M499,798 l-8,-4 l 0,8 Z" /></g>

<path stroke="black" d="M670,824 L567,689" />
<g transform="rotate(232 670 824)"><path stroke="black" fill="#777777" d="M670,824 l 6,-4 6,4 -6,4 -6,-4" /></g>
<g transform="rotate(232 567 689)"><path stroke="black" fill="#ffffff" d="M567,689 l-8,-4 l 0,8 Z" /></g>

<path stroke="black" d="M237,601 L133,601" />
<g transform="rotate(180 237 601)"><path stroke="black" fill="#777777" d="M237,601 l 6,-4 6,4 -6,4 -6,-4" /></g>
<g transform="rotate(180 133 601)"><path stroke="black" fill="#ffffff" d="M133,601 l-8,-4 l 0,8 Z" /></g>

<path stroke="black" d="M82,386 L82,556" />
<g transform="rotate(90 82 386)"><path stroke="black" fill="#777777" d="M82,386 l 6,-4 6,4 -6,4 -6,-4" /></g>
<g transform="rotate(90 82 556)"><path stroke="black" fill="#ffffff" d="M82,556 l-8,-4 l 0,8 Z" /></g>

<path stroke="black" stroke-dasharray="5,5,5" d="M639,238 L359,129" />
<g transform="rotate(201 359 129)"><path stroke="black" fill="#ffffff" d="M359,129 l-8,-4 l 0,8 Z" /></g>

<path stroke="black" stroke-dasharray="5,5,5" d="M639,162 L359,114" />
<g transform="rotate(189 359 114)"><path stroke="black" fill="#ffffff" d="M359,114 l-8,-4 l 0,8 Z" /></g>

<path stroke="black" stroke-dasharray="5,5,5" d="M639,70 L359,95" />
<g transform="rotate(175 359 95)"><path stroke="black" fill="#ffffff" d="M359,95 l-8,-4 l 0,8 Z" /></g>

<path stroke="black" stroke-dasharray="5,5,5" d="M289,326 L289,184" />
<g transform="rotate(-90 289 184)"><path stroke="black" fill="#ffffff" d="M289,184 l-8,-4 l 0,8 Z" /></g>

<path stroke="black" stroke-dasharray="5,5,5" d="M434,238 L359,167" />
<g transform="rotate(223 359 167)"><path stroke="black" fill="#ffffff" d="M359,167 l-8,-4 l 0,8 Z" /></g>

<path stroke="black" stroke-dasharray="5,5,5" d="M145,206 L220,152" />
<g transform="rotate(-35 220 152)"><path stroke="black" fill="#ffffff" d="M220,152 l-8,-4 l 0,8 Z" /></g>

<rect stroke="#d3d3d3" fill="#ffffff" x="220" y="20" width="139" height="164"/>
<line stroke="#d3d3d3" x1="220" y1="50" x2="359" y2="50"/><text font-family="Arial,Helvetica,sans-serif" font-size="12px" x="226" y="66">Direction()</text>
<text font-family="Arial,Helvetica,sans-serif" font-size="12px" x="226" y="82">Height()</text>
<text font-family="Arial,Helvetica,sans-serif" font-size="12px" x="226" y="98">Position()</text>
<text font-family="Arial,Helvetica,sans-serif" font-size="12px" x="226" y="114">SetClass()</text>
<text font-family="Arial,Helvetica,sans-serif" font-size="12px" x="226" y="130">SetX()</text>
<text font-family="Arial,Helvetica,sans-serif" font-size="12px" x="226" y="146">SetY()</text>
<text font-family="Arial,Helvetica,sans-serif" font-size="12px" x="226" y="162">Width()</text>
<text font-family="Arial,Helvetica,sans-serif" font-size="12px" x="226" y="178">WriteSVG()</text>
<text font-family="Arial,Helvetica,sans-serif" font-size="12px" x="226" y="40">shape.Shape interface</text>
<rect stroke="#d3d3d3" fill="#ffffff" x="20" y="120" width="125" height="266"/>
<line stroke="#d3d3d3" x1="20" y1="150" x2="145" y2="150"/><text font-family="Arial,Helvetica,sans-serif" font-size="12px" x="26" y="166">X</text>
<text font-family="Arial,Helvetica,sans-serif" font-size="12px" x="26" y="182">Y</text>
<text font-family="Arial,Helvetica,sans-serif" font-size="12px" x="26" y="198">Title</text>
<text font-family="Arial,Helvetica,sans-serif" font-size="12px" x="26" y="214">Fields</text>
<text font-family="Arial,Helvetica,sans-serif" font-size="12px" x="26" y="230">Methods</text>
<text font-family="Arial,Helvetica,sans-serif" font-size="12px" x="26" y="246">Font</text>
<text font-family="Arial,Helvetica,sans-serif" font-size="12px" x="26" y="262">Pad</text>
<line stroke="#d3d3d3" x1="20" y1="268" x2="145" y2="268"/><text font-family="Arial,Helvetica,sans-serif" font-size="12px" x="26" y="284">Edge()</text>
<text font-family="Arial,Helvetica,sans-serif" font-size="12px" x="26" y="300">HideFields()</text>
<text font-family="Arial,Helvetica,sans-serif" font-size="12px" x="26" y="316">HideMethod()</text>
<text font-family="Arial,Helvetica,sans-serif" font-size="12px" x="26" y="332">HideMethods()</text>
<text font-family="Arial,Helvetica,sans-serif" font-size="12px" x="26" y="348">SetFont()</text>
<text font-family="Arial,Helvetica,sans-serif" font-size="12px" x="26" y="364">SetTextPad()</text>
<text font-family="Arial,Helvetica,sans-serif" font-size="12px" x="26" y="380">String()</text>
<text font-family="Arial,Helvetica,sans-serif" font-size="12px" x="26" y="140">shape.Record struct</text>
<rect stroke="#d3d3d3" fill="#ffffff" x="235" y="326" width="109" height="90"/>
<line stroke="#d3d3d3" x1="235" y1="356" x2="344" y2="356"/><text font-family="Arial,Helvetica,sans-serif" font-size="12px" x="241" y="372">Start</text>
<text font-family="Arial,Helvetica,sans-serif" font-size="12px" x="241" y="388">End</text>
<line stroke="#d3d3d3" x1="235" y1="394" x2="344" y2="394"/><text font-family="Arial,Helvetica,sans-serif" font-size="12px" x="241" y="410">String()</text>
<text font-family="Arial,Helvetica,sans-serif" font-size="12px" x="241" y="346">shape.Line struct</text>
<rect stroke="#d3d3d3" fill="#ffffff" x="434" y="200" width="117" height="186"/>
<line stroke="#d3d3d3" x1="434" y1="230" x2="551" y2="230"/><text font-family="Arial,Helvetica,sans-serif" font-size="12px" x="440" y="246">Start</text>
<text font-family="Arial,Helvetica,sans-serif" font-size="12px" x="440" y="262">End</text>
<text font-family="Arial,Helvetica,sans-serif" font-size="12px" x="440" y="278">Tail</text>
<text font-family="Arial,Helvetica,sans-serif" font-size="12px" x="440" y="294">Head</text>
<line stroke="#d3d3d3" x1="434" y1="300" x2="551" y2="300"/><text font-family="Arial,Helvetica,sans-serif" font-size="12px" x="440" y="316">DirQ1()</text>
<text font-family="Arial,Helvetica,sans-serif" font-size="12px" x="440" y="332">DirQ2()</text>
<text font-family="Arial,Helvetica,sans-serif" font-size="12px" x="440" y="348">DirQ3()</text>
<text font-family="Arial,Helvetica,sans-serif" font-size="12px" x="440" y="364">DirQ4()</text>
<text font-family="Arial,Helvetica,sans-serif" font-size="12px" x="440" y="380">String()</text>
<text font-family="Arial,Helvetica,sans-serif" font-size="12px" x="440" y="220">shape.Arrow struct</text>
<rect stroke="#d3d3d3" fill="#ffffff" x="639" y="20" width="117" height="90"/>
<line stroke="#d3d3d3" x1="639" y1="50" x2="756" y2="50"/><text font-family="Arial,Helvetica,sans-serif" font-size="12px" x="645" y="66">Radius</text>
<line stroke="#d3d3d3" x1="639" y1="72" x2="756" y2="72"/><text font-family="Arial,Helvetica,sans-serif" font-size="12px" x="645" y="88">Edge()</text>
<text font-family="Arial,Helvetica,sans-serif" font-size="12px" x="645" y="104">String()</text>
<text font-family="Arial,Helvetica,sans-serif" font-size="12px" x="645" y="40">shape.Circle struct</text>
<rect stroke="#d3d3d3" fill="#ffffff" x="639" y="140" width="135" height="68"/>
<line stroke="#d3d3d3" x1="639" y1="170" x2="774" y2="170"/><text font-family="Arial,Helvetica,sans-serif" font-size="12px" x="645" y="186">Edge()</text>
<text font-family="Arial,Helvetica,sans-serif" font-size="12px" x="645" y="202">String()</text>
<text font-family="Arial,Helvetica,sans-serif" font-size="12px" x="645" y="160">shape.Diamond struct</text>
<rect stroke="#d3d3d3" fill="#ffffff" x="639" y="238" width="130" height="52"/>
<line stroke="#d3d3d3" x1="639" y1="268" x2="769" y2="268"/><text font-family="Arial,Helvetica,sans-serif" font-size="12px" x="645" y="284">String()</text>
<text font-family="Arial,Helvetica,sans-serif" font-size="12px" x="645" y="258">shape.Triangle struct</text>
<rect stroke="#d3d3d3" fill="#ffffff" x="31" y="556" width="102" height="90"/>
<line stroke="#d3d3d3" x1="31" y1="586" x2="133" y2="586"/><text font-family="Arial,Helvetica,sans-serif" font-size="12px" x="37" y="602">Height</text>
<text font-family="Arial,Helvetica,sans-serif" font-size="12px" x="37" y="618">LineHeight</text>
<line stroke="#d3d3d3" x1="31" y1="624" x2="133" y2="624"/><text font-family="Arial,Helvetica,sans-serif" font-size="12px" x="37" y="640">TextWidth()</text>
<text font-family="Arial,Helvetica,sans-serif" font-size="12px" x="37" y="576">draw.Font struct</text>
<rect stroke="#d3d3d3" fill="#ffffff" x="237" y="532" width="105" height="138"/>
<line stroke="#d3d3d3" x1="237" y1="562" x2="342" y2="562"/><text font-family="Arial,Helvetica,sans-serif" font-size="12px" x="243" y="578">Font</text>
<text font-family="Arial,Helvetica,sans-serif" font-size="12px" x="243" y="594">TextPad</text>
<text font-family="Arial,Helvetica,sans-serif" font-size="12px" x="243" y="610">Pad</text>
<text font-family="Arial,Helvetica,sans-serif" font-size="12px" x="243" y="626">Spacing</text>
<line stroke="#d3d3d3" x1="237" y1="632" x2="342" y2="632"/><text font-family="Arial,Helvetica,sans-serif" font-size="12px" x="243" y="648">SetOutput()</text>
<text font-family="Arial,Helvetica,sans-serif" font-size="12px" x="243" y="664">Write()</text>
<text font-family="Arial,Helvetica,sans-serif" font-size="12px" x="243" y="552">draw.Style struct</text>
<rect stroke="#d3d3d3" fill="#ffffff" x="235" y="496" width="134" height="26"/>
<text font-family="Arial,Helvetica,sans-serif" font-size="12px" x="241" y="516">design.Relation struct</text>
<rect stroke="#d3d3d3" fill="#ffffff" x="432" y="404" width="135" height="394"/>
<line stroke="#d3d3d3" x1="432" y1="434" x2="567" y2="434"/><text font-family="Arial,Helvetica,sans-serif" font-size="12px" x="438" y="450">SVG</text>
<text font-family="Arial,Helvetica,sans-serif" font-size="12px" x="438" y="466">Aligner</text>
<text font-family="Arial,Helvetica,sans-serif" font-size="12px" x="438" y="482">Style</text>
<text font-family="Arial,Helvetica,sans-serif" font-size="12px" x="438" y="498">Caption</text>
<line stroke="#d3d3d3" x1="432" y1="504" x2="567" y2="504"/><text font-family="Arial,Helvetica,sans-serif" font-size="12px" x="438" y="520">AdaptSize()</text>
<text font-family="Arial,Helvetica,sans-serif" font-size="12px" x="438" y="536">Append()</text>
<text font-family="Arial,Helvetica,sans-serif" font-size="12px" x="438" y="552">Height()</text>
<text font-family="Arial,Helvetica,sans-serif" font-size="12px" x="438" y="568">Inline()</text>
<text font-family="Arial,Helvetica,sans-serif" font-size="12px" x="438" y="584">Link()</text>
<text font-family="Arial,Helvetica,sans-serif" font-size="12px" x="438" y="600">LinkAll()</text>
<text font-family="Arial,Helvetica,sans-serif" font-size="12px" x="438" y="616">Place()</text>
<text font-family="Arial,Helvetica,sans-serif" font-size="12px" x="438" y="632">PlaceGrid()</text>
<text font-family="Arial,Helvetica,sans-serif" font-size="12px" x="438" y="648">Prepend()</text>
<text font-family="Arial,Helvetica,sans-serif" font-size="12px" x="438" y="664">SaveAs()</text>
<text font-family="Arial,Helvetica,sans-serif" font-size="12px" x="438" y="680">SetCaption()</text>
<text font-family="Arial,Helvetica,sans-serif" font-size="12px" x="438" y="696">SetHeight()</text>
<text font-family="Arial,Helvetica,sans-serif" font-size="12px" x="438" y="712">SetSize()</text>
<text font-family="Arial,Helvetica,sans-serif" font-size="12px" x="438" y="728">SetWidth()</text>
<text font-family="Arial,Helvetica,sans-serif" font-size="12px" x="438" y="744">String()</text>
<text font-family="Arial,Helvetica,sans-serif" font-size="12px" x="438" y="760">TextWidth()</text>
<text font-family="Arial,Helvetica,sans-serif" font-size="12px" x="438" y="776">Width()</text>
<text font-family="Arial,Helvetica,sans-serif" font-size="12px" x="438" y="792">WriteSVG()</text>
<text font-family="Arial,Helvetica,sans-serif" font-size="12px" x="438" y="424">design.Diagram struct</text>
<rect stroke="#d3d3d3" fill="#ffffff" x="647" y="535" width="124" height="132"/>
<line stroke="#d3d3d3" x1="647" y1="565" x2="771" y2="565"/><text font-family="Arial,Helvetica,sans-serif" font-size="12px" x="653" y="581">HAlignBottom()</text>
<text font-family="Arial,Helvetica,sans-serif" font-size="12px" x="653" y="597">HAlignCenter()</text>
<text font-family="Arial,Helvetica,sans-serif" font-size="12px" x="653" y="613">HAlignTop()</text>
<text font-family="Arial,Helvetica,sans-serif" font-size="12px" x="653" y="629">VAlignCenter()</text>
<text font-family="Arial,Helvetica,sans-serif" font-size="12px" x="653" y="645">VAlignLeft()</text>
<text font-family="Arial,Helvetica,sans-serif" font-size="12px" x="653" y="661">VAlignRight()</text>
<text font-family="Arial,Helvetica,sans-serif" font-size="12px" x="653" y="555">shape.Aligner struct</text>
<rect stroke="#d3d3d3" fill="#ffffff" x="31" y="716" width="130" height="138"/>
<line stroke="#d3d3d3" x1="31" y1="746" x2="161" y2="746"/><text font-family="Arial,Helvetica,sans-serif" font-size="12px" x="37" y="762">Spacing</text>
<line stroke="#d3d3d3" x1="31" y1="768" x2="161" y2="768"/><text font-family="Arial,Helvetica,sans-serif" font-size="12px" x="37" y="784">Above()</text>
<text font-family="Arial,Helvetica,sans-serif" font-size="12px" x="37" y="800">At()</text>
<text font-family="Arial,Helvetica,sans-serif" font-size="12px" x="37" y="816">Below()</text>
<text font-family="Arial,Helvetica,sans-serif" font-size="12px" x="37" y="832">LeftOf()</text>
<text font-family="Arial,Helvetica,sans-serif" font-size="12px" x="37" y="848">RightOf()</text>
<text font-family="Arial,Helvetica,sans-serif" font-size="12px" x="37" y="736">shape.Adjuster struct</text>
<rect stroke="#d3d3d3" fill="#ffffff" x="647" y="824" width="191" height="186"/>
<line stroke="#d3d3d3" x1="647" y1="854" x2="838" y2="854"/><text font-family="Arial,Helvetica,sans-serif" font-size="12px" x="653" y="870">Diagram</text>
<text font-family="Arial,Helvetica,sans-serif" font-size="12px" x="653" y="886">ColWidth</text>
<text font-family="Arial,Helvetica,sans-serif" font-size="12px" x="653" y="902">VMargin</text>
<line stroke="#d3d3d3" x1="647" y1="908" x2="838" y2="908"/><text font-family="Arial,Helvetica,sans-serif" font-size="12px" x="653" y="924">Add()</text>
<text font-family="Arial,Helvetica,sans-serif" font-size="12px" x="653" y="940">AddColumns()</text>
<text font-family="Arial,Helvetica,sans-serif" font-size="12px" x="653" y="956">AddInterface()</text>
<text font-family="Arial,Helvetica,sans-serif" font-size="12px" x="653" y="972">AddStruct()</text>
<text font-family="Arial,Helvetica,sans-serif" font-size="12px" x="653" y="988">ClearLinks()</text>
<text font-family="Arial,Helvetica,sans-serif" font-size="12px" x="653" y="1004">Group()</text>
<text font-family="Arial,Helvetica,sans-serif" font-size="12px" x="653" y="844">design.SequenceDiagram struct</text>
<rect stroke="#d3d3d3" fill="#ffffff" x="417" y="888" width="166" height="122"/>
<line stroke="#d3d3d3" x1="417" y1="918" x2="583" y2="918"/><text font-family="Arial,Helvetica,sans-serif" font-size="12px" x="423" y="934">Diagram</text>
<line stroke="#d3d3d3" x1="417" y1="940" x2="583" y2="940"/><text font-family="Arial,Helvetica,sans-serif" font-size="12px" x="423" y="956">HideRealizations()</text>
<text font-family="Arial,Helvetica,sans-serif" font-size="12px" x="423" y="972">Interface()</text>
<text font-family="Arial,Helvetica,sans-serif" font-size="12px" x="423" y="988">Slice()</text>
<text font-family="Arial,Helvetica,sans-serif" font-size="12px" x="423" y="1004">Struct()</text>
<text font-family="Arial,Helvetica,sans-serif" font-size="12px" x="423" y="908">design.ClassDiagram struct</text>
<text font-family="Arial,Helvetica,sans-serif" font-size="12px" x="249" y="1057">Figure 1. Class diagram of design and design.shape packages</text></svg>