<svg
  xmlns="http://www.w3.org/2000/svg"
  xmlns:xlink="http://www.w3.org/1999/xlink"
  font-family="Arial,Helvetica,sans-serif" width="929" height="1130">
<path stroke="black" d="M280,377 L145,377" />
<g transform="rotate(180 280 377)"><path stroke="black" fill="#ffffff" d="M280,377 l 6,-4 6,4 -6,4 -6,-4" /></g>
<g transform="rotate(270 145 377)"><path stroke="black" fill="#ffffff" d="M141,385 l4,-8 l 4,8 Z" /></g>

<path stroke="black" d="M584,394 L415,184" />
<g transform="rotate(231 584 394)"><path stroke="black" fill="#777777" d="M584,394 l 6,-4 6,4 -6,4 -6,-4" /></g>
<g transform="rotate(321 415 184)"><path stroke="black" fill="#ffffff" d="M411,192 l4,-8 l 4,8 Z" /></g>

<path stroke="black" d="M522,659 L582,659" />
<g transform="rotate(0 522 659)"><path stroke="black" fill="#777777" d="M522,659 l 6,-4 6,4 -6,4 -6,-4" /></g>
<g transform="rotate(90 582 659)"><path stroke="black" fill="#ffffff" d="M578,667 l4,-8 l 4,8 Z" /></g>

<path stroke="black" d="M387,659 L317,659" />
<g transform="rotate(180 387 659)"><path stroke="black" fill="#777777" d="M387,659 l 6,-4 6,4 -6,4 -6,-4" /></g>
<g transform="rotate(270 317 659)"><path stroke="black" fill="#ffffff" d="M313,667 l4,-8 l 4,8 Z" /></g>

<path stroke="black" d="M454,954 L454,864" />
<g transform="rotate(-90 454 954)"><path stroke="black" fill="#ffffff" d="M454,954 l 6,-4 6,4 -6,4 -6,-4" /></g>
<g transform="rotate(0 454 864)"><path stroke="black" fill="#ffffff" d="M450,872 l4,-8 l 4,8 Z" /></g>

<path stroke="black" d="M598,858 L522,752" />
<g transform="rotate(234 598 858)"><path stroke="black" fill="#ffffff" d="M598,858 l 6,-4 6,4 -6,4 -6,-4" /></g>
<g transform="rotate(324 522 752)"><path stroke="black" fill="#ffffff" d="M518,760 l4,-8 l 4,8 Z" /></g>

<path stroke="black" d="M212,659 L133,659" />
<g transform="rotate(180 212 659)"><path stroke="black" fill="#777777" d="M212,659 l 6,-4 6,4 -6,4 -6,-4" /></g>
<g transform="rotate(270 133 659)"><path stroke="black" fill="#ffffff" d="M129,667 l4,-8 l 4,8 Z" /></g>

<path stroke="black" d="M736,183 L836,183" />
<g transform="rotate(0 736 183)"><path stroke="black" fill="#777777" d="M736,183 l 6,-4 6,4 -6,4 -6,-4" /></g>
<g transform="rotate(90 836 183)"><path stroke="black" fill="#ffffff" d="M832,191 l4,-8 l 4,8 Z" /></g>

<path stroke="black" d="M82,494 L82,614" />
<g transform="rotate(90 82 494)"><path stroke="black" fill="#777777" d="M82,494 l 6,-4 6,4 -6,4 -6,-4" /></g>
<g transform="rotate(180 82 614)"><path stroke="black" fill="#ffffff" d="M78,622 l4,-8 l 4,8 Z" /></g>

<path stroke="black" stroke-dasharray="5,5,5" d="M636,258 L419,140" />
<g transform="rotate(298 419 140)"><path stroke="black" fill="#ffffff" d="M415,148 l4,-8 l 4,8 Z" /></g>

<path stroke="black" stroke-dasharray="5,5,5" d="M619,63 L419,92" />
<g transform="rotate(262 419 92)"><path stroke="black" fill="#ffffff" d="M415,100 l4,-8 l 4,8 Z" /></g>

<path stroke="black" stroke-dasharray="5,5,5" d="M619,168 L419,119" />
<g transform="rotate(283 419 119)"><path stroke="black" fill="#ffffff" d="M415,127 l4,-8 l 4,8 Z" /></g>

<path stroke="black" stroke-dasharray="5,5,5" d="M145,312 L280,173" />
<g transform="rotate(45 280 173)"><path stroke="black" fill="#ffffff" d="M276,181 l4,-8 l 4,8 Z" /></g>

<rect stroke="#d3d3d3" fill="#ffffff" x="280" y="20" width="139" height="164"/>
<path stroke="#d3d3d3" d="M280,46 L419,46" />
<text font-family="Arial,Helvetica,sans-serif" font-size="12px" x="286" y="62">Direction()</text>
<text font-family="Arial,Helvetica,sans-serif" font-size="12px" x="286" y="78">Height()</text>
<text font-family="Arial,Helvetica,sans-serif" font-size="12px" x="286" y="94">Position()</text>
<text font-family="Arial,Helvetica,sans-serif" font-size="12px" x="286" y="110">SetClass()</text>
<text font-family="Arial,Helvetica,sans-serif" font-size="12px" x="286" y="126">SetX()</text>
<text font-family="Arial,Helvetica,sans-serif" font-size="12px" x="286" y="142">SetY()</text>
<text font-family="Arial,Helvetica,sans-serif" font-size="12px" x="286" y="158">Width()</text>
<text font-family="Arial,Helvetica,sans-serif" font-size="12px" x="286" y="174">WriteSVG()</text>
<text font-family="Arial,Helvetica,sans-serif" font-size="12px" x="286" y="36">shape.Shape interface</text>
<rect stroke="#d3d3d3" fill="#ffffff" x="20" y="260" width="125" height="234"/>
<path stroke="#d3d3d3" d="M20,286 L145,286" />
<text font-family="Arial,Helvetica,sans-serif" font-size="12px" x="26" y="302">Title</text>
<text font-family="Arial,Helvetica,sans-serif" font-size="12px" x="26" y="318">Fields</text>
<text font-family="Arial,Helvetica,sans-serif" font-size="12px" x="26" y="334">Methods</text>
<text font-family="Arial,Helvetica,sans-serif" font-size="12px" x="26" y="350">Font</text>
<text font-family="Arial,Helvetica,sans-serif" font-size="12px" x="26" y="366">Pad</text>
<path stroke="#d3d3d3" d="M20,372 L145,372" />
<text font-family="Arial,Helvetica,sans-serif" font-size="12px" x="26" y="388">Edge()</text>
<text font-family="Arial,Helvetica,sans-serif" font-size="12px" x="26" y="404">HideFields()</text>
<text font-family="Arial,Helvetica,sans-serif" font-size="12px" x="26" y="420">HideMethod()</text>
<text font-family="Arial,Helvetica,sans-serif" font-size="12px" x="26" y="436">HideMethods()</text>
<text font-family="Arial,Helvetica,sans-serif" font-size="12px" x="26" y="452">SetFont()</text>
<text font-family="Arial,Helvetica,sans-serif" font-size="12px" x="26" y="468">SetTextPad()</text>
<text font-family="Arial,Helvetica,sans-serif" font-size="12px" x="26" y="484">String()</text>
<text font-family="Arial,Helvetica,sans-serif" font-size="12px" x="26" y="276">shape.Record struct</text>
<rect stroke="#d3d3d3" fill="#ffffff" x="619" y="20" width="135" height="68"/>
<path stroke="#d3d3d3" d="M619,46 L754,46" />
<text font-family="Arial,Helvetica,sans-serif" font-size="12px" x="625" y="62">Edge()</text>
<text font-family="Arial,Helvetica,sans-serif" font-size="12px" x="625" y="78">String()</text>
<text font-family="Arial,Helvetica,sans-serif" font-size="12px" x="625" y="36">shape.Diamond struct</text>
<rect stroke="#d3d3d3" fill="#ffffff" x="619" y="138" width="117" height="90"/>
<path stroke="#d3d3d3" d="M619,164 L736,164" />
<text font-family="Arial,Helvetica,sans-serif" font-size="12px" x="625" y="180">Point</text>
<text font-family="Arial,Helvetica,sans-serif" font-size="12px" x="625" y="196">Radius</text>
<path stroke="#d3d3d3" d="M619,202 L736,202" />
<text font-family="Arial,Helvetica,sans-serif" font-size="12px" x="625" y="218">Edge()</text>
<text font-family="Arial,Helvetica,sans-serif" font-size="12px" x="625" y="154">shape.Circle struct</text>
<rect stroke="#d3d3d3" fill="#ffffff" x="619" y="258" width="130" height="52"/>
<path stroke="#d3d3d3" d="M619,284 L749,284" />
<text font-family="Arial,Helvetica,sans-serif" font-size="12px" x="625" y="300">String()</text>
<text font-family="Arial,Helvetica,sans-serif" font-size="12px" x="625" y="274">shape.Triangle struct</text>
<rect stroke="#d3d3d3" fill="#ffffff" x="836" y="50" width="91" height="266"/>
<path stroke="#d3d3d3" d="M836,76 L927,76" />
<text font-family="Arial,Helvetica,sans-serif" font-size="12px" x="842" y="92">X</text>
<text font-family="Arial,Helvetica,sans-serif" font-size="12px" x="842" y="108">Y</text>
<path stroke="#d3d3d3" d="M836,114 L927,114" />
<text font-family="Arial,Helvetica,sans-serif" font-size="12px" x="842" y="130">Above()</text>
<text font-family="Arial,Helvetica,sans-serif" font-size="12px" x="842" y="146">Below()</text>
<text font-family="Arial,Helvetica,sans-serif" font-size="12px" x="842" y="162">Distance()</text>
<text font-family="Arial,Helvetica,sans-serif" font-size="12px" x="842" y="178">Equals()</text>
<text font-family="Arial,Helvetica,sans-serif" font-size="12px" x="842" y="194">LeftOf()</text>
<text font-family="Arial,Helvetica,sans-serif" font-size="12px" x="842" y="210">Position()</text>
<text font-family="Arial,Helvetica,sans-serif" font-size="12px" x="842" y="226">RightOf()</text>
<text font-family="Arial,Helvetica,sans-serif" font-size="12px" x="842" y="242">SetX()</text>
<text font-family="Arial,Helvetica,sans-serif" font-size="12px" x="842" y="258">SetY()</text>
<text font-family="Arial,Helvetica,sans-serif" font-size="12px" x="842" y="274">String()</text>
<text font-family="Arial,Helvetica,sans-serif" font-size="12px" x="842" y="290">XY()</text>
<text font-family="Arial,Helvetica,sans-serif" font-size="12px" x="842" y="306">XYfloat64()</text>
<text font-family="Arial,Helvetica,sans-serif" font-size="12px" x="842" y="66">xy.Point struct</text>
<rect stroke="#d3d3d3" fill="#ffffff" x="31" y="614" width="102" height="90"/>
<path stroke="#d3d3d3" d="M31,640 L133,640" />
<text font-family="Arial,Helvetica,sans-serif" font-size="12px" x="37" y="656">Height</text>
<text font-family="Arial,Helvetica,sans-serif" font-size="12px" x="37" y="672">LineHeight</text>
<path stroke="#d3d3d3" d="M31,678 L133,678" />
<text font-family="Arial,Helvetica,sans-serif" font-size="12px" x="37" y="694">TextWidth()</text>
<text font-family="Arial,Helvetica,sans-serif" font-size="12px" x="37" y="630">draw.Font struct</text>
<rect stroke="#d3d3d3" fill="#ffffff" x="212" y="590" width="105" height="138"/>
<path stroke="#d3d3d3" d="M212,616 L317,616" />
<text font-family="Arial,Helvetica,sans-serif" font-size="12px" x="218" y="632">Font</text>
<text font-family="Arial,Helvetica,sans-serif" font-size="12px" x="218" y="648">TextPad</text>
<text font-family="Arial,Helvetica,sans-serif" font-size="12px" x="218" y="664">Pad</text>
<text font-family="Arial,Helvetica,sans-serif" font-size="12px" x="218" y="680">Spacing</text>
<path stroke="#d3d3d3" d="M212,686 L317,686" />
<text font-family="Arial,Helvetica,sans-serif" font-size="12px" x="218" y="702">SetOutput()</text>
<text font-family="Arial,Helvetica,sans-serif" font-size="12px" x="218" y="718">Write()</text>
<text font-family="Arial,Helvetica,sans-serif" font-size="12px" x="218" y="606">draw.Style struct</text>
<rect stroke="#d3d3d3" fill="#ffffff" x="280" y="364" width="134" height="26"/>
<text font-family="Arial,Helvetica,sans-serif" font-size="12px" x="286" y="380">design.Relation struct</text>
<rect stroke="#d3d3d3" fill="#ffffff" x="387" y="454" width="135" height="410"/>
<path stroke="#d3d3d3" d="M387,480 L522,480" />
<text font-family="Arial,Helvetica,sans-serif" font-size="12px" x="393" y="496">SVG</text>
<text font-family="Arial,Helvetica,sans-serif" font-size="12px" x="393" y="512">Aligner</text>
<text font-family="Arial,Helvetica,sans-serif" font-size="12px" x="393" y="528">Style</text>
<path stroke="#d3d3d3" d="M387,534 L522,534" />
<text font-family="Arial,Helvetica,sans-serif" font-size="12px" x="393" y="550">AdaptSize()</text>
<text font-family="Arial,Helvetica,sans-serif" font-size="12px" x="393" y="566">Append()</text>
<text font-family="Arial,Helvetica,sans-serif" font-size="12px" x="393" y="582">Caption()</text>
<text font-family="Arial,Helvetica,sans-serif" font-size="12px" x="393" y="598">Height()</text>
<text font-family="Arial,Helvetica,sans-serif" font-size="12px" x="393" y="614">Inline()</text>
<text font-family="Arial,Helvetica,sans-serif" font-size="12px" x="393" y="630">Link()</text>
<text font-family="Arial,Helvetica,sans-serif" font-size="12px" x="393" y="646">LinkAll()</text>
<text font-family="Arial,Helvetica,sans-serif" font-size="12px" x="393" y="662">Note()</text>
<text font-family="Arial,Helvetica,sans-serif" font-size="12px" x="393" y="678">Place()</text>
<text font-family="Arial,Helvetica,sans-serif" font-size="12px" x="393" y="694">PlaceGrid()</text>
<text font-family="Arial,Helvetica,sans-serif" font-size="12px" x="393" y="710">Prepend()</text>
<text font-family="Arial,Helvetica,sans-serif" font-size="12px" x="393" y="726">SaveAs()</text>
<text font-family="Arial,Helvetica,sans-serif" font-size="12px" x="393" y="742">SetCaption()</text>
<text font-family="Arial,Helvetica,sans-serif" font-size="12px" x="393" y="758">SetHeight()</text>
<text font-family="Arial,Helvetica,sans-serif" font-size="12px" x="393" y="774">SetSize()</text>
<text font-family="Arial,Helvetica,sans-serif" font-size="12px" x="393" y="790">SetWidth()</text>
<text font-family="Arial,Helvetica,sans-serif" font-size="12px" x="393" y="806">String()</text>
<text font-family="Arial,Helvetica,sans-serif" font-size="12px" x="393" y="822">TextWidth()</text>
<text font-family="Arial,Helvetica,sans-serif" font-size="12px" x="393" y="838">Width()</text>
<text font-family="Arial,Helvetica,sans-serif" font-size="12px" x="393" y="854">WriteSVG()</text>
<text font-family="Arial,Helvetica,sans-serif" font-size="12px" x="393" y="470">design.Diagram struct</text>
<rect stroke="#d3d3d3" fill="#ffffff" x="582" y="394" width="130" height="154"/>
<path stroke="#d3d3d3" d="M582,420 L712,420" />
<text font-family="Arial,Helvetica,sans-serif" font-size="12px" x="588" y="436">Spacing</text>
<path stroke="#d3d3d3" d="M582,442 L712,442" />
<text font-family="Arial,Helvetica,sans-serif" font-size="12px" x="588" y="458">Above()</text>
<text font-family="Arial,Helvetica,sans-serif" font-size="12px" x="588" y="474">At()</text>
<text font-family="Arial,Helvetica,sans-serif" font-size="12px" x="588" y="490">Below()</text>
<text font-family="Arial,Helvetica,sans-serif" font-size="12px" x="588" y="506">LeftOf()</text>
<text font-family="Arial,Helvetica,sans-serif" font-size="12px" x="588" y="522">Move()</text>
<text font-family="Arial,Helvetica,sans-serif" font-size="12px" x="588" y="538">RightOf()</text>
<text font-family="Arial,Helvetica,sans-serif" font-size="12px" x="588" y="410">shape.Adjuster struct</text>
<rect stroke="#d3d3d3" fill="#ffffff" x="582" y="593" width="124" height="132"/>
<path stroke="#d3d3d3" d="M582,619 L706,619" />
<text font-family="Arial,Helvetica,sans-serif" font-size="12px" x="588" y="635">HAlignBottom()</text>
<text font-family="Arial,Helvetica,sans-serif" font-size="12px" x="588" y="651">HAlignCenter()</text>
<text font-family="Arial,Helvetica,sans-serif" font-size="12px" x="588" y="667">HAlignTop()</text>
<text font-family="Arial,Helvetica,sans-serif" font-size="12px" x="588" y="683">VAlignCenter()</text>
<text font-family="Arial,Helvetica,sans-serif" font-size="12px" x="588" y="699">VAlignLeft()</text>
<text font-family="Arial,Helvetica,sans-serif" font-size="12px" x="588" y="715">VAlignRight()</text>
<text font-family="Arial,Helvetica,sans-serif" font-size="12px" x="588" y="609">shape.Aligner struct</text>
<rect stroke="#d3d3d3" fill="#ffffff" x="582" y="858" width="191" height="218"/>
<path stroke="#d3d3d3" d="M582,884 L773,884" />
<text font-family="Arial,Helvetica,sans-serif" font-size="12px" x="588" y="900">Diagram</text>
<text font-family="Arial,Helvetica,sans-serif" font-size="12px" x="588" y="916">ColWidth</text>
<text font-family="Arial,Helvetica,sans-serif" font-size="12px" x="588" y="932">VMargin</text>
<path stroke="#d3d3d3" d="M582,938 L773,938" />
<text font-family="Arial,Helvetica,sans-serif" font-size="12px" x="588" y="954">Add()</text>
<text font-family="Arial,Helvetica,sans-serif" font-size="12px" x="588" y="970">AddColumns()</text>
<text font-family="Arial,Helvetica,sans-serif" font-size="12px" x="588" y="986">AddInterface()</text>
<text font-family="Arial,Helvetica,sans-serif" font-size="12px" x="588" y="1002">AddStruct()</text>
<text font-family="Arial,Helvetica,sans-serif" font-size="12px" x="588" y="1018">ClearLinks()</text>
<text font-family="Arial,Helvetica,sans-serif" font-size="12px" x="588" y="1034">Group()</text>
<text font-family="Arial,Helvetica,sans-serif" font-size="12px" x="588" y="1050">Return()</text>
<text font-family="Arial,Helvetica,sans-serif" font-size="12px" x="588" y="1066">Skip()</text>
<text font-family="Arial,Helvetica,sans-serif" font-size="12px" x="588" y="874">design.SequenceDiagram struct</text>
<rect stroke="#d3d3d3" fill="#ffffff" x="372" y="954" width="166" height="122"/>
<path stroke="#d3d3d3" d="M372,980 L538,980" />
<text font-family="Arial,Helvetica,sans-serif" font-size="12px" x="378" y="996">Diagram</text>
<path stroke="#d3d3d3" d="M372,1002 L538,1002" />
<text font-family="Arial,Helvetica,sans-serif" font-size="12px" x="378" y="1018">HideRealizations()</text>
<text font-family="Arial,Helvetica,sans-serif" font-size="12px" x="378" y="1034">Interface()</text>
<text font-family="Arial,Helvetica,sans-serif" font-size="12px" x="378" y="1050">Slice()</text>
<text font-family="Arial,Helvetica,sans-serif" font-size="12px" x="378" y="1066">Struct()</text>
<text font-family="Arial,Helvetica,sans-serif" font-size="12px" x="378" y="970">design.ClassDiagram struct</text>
<text font-family="Arial,Helvetica,sans-serif" font-size="12px" x="294" y="1123">Figure 1. Class diagram of design and design.shape packages</text></svg>