<svg
  xmlns="http://www.w3.org/2000/svg"
  xmlns:xlink="http://www.w3.org/1999/xlink"
  font-family="Arial,Helvetica,sans-serif" width="840" height="1480">
<path stroke="black" d="M290,496 L145,326" />
<g transform="rotate(229 290 496)"><path stroke="black" fill="#ffffff" d="M290,496 l 6,-4 6,4 -6,4 -6,-4" /></g>
<g transform="rotate(319 145 326)"><path stroke="black" fill="#ffffff" d="M141,334 l4,-8 l 4,8 Z" /></g>

<path stroke="black" d="M567,601 L647,601" />
<g transform="rotate(0 567 601)"><path stroke="black" fill="#777777" d="M567,601 l 6,-4 6,4 -6,4 -6,-4" /></g>
<g transform="rotate(90 647 601)"><path stroke="black" fill="#ffffff" d="M643,609 l4,-8 l 4,8 Z" /></g>

<path stroke="black" d="M432,601 L342,601" />
<g transform="rotate(180 432 601)"><path stroke="black" fill="#777777" d="M432,601 l 6,-4 6,4 -6,4 -6,-4" /></g>
<g transform="rotate(270 342 601)"><path stroke="black" fill="#ffffff" d="M338,609 l4,-8 l 4,8 Z" /></g>

<path stroke="black" d="M499,888 L499,798" />
<g transform="rotate(-90 499 888)"><path stroke="black" fill="#ffffff" d="M499,888 l 6,-4 6,4 -6,4 -6,-4" /></g>
<g transform="rotate(0 499 798)"><path stroke="black" fill="#ffffff" d="M495,806 l4,-8 l 4,8 Z" /></g>

<path stroke="black" d="M647,915 L567,745" />
<g transform="rotate(244 647 915)"><path stroke="black" fill="#ffffff" d="M647,915 l 6,-4 6,4 -6,4 -6,-4" /></g>
<g transform="rotate(334 567 745)"><path stroke="black" fill="#ffffff" d="M563,753 l4,-8 l 4,8 Z" /></g>

<path stroke="black" d="M237,601 L133,601" />
<g transform="rotate(180 237 601)"><path stroke="black" fill="#777777" d="M237,601 l 6,-4 6,4 -6,4 -6,-4" /></g>
<g transform="rotate(270 133 601)"><path stroke="black" fill="#ffffff" d="M129,609 l4,-8 l 4,8 Z" /></g>

<path stroke="black" d="M82,386 L82,556" />
<g transform="rotate(90 82 386)"><path stroke="black" fill="#777777" d="M82,386 l 6,-4 6,4 -6,4 -6,-4" /></g>
<g transform="rotate(180 82 556)"><path stroke="black" fill="#ffffff" d="M78,564 l4,-8 l 4,8 Z" /></g>

<path stroke="black" stroke-dasharray="5,5,5" d="M639,238 L359,129" />
<g transform="rotate(291 359 129)"><path stroke="black" fill="#ffffff" d="M355,137 l4,-8 l 4,8 Z" /></g>

<path stroke="black" stroke-dasharray="5,5,5" d="M639,162 L359,114" />
<g transform="rotate(279 359 114)"><path stroke="black" fill="#ffffff" d="M355,122 l4,-8 l 4,8 Z" /></g>

<path stroke="black" stroke-dasharray="5,5,5" d="M639,70 L359,95" />
<g transform="rotate(265 359 95)"><path stroke="black" fill="#ffffff" d="M355,103 l4,-8 l 4,8 Z" /></g>

<path stroke="black" stroke-dasharray="5,5,5" d="M289,326 L289,184" />
<g transform="rotate(0 289 184)"><path stroke="black" fill="#ffffff" d="M285,192 l4,-8 l 4,8 Z" /></g>

<path stroke="black" stroke-dasharray="5,5,5" d="M434,221 L359,159" />
<g transform="rotate(309 359 159)"><path stroke="black" fill="#ffffff" d="M355,167 l4,-8 l 4,8 Z" /></g>

<path stroke="black" stroke-dasharray="5,5,5" d="M145,206 L220,152" />
<g transform="rotate(55 220 152)"><path stroke="black" fill="#ffffff" d="M216,160 l4,-8 l 4,8 Z" /></g>

<rect stroke="#d3d3d3" fill="#ffffff" x="220" y="20" width="139" height="164"/>
<line stroke="#d3d3d3" x1="220" y1="46" x2="359" y2="46"/><text font-family="Arial,Helvetica,sans-serif" font-size="12px" x="226" y="62">Direction()</text>
<text font-family="Arial,Helvetica,sans-serif" font-size="12px" x="226" y="78">Height()</text>
<text font-family="Arial,Helvetica,sans-serif" font-size="12px" x="226" y="94">Position()</text>
<text font-family="Arial,Helvetica,sans-serif" font-size="12px" x="226" y="110">SetClass()</text>
<text font-family="Arial,Helvetica,sans-serif" font-size="12px" x="226" y="126">SetX()</text>
<text font-family="Arial,Helvetica,sans-serif" font-size="12px" x="226" y="142">SetY()</text>
<text font-family="Arial,Helvetica,sans-serif" font-size="12px" x="226" y="158">Width()</text>
<text font-family="Arial,Helvetica,sans-serif" font-size="12px" x="226" y="174">WriteSVG()</text>
<text font-family="Arial,Helvetica,sans-serif" font-size="12px" x="226" y="36">shape.Shape interface</text>
<rect stroke="#d3d3d3" fill="#ffffff" x="20" y="120" width="125" height="266"/>
<line stroke="#d3d3d3" x1="20" y1="146" x2="145" y2="146"/><text font-family="Arial,Helvetica,sans-serif" font-size="12px" x="26" y="162">X</text>
<text font-family="Arial,Helvetica,sans-serif" font-size="12px" x="26" y="178">Y</text>
<text font-family="Arial,Helvetica,sans-serif" font-size="12px" x="26" y="194">Title</text>
<text font-family="Arial,Helvetica,sans-serif" font-size="12px" x="26" y="210">Fields</text>
<text font-family="Arial,Helvetica,sans-serif" font-size="12px" x="26" y="226">Methods</text>
<text font-family="Arial,Helvetica,sans-serif" font-size="12px" x="26" y="242">Font</text>
<text font-family="Arial,Helvetica,sans-serif" font-size="12px" x="26" y="258">Pad</text>
<line stroke="#d3d3d3" x1="20" y1="264" x2="145" y2="264"/><text font-family="Arial,Helvetica,sans-serif" font-size="12px" x="26" y="280">Edge()</text>
<text font-family="Arial,Helvetica,sans-serif" font-size="12px" x="26" y="296">HideFields()</text>
<text font-family="Arial,Helvetica,sans-serif" font-size="12px" x="26" y="312">HideMethod()</text>
<text font-family="Arial,Helvetica,sans-serif" font-size="12px" x="26" y="328">HideMethods()</text>
<text font-family="Arial,Helvetica,sans-serif" font-size="12px" x="26" y="344">SetFont()</text>
<text font-family="Arial,Helvetica,sans-serif" font-size="12px" x="26" y="360">SetTextPad()</text>
<text font-family="Arial,Helvetica,sans-serif" font-size="12px" x="26" y="376">String()</text>
<text font-family="Arial,Helvetica,sans-serif" font-size="12px" x="26" y="136">shape.Record struct</text>
<rect stroke="#d3d3d3" fill="#ffffff" x="235" y="326" width="109" height="90"/>
<line stroke="#d3d3d3" x1="235" y1="352" x2="344" y2="352"/><text font-family="Arial,Helvetica,sans-serif" font-size="12px" x="241" y="368">Start</text>
<text font-family="Arial,Helvetica,sans-serif" font-size="12px" x="241" y="384">End</text>
<line stroke="#d3d3d3" x1="235" y1="390" x2="344" y2="390"/><text font-family="Arial,Helvetica,sans-serif" font-size="12px" x="241" y="406">String()</text>
<text font-family="Arial,Helvetica,sans-serif" font-size="12px" x="241" y="342">shape.Line struct</text>
<rect stroke="#d3d3d3" fill="#ffffff" x="434" y="152" width="117" height="234"/>
<line stroke="#d3d3d3" x1="434" y1="178" x2="551" y2="178"/><text font-family="Arial,Helvetica,sans-serif" font-size="12px" x="440" y="194">Start</text>
<text font-family="Arial,Helvetica,sans-serif" font-size="12px" x="440" y="210">End</text>
<text font-family="Arial,Helvetica,sans-serif" font-size="12px" x="440" y="226">Tail</text>
<text font-family="Arial,Helvetica,sans-serif" font-size="12px" x="440" y="242">Head</text>
<line stroke="#d3d3d3" x1="434" y1="248" x2="551" y2="248"/><text font-family="Arial,Helvetica,sans-serif" font-size="12px" x="440" y="264">AbsAngle()</text>
<text font-family="Arial,Helvetica,sans-serif" font-size="12px" x="440" y="280">Angle()</text>
<text font-family="Arial,Helvetica,sans-serif" font-size="12px" x="440" y="296">CenterPosition()</text>
<text font-family="Arial,Helvetica,sans-serif" font-size="12px" x="440" y="312">DirQ1()</text>
<text font-family="Arial,Helvetica,sans-serif" font-size="12px" x="440" y="328">DirQ2()</text>
<text font-family="Arial,Helvetica,sans-serif" font-size="12px" x="440" y="344">DirQ3()</text>
<text font-family="Arial,Helvetica,sans-serif" font-size="12px" x="440" y="360">DirQ4()</text>
<text font-family="Arial,Helvetica,sans-serif" font-size="12px" x="440" y="376">String()</text>
<text font-family="Arial,Helvetica,sans-serif" font-size="12px" x="440" y="168">shape.Arrow struct</text>
<rect stroke="#d3d3d3" fill="#ffffff" x="639" y="20" width="117" height="90"/>
<line stroke="#d3d3d3" x1="639" y1="46" x2="756" y2="46"/><text font-family="Arial,Helvetica,sans-serif" font-size="12px" x="645" y="62">Radius</text>
<line stroke="#d3d3d3" x1="639" y1="68" x2="756" y2="68"/><text font-family="Arial,Helvetica,sans-serif" font-size="12px" x="645" y="84">Edge()</text>
<text font-family="Arial,Helvetica,sans-serif" font-size="12px" x="645" y="100">String()</text>
<text font-family="Arial,Helvetica,sans-serif" font-size="12px" x="645" y="36">shape.Circle struct</text>
<rect stroke="#d3d3d3" fill="#ffffff" x="639" y="140" width="135" height="68"/>
<line stroke="#d3d3d3" x1="639" y1="166" x2="774" y2="166"/><text font-family="Arial,Helvetica,sans-serif" font-size="12px" x="645" y="182">Edge()</text>
<text font-family="Arial,Helvetica,sans-serif" font-size="12px" x="645" y="198">String()</text>
<text font-family="Arial,Helvetica,sans-serif" font-size="12px" x="645" y="156">shape.Diamond struct</text>
<rect stroke="#d3d3d3" fill="#ffffff" x="639" y="238" width="130" height="52"/>
<line stroke="#d3d3d3" x1="639" y1="264" x2="769" y2="264"/><text font-family="Arial,Helvetica,sans-serif" font-size="12px" x="645" y="280">String()</text>
<text font-family="Arial,Helvetica,sans-serif" font-size="12px" x="645" y="254">shape.Triangle struct</text>
<rect stroke="#d3d3d3" fill="#ffffff" x="31" y="556" width="102" height="90"/>
<line stroke="#d3d3d3" x1="31" y1="582" x2="133" y2="582"/><text font-family="Arial,Helvetica,sans-serif" font-size="12px" x="37" y="598">Height</text>
<text font-family="Arial,Helvetica,sans-serif" font-size="12px" x="37" y="614">LineHeight</text>
<line stroke="#d3d3d3" x1="31" y1="620" x2="133" y2="620"/><text font-family="Arial,Helvetica,sans-serif" font-size="12px" x="37" y="636">TextWidth()</text>
<text font-family="Arial,Helvetica,sans-serif" font-size="12px" x="37" y="572">draw.Font struct</text>
<rect stroke="#d3d3d3" fill="#ffffff" x="237" y="532" width="105" height="138"/>
<line stroke="#d3d3d3" x1="237" y1="558" x2="342" y2="558"/><text font-family="Arial,Helvetica,sans-serif" font-size="12px" x="243" y="574">Font</text>
<text font-family="Arial,Helvetica,sans-serif" font-size="12px" x="243" y="590">TextPad</text>
<text font-family="Arial,Helvetica,sans-serif" font-size="12px" x="243" y="606">Pad</text>
<text font-family="Arial,Helvetica,sans-serif" font-size="12px" x="243" y="622">Spacing</text>
<line stroke="#d3d3d3" x1="237" y1="628" x2="342" y2="628"/><text font-family="Arial,Helvetica,sans-serif" font-size="12px" x="243" y="644">SetOutput()</text>
<text font-family="Arial,Helvetica,sans-serif" font-size="12px" x="243" y="660">Write()</text>
<text font-family="Arial,Helvetica,sans-serif" font-size="12px" x="243" y="548">draw.Style struct</text>
<rect stroke="#d3d3d3" fill="#ffffff" x="235" y="496" width="134" height="26"/>
<text font-family="Arial,Helvetica,sans-serif" font-size="12px" x="241" y="512">design.Relation struct</text>
<rect stroke="#d3d3d3" fill="#ffffff" x="432" y="404" width="135" height="394"/>
<line stroke="#d3d3d3" x1="432" y1="430" x2="567" y2="430"/><text font-family="Arial,Helvetica,sans-serif" font-size="12px" x="438" y="446">SVG</text>
<text font-family="Arial,Helvetica,sans-serif" font-size="12px" x="438" y="462">Aligner</text>
<text font-family="Arial,Helvetica,sans-serif" font-size="12px" x="438" y="478">Style</text>
<text font-family="Arial,Helvetica,sans-serif" font-size="12px" x="438" y="494">Caption</text>
<line stroke="#d3d3d3" x1="432" y1="500" x2="567" y2="500"/><text font-family="Arial,Helvetica,sans-serif" font-size="12px" x="438" y="516">AdaptSize()</text>
<text font-family="Arial,Helvetica,sans-serif" font-size="12px" x="438" y="532">Append()</text>
<text font-family="Arial,Helvetica,sans-serif" font-size="12px" x="438" y="548">Height()</text>
<text font-family="Arial,Helvetica,sans-serif" font-size="12px" x="438" y="564">Inline()</text>
<text font-family="Arial,Helvetica,sans-serif" font-size="12px" x="438" y="580">Link()</text>
<text font-family="Arial,Helvetica,sans-serif" font-size="12px" x="438" y="596">LinkAll()</text>
<text font-family="Arial,Helvetica,sans-serif" font-size="12px" x="438" y="612">Place()</text>
<text font-family="Arial,Helvetica,sans-serif" font-size="12px" x="438" y="628">PlaceGrid()</text>
<text font-family="Arial,Helvetica,sans-serif" font-size="12px" x="438" y="644">Prepend()</text>
<text font-family="Arial,Helvetica,sans-serif" font-size="12px" x="438" y="660">SaveAs()</text>
<text font-family="Arial,Helvetica,sans-serif" font-size="12px" x="438" y="676">SetCaption()</text>
<text font-family="Arial,Helvetica,sans-serif" font-size="12px" x="438" y="692">SetHeight()</text>
<text font-family="Arial,Helvetica,sans-serif" font-size="12px" x="438" y="708">SetSize()</text>
<text font-family="Arial,Helvetica,sans-serif" font-size="12px" x="438" y="724">SetWidth()</text>
<text font-family="Arial,Helvetica,sans-serif" font-size="12px" x="438" y="740">String()</text>
<text font-family="Arial,Helvetica,sans-serif" font-size="12px" x="438" y="756">TextWidth()</text>
<text font-family="Arial,Helvetica,sans-serif" font-size="12px" x="438" y="772">Width()</text>
<text font-family="Arial,Helvetica,sans-serif" font-size="12px" x="438" y="788">WriteSVG()</text>
<text font-family="Arial,Helvetica,sans-serif" font-size="12px" x="438" y="420">design.Diagram struct</text>
<rect stroke="#d3d3d3" fill="#ffffff" x="647" y="535" width="124" height="132"/>
<line stroke="#d3d3d3" x1="647" y1="561" x2="771" y2="561"/><text font-family="Arial,Helvetica,sans-serif" font-size="12px" x="653" y="577">HAlignBottom()</text>
<text font-family="Arial,Helvetica,sans-serif" font-size="12px" x="653" y="593">HAlignCenter()</text>
<text font-family="Arial,Helvetica,sans-serif" font-size="12px" x="653" y="609">HAlignTop()</text>
<text font-family="Arial,Helvetica,sans-serif" font-size="12px" x="653" y="625">VAlignCenter()</text>
<text font-family="Arial,Helvetica,sans-serif" font-size="12px" x="653" y="641">VAlignLeft()</text>
<text font-family="Arial,Helvetica,sans-serif" font-size="12px" x="653" y="657">VAlignRight()</text>
<text font-family="Arial,Helvetica,sans-serif" font-size="12px" x="653" y="551">shape.Aligner struct</text>
<rect stroke="#d3d3d3" fill="#ffffff" x="31" y="716" width="130" height="138"/>
<line stroke="#d3d3d3" x1="31" y1="742" x2="161" y2="742"/><text font-family="Arial,Helvetica,sans-serif" font-size="12px" x="37" y="758">Spacing</text>
<line stroke="#d3d3d3" x1="31" y1="764" x2="161" y2="764"/><text font-family="Arial,Helvetica,sans-serif" font-size="12px" x="37" y="780">Above()</text>
<text font-family="Arial,Helvetica,sans-serif" font-size="12px" x="37" y="796">At()</text>
<text font-family="Arial,Helvetica,sans-serif" font-size="12px" x="37" y="812">Below()</text>
<text font-family="Arial,Helvetica,sans-serif" font-size="12px" x="37" y="828">LeftOf()</text>
<text font-family="Arial,Helvetica,sans-serif" font-size="12px" x="37" y="844">RightOf()</text>
<text font-family="Arial,Helvetica,sans-serif" font-size="12px" x="37" y="732">shape.Adjuster struct</text>
<rect stroke="#d3d3d3" fill="#ffffff" x="647" y="808" width="191" height="618"/>
<line stroke="#d3d3d3" x1="647" y1="834" x2="838" y2="834"/><text font-family="Arial,Helvetica,sans-serif" font-size="12px" x="653" y="850">Diagram</text>
<text font-family="Arial,Helvetica,sans-serif" font-size="12px" x="653" y="866">ColWidth</text>
<text font-family="Arial,Helvetica,sans-serif" font-size="12px" x="653" y="882">VMargin</text>
<line stroke="#d3d3d3" x1="647" y1="888" x2="838" y2="888"/><text font-family="Arial,Helvetica,sans-serif" font-size="12px" x="653" y="904">AdaptSize()</text>
<text font-family="Arial,Helvetica,sans-serif" font-size="12px" x="653" y="920">Add()</text>
<text font-family="Arial,Helvetica,sans-serif" font-size="12px" x="653" y="936">AddColumns()</text>
<text font-family="Arial,Helvetica,sans-serif" font-size="12px" x="653" y="952">AddInterface()</text>
<text font-family="Arial,Helvetica,sans-serif" font-size="12px" x="653" y="968">AddStruct()</text>
<text font-family="Arial,Helvetica,sans-serif" font-size="12px" x="653" y="984">Append()</text>
<text font-family="Arial,Helvetica,sans-serif" font-size="12px" x="653" y="1000">ClearLinks()</text>
<text font-family="Arial,Helvetica,sans-serif" font-size="12px" x="653" y="1016">Group()</text>
<text font-family="Arial,Helvetica,sans-serif" font-size="12px" x="653" y="1032">HAlignBottom()</text>
<text font-family="Arial,Helvetica,sans-serif" font-size="12px" x="653" y="1048">HAlignCenter()</text>
<text font-family="Arial,Helvetica,sans-serif" font-size="12px" x="653" y="1064">HAlignTop()</text>
<text font-family="Arial,Helvetica,sans-serif" font-size="12px" x="653" y="1080">Height()</text>
<text font-family="Arial,Helvetica,sans-serif" font-size="12px" x="653" y="1096">Inline()</text>
<text font-family="Arial,Helvetica,sans-serif" font-size="12px" x="653" y="1112">Link()</text>
<text font-family="Arial,Helvetica,sans-serif" font-size="12px" x="653" y="1128">LinkAll()</text>
<text font-family="Arial,Helvetica,sans-serif" font-size="12px" x="653" y="1144">Place()</text>
<text font-family="Arial,Helvetica,sans-serif" font-size="12px" x="653" y="1160">PlaceGrid()</text>
<text font-family="Arial,Helvetica,sans-serif" font-size="12px" x="653" y="1176">Prepend()</text>
<text font-family="Arial,Helvetica,sans-serif" font-size="12px" x="653" y="1192">SaveAs()</text>
<text font-family="Arial,Helvetica,sans-serif" font-size="12px" x="653" y="1208">SetCaption()</text>
<text font-family="Arial,Helvetica,sans-serif" font-size="12px" x="653" y="1224">SetHeight()</text>
<text font-family="Arial,Helvetica,sans-serif" font-size="12px" x="653" y="1240">SetOutput()</text>
<text font-family="Arial,Helvetica,sans-serif" font-size="12px" x="653" y="1256">SetSize()</text>
<text font-family="Arial,Helvetica,sans-serif" font-size="12px" x="653" y="1272">SetWidth()</text>
<text font-family="Arial,Helvetica,sans-serif" font-size="12px" x="653" y="1288">Skip()</text>
<text font-family="Arial,Helvetica,sans-serif" font-size="12px" x="653" y="1304">String()</text>
<text font-family="Arial,Helvetica,sans-serif" font-size="12px" x="653" y="1320">TextWidth()</text>
<text font-family="Arial,Helvetica,sans-serif" font-size="12px" x="653" y="1336">VAlignCenter()</text>
<text font-family="Arial,Helvetica,sans-serif" font-size="12px" x="653" y="1352">VAlignLeft()</text>
<text font-family="Arial,Helvetica,sans-serif" font-size="12px" x="653" y="1368">VAlignRight()</text>
<text font-family="Arial,Helvetica,sans-serif" font-size="12px" x="653" y="1384">Width()</text>
<text font-family="Arial,Helvetica,sans-serif" font-size="12px" x="653" y="1400">Write()</text>
<text font-family="Arial,Helvetica,sans-serif" font-size="12px" x="653" y="1416">WriteSVG()</text>
<text font-family="Arial,Helvetica,sans-serif" font-size="12px" x="653" y="824">design.SequenceDiagram struct</text>
<rect stroke="#d3d3d3" fill="#ffffff" x="417" y="888" width="166" height="538"/>
<line stroke="#d3d3d3" x1="417" y1="914" x2="583" y2="914"/><text font-family="Arial,Helvetica,sans-serif" font-size="12px" x="423" y="930">Diagram</text>
<line stroke="#d3d3d3" x1="417" y1="936" x2="583" y2="936"/><text font-family="Arial,Helvetica,sans-serif" font-size="12px" x="423" y="952">AdaptSize()</text>
<text font-family="Arial,Helvetica,sans-serif" font-size="12px" x="423" y="968">Append()</text>
<text font-family="Arial,Helvetica,sans-serif" font-size="12px" x="423" y="984">HAlignBottom()</text>
<text font-family="Arial,Helvetica,sans-serif" font-size="12px" x="423" y="1000">HAlignCenter()</text>
<text font-family="Arial,Helvetica,sans-serif" font-size="12px" x="423" y="1016">HAlignTop()</text>
<text font-family="Arial,Helvetica,sans-serif" font-size="12px" x="423" y="1032">Height()</text>
<text font-family="Arial,Helvetica,sans-serif" font-size="12px" x="423" y="1048">HideRealizations()</text>
<text font-family="Arial,Helvetica,sans-serif" font-size="12px" x="423" y="1064">Inline()</text>
<text font-family="Arial,Helvetica,sans-serif" font-size="12px" x="423" y="1080">Interface()</text>
<text font-family="Arial,Helvetica,sans-serif" font-size="12px" x="423" y="1096">Link()</text>
<text font-family="Arial,Helvetica,sans-serif" font-size="12px" x="423" y="1112">LinkAll()</text>
<text font-family="Arial,Helvetica,sans-serif" font-size="12px" x="423" y="1128">Place()</text>
<text font-family="Arial,Helvetica,sans-serif" font-size="12px" x="423" y="1144">PlaceGrid()</text>
<text font-family="Arial,Helvetica,sans-serif" font-size="12px" x="423" y="1160">Prepend()</text>
<text font-family="Arial,Helvetica,sans-serif" font-size="12px" x="423" y="1176">SaveAs()</text>
<text font-family="Arial,Helvetica,sans-serif" font-size="12px" x="423" y="1192">SetCaption()</text>
<text font-family="Arial,Helvetica,sans-serif" font-size="12px" x="423" y="1208">SetHeight()</text>
<text font-family="Arial,Helvetica,sans-serif" font-size="12px" x="423" y="1224">SetOutput()</text>
<text font-family="Arial,Helvetica,sans-serif" font-size="12px" x="423" y="1240">SetSize()</text>
<text font-family="Arial,Helvetica,sans-serif" font-size="12px" x="423" y="1256">SetWidth()</text>
<text font-family="Arial,Helvetica,sans-serif" font-size="12px" x="423" y="1272">Slice()</text>
<text font-family="Arial,Helvetica,sans-serif" font-size="12px" x="423" y="1288">String()</text>
<text font-family="Arial,Helvetica,sans-serif" font-size="12px" x="423" y="1304">Struct()</text>
<text font-family="Arial,Helvetica,sans-serif" font-size="12px" x="423" y="1320">TextWidth()</text>
<text font-family="Arial,Helvetica,sans-serif" font-size="12px" x="423" y="1336">VAlignCenter()</text>
<text font-family="Arial,Helvetica,sans-serif" font-size="12px" x="423" y="1352">VAlignLeft()</text>
<text font-family="Arial,Helvetica,sans-serif" font-size="12px" x="423" y="1368">VAlignRight()</text>
<text font-family="Arial,Helvetica,sans-serif" font-size="12px" x="423" y="1384">Width()</text>
<text font-family="Arial,Helvetica,sans-serif" font-size="12px" x="423" y="1400">Write()</text>
<text font-family="Arial,Helvetica,sans-serif" font-size="12px" x="423" y="1416">WriteSVG()</text>
<text font-family="Arial,Helvetica,sans-serif" font-size="12px" x="423" y="904">design.ClassDiagram struct</text>
<text font-family="Arial,Helvetica,sans-serif" font-size="12px" x="249" y="1473">Figure 1. Class diagram of design and design.shape packages</text></svg>