<svg
  xmlns="http://www.w3.org/2000/svg"
  xmlns:xlink="http://www.w3.org/1999/xlink"
  font-family="Arial,Helvetica,sans-serif" width="745" height="374">
<rect stroke="#d3d3d3" fill="#ffffff" x="10" y="30" width="56" height="26"/>
<text font-family="Arial,Helvetica,sans-serif" font-size="12px" x="16" y="46">Record</text>
<path stroke="black" d="M130,80 L180,70" />
<g transform="rotate(79 180 70)"><path stroke="black" fill="#ffffff" d="M176,78 l4,-8 l 4,8 Z" /></g>

<path stroke="black" d="M130,80 L100,70" />
<g transform="rotate(288 100 70)"><path stroke="black" fill="#ffffff" d="M96,78 l4,-8 l 4,8 Z" /></g>

<path stroke="black" d="M130,80 L80,100" />
<g transform="rotate(249 80 100)"><path stroke="black" fill="#ffffff" d="M76,108 l4,-8 l 4,8 Z" /></g>

<path stroke="black" d="M130,80 L170,100" />
<g transform="rotate(116 170 100)"><path stroke="black" fill="#ffffff" d="M166,108 l4,-8 l 4,8 Z" /></g>

<path stroke="black" d="M130,80 L220,80" />
<g transform="rotate(90 220 80)"><path stroke="black" fill="#ffffff" d="M216,88 l4,-8 l 4,8 Z" /></g>

<path stroke="black" d="M130,80 L80,80" />
<g transform="rotate(270 80 80)"><path stroke="black" fill="#ffffff" d="M76,88 l4,-8 l 4,8 Z" /></g>

<path stroke="black" d="M130,80 L130,40" />
<g transform="rotate(0 130 40)"><path stroke="black" fill="#ffffff" d="M126,48 l4,-8 l 4,8 Z" /></g>

<path stroke="black" d="M130,80 L130,120" />
<g transform="rotate(180 130 120)"><path stroke="black" fill="#ffffff" d="M126,128 l4,-8 l 4,8 Z" /></g>

<text font-family="Arial,Helvetica,sans-serif" font-size="12px" x="216" y="46">Label</text>
<path stroke="black" d="M20,150 L150,150" />
<g transform="rotate(0 20 150)"><circle stroke="black" fill="#777777" cx="23" cy="150" r="3" />\n</g>
<g transform="rotate(90 150 150)"><path stroke="black" fill="#ffffff" d="M146,158 l4,-8 l 4,8 Z" /></g>

<path stroke="black" d="M20,188 L150,188" />
<g transform="rotate(0 20 188)"><path stroke="black" fill="#777777" d="M20,188 l 6,-4 6,4 -6,4 -6,-4" /></g>
<g transform="rotate(90 150 188)"><path stroke="black" fill="#ffffff" d="M146,196 l4,-8 l 4,8 Z" /></g>

<path stroke="#d3d3d3" fill="#ffffcc" d="M20,226 v 41 h 96 v -31 l -10,-10 L 20,226 M116,236 h -10 v -10"/>
<text font-family="Arial,Helvetica,sans-serif" font-size="12px" x="30" y="242">Notes support</text>
<text font-family="Arial,Helvetica,sans-serif" font-size="12px" x="30" y="258">multilines</text>

<circle stroke="#d3d3d3" stroke-width="2" fill="#ffffff" cx="30" cy="307" r="10" />\n
<circle stroke="black" cx="76" cy="307" r="6" />\n
<circle stroke="black" stroke-width="2" fill="#ffffff" cx="124" cy="307" r="10" />\n<circle stroke="black" cx="124" cy="307" r="6" />\n
<path stroke="black" d="M40,307 L70,307" />
<g transform="rotate(90 70 307)"><path stroke="black" fill="#ffffff" d="M66,315 l4,-8 l 4,8 Z" /></g>

<path stroke="black" d="M82,307 L112,307" />
<g transform="rotate(90 112 307)"><path stroke="black" fill="#ffffff" d="M108,315 l4,-8 l 4,8 Z" /></g>

<rect stroke="#d3d3d3" fill="#ffffff" x="180" y="188" width="72" height="26"/>
<rect stroke="#d3d3d3" fill="#ffffff" x="175" y="193" width="10" height="5"/><rect stroke="#d3d3d3" fill="#ffffff" x="175" y="204" width="10" height="5"/><text font-family="Arial,Helvetica,sans-serif" font-size="12px" x="191" y="206">database</text>
<rect stroke="#d3d3d3" fill="#ffffff" x="20" y="347" width="41" height="26"/>
<text font-family="Arial,Helvetica,sans-serif" font-size="12px" x="26" y="365">Rect</text>
<rect stroke="#d3d3d3" fill="#ffffff" rx="10" ry="10" x="91" y="347" width="132" height="26"/>
<text font-family="Arial,Helvetica,sans-serif" font-size="12px" x="97" y="365">Waiting for go routine</text>
<rect stroke="#d3d3d3" fill="#ffffff" x="186" y="244" width="60" height="26"/>
<rect stroke="#d3d3d3" fill="#ffffff" x="181" y="249" width="10" height="5"/><rect stroke="#d3d3d3" fill="#ffffff" x="181" y="260" width="10" height="5"/><text font-family="Arial,Helvetica,sans-serif" font-size="12px" x="197" y="262">service</text>
<path stroke="black" d="M216,244 L216,214" />
<g transform="rotate(0 216 214)"><path stroke="black" fill="#ffffff" d="M212,222 l4,-8 l 4,8 Z" /></g>

<text font-family="Arial,Helvetica,sans-serif" font-size="12px" x="222" y="233"></text>
<circle stroke="black" cx="606" cy="206" r="6" />\n
<circle stroke="black" cx="738" cy="206" r="6" />\n
<path stroke="black" d="M612,206 L732,206" />
<g transform="rotate(90 732 206)"><path stroke="black" fill="#ffffff" d="M728,214 l4,-8 l 4,8 Z" /></g>

<text font-family="Arial,Helvetica,sans-serif" font-size="12px" x="658" y="191">label</text>
<circle stroke="black" cx="666" cy="266" r="6" />\n
<path stroke="black" d="M612,212 L660,260" />
<g transform="rotate(135 660 260)"><path stroke="black" fill="#ffffff" d="M656,268 l4,-8 l 4,8 Z" /></g>

<text font-family="Arial,Helvetica,sans-serif" font-size="12px" x="646" y="240">label</text>
<circle stroke="black" cx="606" cy="338" r="6" />\n
<path stroke="black" d="M606,212 L606,332" />
<g transform="rotate(180 606 332)"><path stroke="black" fill="#ffffff" d="M602,340 l4,-8 l 4,8 Z" /></g>

<text font-family="Arial,Helvetica,sans-serif" font-size="12px" x="612" y="276">label</text>
<circle stroke="black" cx="526" cy="286" r="6" />\n
<path stroke="black" d="M600,212 L532,280" />
<g transform="rotate(225 532 280)"><path stroke="black" fill="#ffffff" d="M528,288 l4,-8 l 4,8 Z" /></g>

<text font-family="Arial,Helvetica,sans-serif" font-size="12px" x="576" y="250">label</text>
<circle stroke="black" cx="474" cy="206" r="6" />\n
<path stroke="black" d="M600,206 L480,206" />
<g transform="rotate(270 480 206)"><path stroke="black" fill="#ffffff" d="M476,214 l4,-8 l 4,8 Z" /></g>

<text font-family="Arial,Helvetica,sans-serif" font-size="12px" x="526" y="191">label</text>
<circle stroke="black" cx="526" cy="126" r="6" />\n
<path stroke="black" d="M600,200 L532,132" />
<g transform="rotate(315 532 132)"><path stroke="black" fill="#ffffff" d="M528,140 l4,-8 l 4,8 Z" /></g>

<text font-family="Arial,Helvetica,sans-serif" font-size="12px" x="576" y="170">label</text>
<circle stroke="black" cx="606" cy="74" r="6" />\n
<path stroke="black" d="M606,200 L606,80" />
<g transform="rotate(0 606 80)"><path stroke="black" fill="#ffffff" d="M602,88 l4,-8 l 4,8 Z" /></g>

<text font-family="Arial,Helvetica,sans-serif" font-size="12px" x="612" y="144">label</text>
<circle stroke="black" cx="666" cy="126" r="6" />\n
<path stroke="black" d="M610,200 L661,132" />
<g transform="rotate(37 661 132)"><path stroke="black" fill="#ffffff" d="M657,140 l4,-8 l 4,8 Z" /></g>

<text font-family="Arial,Helvetica,sans-serif" font-size="12px" x="645" y="170">label</text></svg>