<svg
  xmlns="http://www.w3.org/2000/svg"
  xmlns:xlink="http://www.w3.org/1999/xlink"
  font-family="Arial,Helvetica,sans-serif" width="438" height="203">
<circle stroke="black" stroke-width="2" fill="#ffffff" cx="30" cy="145" r="5" />
<path stroke="black" stroke-width="2" fill="#ffffff" d="M30,150 l 0,15 m -10,-10 l 20,0 m -10,10 l -10,10 m 10,-10 l 10,10 Z" />

<rect stroke="#d3d3d3" fill="#ffffff" x="100" y="140" width="69" height="42"/>
<text font-family="Arial,Helvetica,sans-serif" font-size="12px" x="106" y="158">Customer</text>
<text font-family="Arial,Helvetica,sans-serif" font-size="12px" x="106" y="174">Details UI</text>
<rect stroke="#d3d3d3" fill="#ffffff" x="229" y="140" width="79" height="42"/>
<text font-family="Arial,Helvetica,sans-serif" font-size="12px" x="235" y="158">Customer</text>
<text font-family="Arial,Helvetica,sans-serif" font-size="12px" x="235" y="174">Details BFF</text>
<rect stroke="#d3d3d3" fill="#ffffff" x="229" y="38" width="62" height="42"/>
<text font-family="Arial,Helvetica,sans-serif" font-size="12px" x="235" y="56">Identity</text>
<text font-family="Arial,Helvetica,sans-serif" font-size="12px" x="235" y="72">Provider</text>
<rect stroke="#d3d3d3" fill="#ffffff" x="368" y="140" width="69" height="42"/>
<text font-family="Arial,Helvetica,sans-serif" font-size="12px" x="374" y="158">Customer</text>
<text font-family="Arial,Helvetica,sans-serif" font-size="12px" x="374" y="174">Service</text>
<path stroke="black" d="M40,157 L100,159" />
<g transform="rotate(91 100 159)"><path stroke="black" fill="#ffffff" d="M96,167 l4,-8 l 4,8 Z" /></g>

<path stroke="black" d="M169,161 L229,161" />
<g transform="rotate(90 229 161)"><path stroke="black" fill="#ffffff" d="M225,169 l4,-8 l 4,8 Z" /></g>

<path stroke="black" d="M266,140 L261,80" />
<g transform="rotate(355 261 80)"><path stroke="black" fill="#ffffff" d="M257,88 l4,-8 l 4,8 Z" /></g>

<path stroke="black" d="M308,161 L368,161" />
<g transform="rotate(90 368 161)"><path stroke="black" fill="#ffffff" d="M364,169 l4,-8 l 4,8 Z" /></g>

<path stroke="black" stroke-width="2" stroke-dasharray="5,5,5" d="M196,120 L202,202" />

<text font-family="Arial,Helvetica,sans-serif" font-size="12px" x="40" y="56">internet</text>
<rect stroke="orange" fill="orange" x="249" y="16" width="46" height="26"/>
<text font-family="Arial,Helvetica,sans-serif" font-size="12px" x="255" y="34">creds</text>
<rect stroke="orange" fill="orange" x="388" y="118" width="30" height="26"/>
<text font-family="Arial,Helvetica,sans-serif" font-size="12px" x="394" y="136">PII</text></svg>