<svg
  xmlns="http://www.w3.org/2000/svg"
  xmlns:xlink="http://www.w3.org/1999/xlink"
  font-family="Arial,Helvetica,sans-serif" width="284" height="2157">
<text font-family="Arial,Helvetica,sans-serif" font-size="12px" x="20" y="36">Actor</text>
<circle stroke="black" stroke-width="2" fill="#ffffff" cx="218" cy="25" r="5" />
<path stroke="black" stroke-width="2" fill="#ffffff" d="M218,30 l 0,15 m -10,-10 l 20,0 m -10,10 l -10,10 m 10,-10 l 10,10 Z" />

<text font-family="Arial,Helvetica,sans-serif" font-size="12px" x="20" y="142">Arrow</text>
<path stroke="black" d="M188,130 L248,130" />
<g transform="rotate(90 248 130)"><path stroke="black" fill="#ffffff" d="M244,138 l4,-8 l 4,8 Z" /></g>

<text font-family="Arial,Helvetica,sans-serif" font-size="12px" x="20" y="248">Circle</text>
<circle stroke="#d3d3d3" stroke-width="2" fill="#ffffff" cx="218" cy="240" r="20" />\n
<text font-family="Arial,Helvetica,sans-serif" font-size="12px" x="20" y="354">Component</text>
<rect stroke="#d3d3d3" fill="#ffffff" x="176" y="333" width="85" height="26"/>
<rect stroke="#d3d3d3" fill="#ffffff" x="171" y="338" width="10" height="5"/><rect stroke="#d3d3d3" fill="#ffffff" x="171" y="349" width="10" height="5"/><text font-family="Arial,Helvetica,sans-serif" font-size="12px" x="187" y="351">Component</text>
<text font-family="Arial,Helvetica,sans-serif" font-size="12px" x="20" y="460">Component(linked)</text>
<rect stroke="#d3d3d3" fill="#ffffff" x="176" y="439" width="85" height="26"/>
<rect stroke="#d3d3d3" fill="#ffffff" x="171" y="444" width="10" height="5"/><rect stroke="#d3d3d3" fill="#ffffff" x="171" y="455" width="10" height="5"/><a href="https://gregoryv.github.io/draw"><text font-family="Arial,Helvetica,sans-serif" font-size="12px" x="187" y="457">Component</text></a>
<text font-family="Arial,Helvetica,sans-serif" font-size="12px" x="20" y="566">Cylinder</text>
<path stroke="#d3d3d3" stroke-width="1" fill="#ffffff" d="M 187 544 L 187 566 C 187 578, 247 578, 247 566 L 247 544" />
<ellipse stroke="#d3d3d3" stroke-width="1" fill="#ffffff" cx="217" cy="544" rx="30" ry="6" />

<text font-family="Arial,Helvetica,sans-serif" font-size="12px" x="20" y="672">Database</text>
<path stroke="#d3d3d3" stroke-width="1" fill="#ffffff" d="M 184 649 L 184 673 C 184 685, 250 685, 250 673 L 250 649" />
<ellipse stroke="#d3d3d3" stroke-width="1" fill="#ffffff" cx="217" cy="649" rx="33" ry="6" />
<text class="database-title" font-size="12px" x="190" y="669">database</text>
<text font-family="Arial,Helvetica,sans-serif" font-size="12px" x="20" y="778">Diamond</text>
<path stroke="#d3d3d3" fill="#333333" d="M212,770 l 6,-4 6,4 -6,4 -6,-4" />
<text font-family="Arial,Helvetica,sans-serif" font-size="12px" x="20" y="884">Dot</text>
<circle stroke="black" cx="218" cy="876" r="6" />\n
<text font-family="Arial,Helvetica,sans-serif" font-size="12px" x="20" y="990">ExitDot</text>
<circle stroke="black" stroke-width="2" fill="#ffffff" cx="218" cy="982" r="10" />\n<circle stroke="black" cx="218" cy="982" r="6" />\n
<text font-family="Arial,Helvetica,sans-serif" font-size="12px" x="20" y="1096">Hexagon</text>
<path stroke="#d3d3d3" fill="#ffffff" d="M198,1068 l 40,0 20,20 -20,20 -40,0 -20,-20 20,-20" />
<text font-family="Arial,Helvetica,sans-serif" font-size="12px" x="193" y="1092">Hexagon</text>
<text font-family="Arial,Helvetica,sans-serif" font-size="12px" x="20" y="1202">Internet</text>
<circle stroke="#d3d3d3" fill="#e2e2e2" cx="218" cy="1194" r="40" />\n
<text font-family="Arial,Helvetica,sans-serif" font-size="12px" x="197" y="1200">Internet</text>
<text font-family="Arial,Helvetica,sans-serif" font-size="12px" x="20" y="1308">Label</text>
<text font-family="Arial,Helvetica,sans-serif" font-size="12px" x="193" y="1308">label-text</text>
<text font-family="Arial,Helvetica,sans-serif" font-size="12px" x="20" y="1414">Line</text>
<path stroke="black" d="M188,1406 L248,1406" />

<text font-family="Arial,Helvetica,sans-serif" font-size="12px" x="20" y="1520">Note</text>
<path stroke="#d3d3d3" fill="#ffffcc" d="M169,1492 v 41 h 99 v -31 l -10,-10 L 169,1492 M268,1502 h -10 v -10"/>
<text font-family="Arial,Helvetica,sans-serif" font-size="12px" x="179" y="1508">This describes</text>
<text font-family="Arial,Helvetica,sans-serif" font-size="12px" x="179" y="1524">something...</text>

<text font-family="Arial,Helvetica,sans-serif" font-size="12px" x="20" y="1626">Process</text>
<circle stroke="#d3d3d3" fill="#ffffff" cx="219" cy="1618" r="56" />\n<text font-family="Arial,Helvetica,sans-serif" font-size="12px" x="170" y="1626">Circle with a label</text>
<text font-family="Arial,Helvetica,sans-serif" font-size="12px" x="20" y="1732">Record</text>
<rect stroke="#d3d3d3" fill="#ffffff" x="187" y="1687" width="63" height="74"/>
<path stroke="#d3d3d3" d="M187,1713 L250,1713" />
<text font-family="Arial,Helvetica,sans-serif" font-size="12px" x="193" y="1729">fields</text>
<path stroke="#d3d3d3" d="M187,1735 L250,1735" />
<text font-family="Arial,Helvetica,sans-serif" font-size="12px" x="193" y="1751">methods</text>
<text font-family="Arial,Helvetica,sans-serif" font-size="12px" x="193" y="1703">record</text>
<text font-family="Arial,Helvetica,sans-serif" font-size="12px" x="20" y="1838">Rect</text>
<rect stroke="#d3d3d3" fill="#ffffff" x="180" y="1817" width="77" height="26"/>
<text font-family="Arial,Helvetica,sans-serif" font-size="12px" x="186" y="1835">a rectangle</text>
<text font-family="Arial,Helvetica,sans-serif" font-size="12px" x="20" y="1944">State</text>
<rect stroke="#d3d3d3" fill="#ffffff" rx="10" ry="10" x="194" y="1923" width="48" height="26"/>
<text font-family="Arial,Helvetica,sans-serif" font-size="12px" x="200" y="1941">active</text>
<text font-family="Arial,Helvetica,sans-serif" font-size="12px" x="20" y="2050">Store</text>
<path stroke="#d3d3d3" fill="#ffffff" d="M153,2021 L283,2021" />
<path stroke="#d3d3d3" fill="#ffffff" d="M153,2063 L283,2063" />

<text font-family="Arial,Helvetica,sans-serif" font-size="12px" x="159" y="2039">a store</text>
<text font-family="Arial,Helvetica,sans-serif" font-size="12px" x="159" y="2055">holding keys</text>
<text font-family="Arial,Helvetica,sans-serif" font-size="12px" x="20" y="2156">Triangle</text>
<path stroke="black" d="M214,2152 l4,-8 l 4,8 Z" /></svg>