<svg
  xmlns="http://www.w3.org/2000/svg"
  xmlns:xlink="http://www.w3.org/1999/xlink"
  width="358" height="686" font-family="Arial, Helvetica, sans-serif">
<path stroke="black" stroke-dasharray="5,5,5" d="M245,216 L246,186" />
<g transform="rotate(-88 246 186)"><path stroke="black" fill="#ffffff" d="M246,186 l-8,-4 l 0,8 Z" /></g>

<rect stroke="#d3d3d3" fill="#ffffff" x="20" y="20" width="131" height="666"/>
<line stroke="#d3d3d3" x1="20" y1="50" x2="151" y2="50"/><text font-family="Arial,Helvetica,sans-serif" font-size="12px" x="26" y="66">Method</text>
<text font-family="Arial,Helvetica,sans-serif" font-size="12px" x="26" y="82">URL</text>
<text font-family="Arial,Helvetica,sans-serif" font-size="12px" x="26" y="98">Proto</text>
<text font-family="Arial,Helvetica,sans-serif" font-size="12px" x="26" y="114">ProtoMajor</text>
<text font-family="Arial,Helvetica,sans-serif" font-size="12px" x="26" y="130">ProtoMinor</text>
<text font-family="Arial,Helvetica,sans-serif" font-size="12px" x="26" y="146">Header</text>
<text font-family="Arial,Helvetica,sans-serif" font-size="12px" x="26" y="162">Body</text>
<text font-family="Arial,Helvetica,sans-serif" font-size="12px" x="26" y="178">GetBody</text>
<text font-family="Arial,Helvetica,sans-serif" font-size="12px" x="26" y="194">ContentLength</text>
<text font-family="Arial,Helvetica,sans-serif" font-size="12px" x="26" y="210">TransferEncoding</text>
<text font-family="Arial,Helvetica,sans-serif" font-size="12px" x="26" y="226">Close</text>
<text font-family="Arial,Helvetica,sans-serif" font-size="12px" x="26" y="242">Host</text>
<text font-family="Arial,Helvetica,sans-serif" font-size="12px" x="26" y="258">Form</text>
<text font-family="Arial,Helvetica,sans-serif" font-size="12px" x="26" y="274">PostForm</text>
<text font-family="Arial,Helvetica,sans-serif" font-size="12px" x="26" y="290">MultipartForm</text>
<text font-family="Arial,Helvetica,sans-serif" font-size="12px" x="26" y="306">Trailer</text>
<text font-family="Arial,Helvetica,sans-serif" font-size="12px" x="26" y="322">RemoteAddr</text>
<text font-family="Arial,Helvetica,sans-serif" font-size="12px" x="26" y="338">RequestURI</text>
<text font-family="Arial,Helvetica,sans-serif" font-size="12px" x="26" y="354">TLS</text>
<text font-family="Arial,Helvetica,sans-serif" font-size="12px" x="26" y="370">Cancel</text>
<text font-family="Arial,Helvetica,sans-serif" font-size="12px" x="26" y="386">Response</text>
<line stroke="#d3d3d3" x1="20" y1="392" x2="151" y2="392"/><text font-family="Arial,Helvetica,sans-serif" font-size="12px" x="26" y="408">AddCookie()</text>
<text font-family="Arial,Helvetica,sans-serif" font-size="12px" x="26" y="424">BasicAuth()</text>
<text font-family="Arial,Helvetica,sans-serif" font-size="12px" x="26" y="440">Context()</text>
<text font-family="Arial,Helvetica,sans-serif" font-size="12px" x="26" y="456">Cookie()</text>
<text font-family="Arial,Helvetica,sans-serif" font-size="12px" x="26" y="472">Cookies()</text>
<text font-family="Arial,Helvetica,sans-serif" font-size="12px" x="26" y="488">FormFile()</text>
<text font-family="Arial,Helvetica,sans-serif" font-size="12px" x="26" y="504">FormValue()</text>
<text font-family="Arial,Helvetica,sans-serif" font-size="12px" x="26" y="520">MultipartReader()</text>
<text font-family="Arial,Helvetica,sans-serif" font-size="12px" x="26" y="536">ParseForm()</text>
<text font-family="Arial,Helvetica,sans-serif" font-size="12px" x="26" y="552">ParseMultipartForm()</text>
<text font-family="Arial,Helvetica,sans-serif" font-size="12px" x="26" y="568">PostFormValue()</text>
<text font-family="Arial,Helvetica,sans-serif" font-size="12px" x="26" y="584">ProtoAtLeast()</text>
<text font-family="Arial,Helvetica,sans-serif" font-size="12px" x="26" y="600">Referer()</text>
<text font-family="Arial,Helvetica,sans-serif" font-size="12px" x="26" y="616">SetBasicAuth()</text>
<text font-family="Arial,Helvetica,sans-serif" font-size="12px" x="26" y="632">UserAgent()</text>
<text font-family="Arial,Helvetica,sans-serif" font-size="12px" x="26" y="648">WithContext()</text>
<text font-family="Arial,Helvetica,sans-serif" font-size="12px" x="26" y="664">Write()</text>
<text font-family="Arial,Helvetica,sans-serif" font-size="12px" x="26" y="680">WriteProxy()</text>
<text font-family="Arial,Helvetica,sans-serif" font-size="12px" x="26" y="40">http.Request struct</text>
<rect stroke="#d3d3d3" fill="#ffffff" x="181" y="20" width="177" height="84"/>
<line stroke="#d3d3d3" x1="181" y1="50" x2="358" y2="50"/><text font-family="Arial,Helvetica,sans-serif" font-size="12px" x="187" y="66">Header()</text>
<text font-family="Arial,Helvetica,sans-serif" font-size="12px" x="187" y="82">Write()</text>
<text font-family="Arial,Helvetica,sans-serif" font-size="12px" x="187" y="98">WriteHeader()</text>
<text font-family="Arial,Helvetica,sans-serif" font-size="12px" x="187" y="40">http.ResponseWriter interface</text>
<rect stroke="#d3d3d3" fill="#ffffff" x="181" y="134" width="133" height="52"/>
<line stroke="#d3d3d3" x1="181" y1="164" x2="314" y2="164"/><text font-family="Arial,Helvetica,sans-serif" font-size="12px" x="187" y="180">ServeHTTP()</text>
<text font-family="Arial,Helvetica,sans-serif" font-size="12px" x="187" y="154">http.Handler interface</text>
<rect stroke="#d3d3d3" fill="#ffffff" x="181" y="216" width="126" height="84"/>
<line stroke="#d3d3d3" x1="181" y1="246" x2="307" y2="246"/><text font-family="Arial,Helvetica,sans-serif" font-size="12px" x="187" y="262">Handle()</text>
<text font-family="Arial,Helvetica,sans-serif" font-size="12px" x="187" y="278">HandleFunc()</text>
<text font-family="Arial,Helvetica,sans-serif" font-size="12px" x="187" y="294">Handler()</text>
<text font-family="Arial,Helvetica,sans-serif" font-size="12px" x="187" y="236">http.ServeMux struct</text>
<rect stroke="#d3d3d3" fill="#ffffff" x="181" y="330" width="150" height="346"/>
<line stroke="#d3d3d3" x1="181" y1="360" x2="331" y2="360"/><text font-family="Arial,Helvetica,sans-serif" font-size="12px" x="187" y="376">Addr</text>
<text font-family="Arial,Helvetica,sans-serif" font-size="12px" x="187" y="392">Handler</text>
<text font-family="Arial,Helvetica,sans-serif" font-size="12px" x="187" y="408">TLSConfig</text>
<text font-family="Arial,Helvetica,sans-serif" font-size="12px" x="187" y="424">ReadTimeout</text>
<text font-family="Arial,Helvetica,sans-serif" font-size="12px" x="187" y="440">ReadHeaderTimeout</text>
<text font-family="Arial,Helvetica,sans-serif" font-size="12px" x="187" y="456">WriteTimeout</text>
<text font-family="Arial,Helvetica,sans-serif" font-size="12px" x="187" y="472">IdleTimeout</text>
<text font-family="Arial,Helvetica,sans-serif" font-size="12px" x="187" y="488">MaxHeaderBytes</text>
<text font-family="Arial,Helvetica,sans-serif" font-size="12px" x="187" y="504">TLSNextProto</text>
<text font-family="Arial,Helvetica,sans-serif" font-size="12px" x="187" y="520">ConnState</text>
<text font-family="Arial,Helvetica,sans-serif" font-size="12px" x="187" y="536">ErrorLog</text>
<line stroke="#d3d3d3" x1="181" y1="542" x2="331" y2="542"/><text font-family="Arial,Helvetica,sans-serif" font-size="12px" x="187" y="558">Close()</text>
<text font-family="Arial,Helvetica,sans-serif" font-size="12px" x="187" y="574">ListenAndServe()</text>
<text font-family="Arial,Helvetica,sans-serif" font-size="12px" x="187" y="590">ListenAndServeTLS()</text>
<text font-family="Arial,Helvetica,sans-serif" font-size="12px" x="187" y="606">RegisterOnShutdown()</text>
<text font-family="Arial,Helvetica,sans-serif" font-size="12px" x="187" y="622">Serve()</text>
<text font-family="Arial,Helvetica,sans-serif" font-size="12px" x="187" y="638">ServeTLS()</text>
<text font-family="Arial,Helvetica,sans-serif" font-size="12px" x="187" y="654">SetKeepAlivesEnabled()</text>
<text font-family="Arial,Helvetica,sans-serif" font-size="12px" x="187" y="670">Shutdown()</text>
<text font-family="Arial,Helvetica,sans-serif" font-size="12px" x="187" y="350">http.Server struct</text></svg>