<svg
  xmlns="http://www.w3.org/2000/svg"
  xmlns:xlink="http://www.w3.org/1999/xlink"
  font-family="Arial,Helvetica,sans-serif" width="505" height="316">
<path stroke="black" stroke-dasharray="5,5,5" d="M255,216 L255,186" />
<g transform="rotate(-90 255 186)"><path stroke="black" fill="#ffffff" d="M255,186 l-8,-4 l 0,8 Z" /></g>

<rect stroke="#d3d3d3" fill="#ffffff" x="20" y="20" width="117" height="26"/>
<text font-family="Arial,Helvetica,sans-serif" font-size="12px" x="26" y="40">http.Request struct</text>
<rect stroke="#d3d3d3" fill="#ffffff" x="167" y="20" width="177" height="84"/>
<line stroke="#d3d3d3" x1="167" y1="50" x2="344" y2="50"/><text font-family="Arial,Helvetica,sans-serif" font-size="12px" x="173" y="66">Header()</text>
<text font-family="Arial,Helvetica,sans-serif" font-size="12px" x="173" y="82">Write()</text>
<text font-family="Arial,Helvetica,sans-serif" font-size="12px" x="173" y="98">WriteHeader()</text>
<text font-family="Arial,Helvetica,sans-serif" font-size="12px" x="173" y="40">http.ResponseWriter interface</text>
<rect stroke="#d3d3d3" fill="#ffffff" x="189" y="134" width="133" height="52"/>
<line stroke="#d3d3d3" x1="189" y1="164" x2="322" y2="164"/><text font-family="Arial,Helvetica,sans-serif" font-size="12px" x="195" y="180">ServeHTTP()</text>
<text font-family="Arial,Helvetica,sans-serif" font-size="12px" x="195" y="154">http.Handler interface</text>
<rect stroke="#d3d3d3" fill="#ffffff" x="192" y="216" width="126" height="26"/>
<text font-family="Arial,Helvetica,sans-serif" font-size="12px" x="198" y="236">http.ServeMux struct</text>
<rect stroke="#d3d3d3" fill="#ffffff" x="374" y="20" width="131" height="244"/>
<line stroke="#d3d3d3" x1="374" y1="50" x2="505" y2="50"/><text font-family="Arial,Helvetica,sans-serif" font-size="12px" x="380" y="66">Addr</text>
<text font-family="Arial,Helvetica,sans-serif" font-size="12px" x="380" y="82">Handler</text>
<text font-family="Arial,Helvetica,sans-serif" font-size="12px" x="380" y="98">TLSConfig</text>
<text font-family="Arial,Helvetica,sans-serif" font-size="12px" x="380" y="114">ReadTimeout</text>
<text font-family="Arial,Helvetica,sans-serif" font-size="12px" x="380" y="130">ReadHeaderTimeout</text>
<text font-family="Arial,Helvetica,sans-serif" font-size="12px" x="380" y="146">WriteTimeout</text>
<text font-family="Arial,Helvetica,sans-serif" font-size="12px" x="380" y="162">IdleTimeout</text>
<text font-family="Arial,Helvetica,sans-serif" font-size="12px" x="380" y="178">MaxHeaderBytes</text>
<text font-family="Arial,Helvetica,sans-serif" font-size="12px" x="380" y="194">TLSNextProto</text>
<text font-family="Arial,Helvetica,sans-serif" font-size="12px" x="380" y="210">ConnState</text>
<text font-family="Arial,Helvetica,sans-serif" font-size="12px" x="380" y="226">ErrorLog</text>
<text font-family="Arial,Helvetica,sans-serif" font-size="12px" x="380" y="242">BaseContext</text>
<text font-family="Arial,Helvetica,sans-serif" font-size="12px" x="380" y="258">ConnContext</text>
<text font-family="Arial,Helvetica,sans-serif" font-size="12px" x="380" y="40">http.Server struct</text>
<text font-family="Arial,Helvetica,sans-serif" font-size="12px" x="124" y="310">Figure 1. ServeMux routes requests to handlers</text></svg>