<svg
  xmlns="http://www.w3.org/2000/svg"
  xmlns:xlink="http://www.w3.org/1999/xlink"
  font-family="Arial,Helvetica,sans-serif" width="526" height="452">
<path stroke="black" stroke-dasharray="5,5,5" d="M255,216 L255,186" />
<g transform="rotate(-90 255 186)"><path stroke="black" fill="#ffffff" d="M255,186 l-8,-4 l 0,8 Z" /></g>

<rect stroke="#d3d3d3" fill="#ffffff" x="20" y="20" width="117" height="26"/>
<text font-family="Arial,Helvetica,sans-serif" font-size="12px" x="26" y="36">http.Request struct</text>
<rect stroke="#d3d3d3" fill="#ffffff" x="167" y="20" width="177" height="84"/>
<line stroke="#d3d3d3" x1="167" y1="46" x2="344" y2="46"/><text font-family="Arial,Helvetica,sans-serif" font-size="12px" x="173" y="62">Header()</text>
<text font-family="Arial,Helvetica,sans-serif" font-size="12px" x="173" y="78">Write()</text>
<text font-family="Arial,Helvetica,sans-serif" font-size="12px" x="173" y="94">WriteHeader()</text>
<text font-family="Arial,Helvetica,sans-serif" font-size="12px" x="173" y="36">http.ResponseWriter interface</text>
<rect stroke="#d3d3d3" fill="#ffffff" x="189" y="134" width="133" height="52"/>
<line stroke="#d3d3d3" x1="189" y1="160" x2="322" y2="160"/><text font-family="Arial,Helvetica,sans-serif" font-size="12px" x="195" y="176">ServeHTTP()</text>
<text font-family="Arial,Helvetica,sans-serif" font-size="12px" x="195" y="150">http.Handler interface</text>
<rect stroke="#d3d3d3" fill="#ffffff" x="192" y="216" width="126" height="84"/>
<line stroke="#d3d3d3" x1="192" y1="242" x2="318" y2="242"/><text font-family="Arial,Helvetica,sans-serif" font-size="12px" x="198" y="258">Handle()</text>
<text font-family="Arial,Helvetica,sans-serif" font-size="12px" x="198" y="274">HandleFunc()</text>
<text font-family="Arial,Helvetica,sans-serif" font-size="12px" x="198" y="290">Handler()</text>
<text font-family="Arial,Helvetica,sans-serif" font-size="12px" x="198" y="232">http.ServeMux struct</text>
<rect stroke="#d3d3d3" fill="#ffffff" x="374" y="20" width="150" height="378"/>
<line stroke="#d3d3d3" x1="374" y1="46" x2="524" y2="46"/><text font-family="Arial,Helvetica,sans-serif" font-size="12px" x="380" y="62">Addr</text>
<text font-family="Arial,Helvetica,sans-serif" font-size="12px" x="380" y="78">Handler</text>
<text font-family="Arial,Helvetica,sans-serif" font-size="12px" x="380" y="94">TLSConfig</text>
<text font-family="Arial,Helvetica,sans-serif" font-size="12px" x="380" y="110">ReadTimeout</text>
<text font-family="Arial,Helvetica,sans-serif" font-size="12px" x="380" y="126">ReadHeaderTimeout</text>
<text font-family="Arial,Helvetica,sans-serif" font-size="12px" x="380" y="142">WriteTimeout</text>
<text font-family="Arial,Helvetica,sans-serif" font-size="12px" x="380" y="158">IdleTimeout</text>
<text font-family="Arial,Helvetica,sans-serif" font-size="12px" x="380" y="174">MaxHeaderBytes</text>
<text font-family="Arial,Helvetica,sans-serif" font-size="12px" x="380" y="190">TLSNextProto</text>
<text font-family="Arial,Helvetica,sans-serif" font-size="12px" x="380" y="206">ConnState</text>
<text font-family="Arial,Helvetica,sans-serif" font-size="12px" x="380" y="222">ErrorLog</text>
<text font-family="Arial,Helvetica,sans-serif" font-size="12px" x="380" y="238">BaseContext</text>
<text font-family="Arial,Helvetica,sans-serif" font-size="12px" x="380" y="254">ConnContext</text>
<line stroke="#d3d3d3" x1="374" y1="260" x2="524" y2="260"/><text font-family="Arial,Helvetica,sans-serif" font-size="12px" x="380" y="276">Close()</text>
<text font-family="Arial,Helvetica,sans-serif" font-size="12px" x="380" y="292">ListenAndServe()</text>
<text font-family="Arial,Helvetica,sans-serif" font-size="12px" x="380" y="308">ListenAndServeTLS()</text>
<text font-family="Arial,Helvetica,sans-serif" font-size="12px" x="380" y="324">RegisterOnShutdown()</text>
<text font-family="Arial,Helvetica,sans-serif" font-size="12px" x="380" y="340">Serve()</text>
<text font-family="Arial,Helvetica,sans-serif" font-size="12px" x="380" y="356">ServeTLS()</text>
<text font-family="Arial,Helvetica,sans-serif" font-size="12px" x="380" y="372">SetKeepAlivesEnabled()</text>
<text font-family="Arial,Helvetica,sans-serif" font-size="12px" x="380" y="388">Shutdown()</text>
<text font-family="Arial,Helvetica,sans-serif" font-size="12px" x="380" y="36">http.Server struct</text>
<text font-family="Arial,Helvetica,sans-serif" font-size="12px" x="134" y="445">Figure 1. ServeMux routes requests to handlers</text></svg>