<svg
  xmlns="http://www.w3.org/2000/svg"
  xmlns:xlink="http://www.w3.org/1999/xlink"
  width="200" height="348" font-family="Arial, Helvetica, sans-serif">
<circle stroke="black" cx="90" cy="30" r="10" />\n
<rect stroke="#d3d3d3" fill="#ffffff" rx="10" ry="10" x="47" y="80" width="86" height="26"/>
<text font-family="Arial,Helvetica,sans-serif" font-size="12px" x="53" y="98">Push commit</text>
<rect stroke="#d3d3d3" fill="#ffffff" rx="10" ry="10" x="48" y="146" width="85" height="26"/>
<text font-family="Arial,Helvetica,sans-serif" font-size="12px" x="54" y="164">Run git hook</text>
<path stroke="#d3d3d3" fill="#ffffff" d="M80,212 l 10,-10 10,10 -10,10 -10,-10" />
<rect stroke="#d3d3d3" fill="#ffffff" rx="10" ry="10" x="63" y="262" width="55" height="26"/>
<text font-family="Arial,Helvetica,sans-serif" font-size="12px" x="69" y="280">Deploy</text>
<circle stroke="black" stroke-width="2" fill="#ffffff" cx="90" cy="338" r="10" />\n<circle stroke="black" cx="90" cy="338" r="6" />\n
<circle stroke="black" stroke-width="2" fill="#ffffff" cx="190" cy="212" r="10" />\n<circle stroke="black" cx="190" cy="212" r="6" />\n
<path stroke="black" d="M90,40 L90,80" />
<g transform="rotate(90 90 80)"><path stroke="black" fill="#ffffff" d="M90,80 l-8,-4 l 0,8 Z" /></g>

<path stroke="black" d="M90,106 L90,146" />
<g transform="rotate(90 90 146)"><path stroke="black" fill="#ffffff" d="M90,146 l-8,-4 l 0,8 Z" /></g>

<path stroke="black" d="M90,172 L90,202" />
<g transform="rotate(90 90 202)"><path stroke="black" fill="#ffffff" d="M90,202 l-8,-4 l 0,8 Z" /></g>

<path stroke="black" d="M90,222 L90,262" />
<g transform="rotate(90 90 262)"><path stroke="black" fill="#ffffff" d="M90,262 l-8,-4 l 0,8 Z" /></g>

<path stroke="black" d="M90,288 L90,328" />
<g transform="rotate(90 90 328)"><path stroke="black" fill="#ffffff" d="M90,328 l-8,-4 l 0,8 Z" /></g>

<path stroke="black" d="M100,212 L180,212" />
<g transform="rotate(0 180 212)"><path stroke="black" fill="#ffffff" d="M180,212 l-8,-4 l 0,8 Z" /></g>

<text font-family="Arial,Helvetica,sans-serif" font-size="12px" x="109" y="208">Tests failed</text></svg>