<svg
  xmlns="http://www.w3.org/2000/svg"
  xmlns:xlink="http://www.w3.org/1999/xlink"
  width="712" height="1074" font-family="Arial, Helvetica, sans-serif">
<path class="arrow" style="stroke:black" d="M84,201 L239,121" />
<g transform="rotate(-27 239 121)"><path class="arrow-head" style="stroke:black;fill:#ffffff" d="M239,121 l-8,-4 l 0,8 Z" /></g>

<path class="arrow" style="stroke:black" d="M84,201 L211,254" />
<g transform="rotate(22 211 254)"><path class="arrow-head" style="stroke:black;fill:#ffffff" d="M211,254 l-8,-4 l 0,8 Z" /></g>

<path class="arrow" style="stroke:black" d="M531,201 L380,122" />
<g transform="rotate(207 380 122)"><path class="arrow-head" style="stroke:black;fill:#ffffff" d="M380,122 l-8,-4 l 0,8 Z" /></g>

<path class="arrow" style="stroke:black" d="M531,201 L408,253" />
<g transform="rotate(158 408 253)"><path class="arrow-head" style="stroke:black;fill:#ffffff" d="M408,253 l-8,-4 l 0,8 Z" /></g>

<path class="arrow" style="stroke:black" d="M528,493 L344,152" />
<g transform="rotate(241 344 152)"><path class="arrow-head" style="stroke:black;fill:#ffffff" d="M344,152 l-8,-4 l 0,8 Z" /></g>

<path class="arrow" style="stroke:black" d="M528,493 L391,370" />
<g transform="rotate(221 391 370)"><path class="arrow-head" style="stroke:black;fill:#ffffff" d="M391,370 l-8,-4 l 0,8 Z" /></g>

<path class="arrow" style="stroke:black" d="M84,201 L79,422" />
<g transform="rotate(92 79 422)"><path class="arrow-head" style="stroke:black;fill:#ffffff" d="M79,422 l-8,-4 l 0,8 Z" /></g>

<path class="arrow" style="stroke:black" d="M115,825 L240,809" />
<g transform="rotate(-7 240 809)"><path class="arrow-head" style="stroke:black;fill:#ffffff" d="M240,809 l-8,-4 l 0,8 Z" /></g>

<path class="arrow" style="stroke:black" d="M310,801 L250,554" />
<g transform="rotate(256 250 554)"><path class="arrow-head" style="stroke:black;fill:#ffffff" d="M250,554 l-8,-4 l 0,8 Z" /></g>

<path class="arrow" style="stroke:black" d="M310,801 L115,528" />
<g transform="rotate(234 115 528)"><path class="arrow-head" style="stroke:black;fill:#ffffff" d="M115,528 l-8,-4 l 0,8 Z" /></g>

<rect class="record" style="fill:#ffffcc;stroke:black" x="20" y="20" width="129" height="362"/>
<line class="line" style="stroke:#d3d3d3" x1="20" y1="50" x2="149" y2="50"/><text class="field" style="font-family:Arial,Helvetica,sans-serif; font-size:12px" x="26" y="66">X</text>
<text class="field" style="font-family:Arial,Helvetica,sans-serif; font-size:12px" x="26" y="82">Y</text>
<text class="field" style="font-family:Arial,Helvetica,sans-serif; font-size:12px" x="26" y="98">Title</text>
<text class="field" style="font-family:Arial,Helvetica,sans-serif; font-size:12px" x="26" y="114">Fields</text>
<text class="field" style="font-family:Arial,Helvetica,sans-serif; font-size:12px" x="26" y="130">Methods</text>
<text class="field" style="font-family:Arial,Helvetica,sans-serif; font-size:12px" x="26" y="146">Font</text>
<text class="field" style="font-family:Arial,Helvetica,sans-serif; font-size:12px" x="26" y="162">Pad</text>
<line class="line" style="stroke:#d3d3d3" x1="20" y1="168" x2="149" y2="168"/><text class="method" style="font-family:Arial,Helvetica,sans-serif; font-size:12px" x="26" y="184">Direction()</text>
<text class="method" style="font-family:Arial,Helvetica,sans-serif; font-size:12px" x="26" y="200">Edge()</text>
<text class="method" style="font-family:Arial,Helvetica,sans-serif; font-size:12px" x="26" y="216">Height()</text>
<text class="method" style="font-family:Arial,Helvetica,sans-serif; font-size:12px" x="26" y="232">HideFields()</text>
<text class="method" style="font-family:Arial,Helvetica,sans-serif; font-size:12px" x="26" y="248">HideMethods()</text>
<text class="method" style="font-family:Arial,Helvetica,sans-serif; font-size:12px" x="26" y="264">Position()</text>
<text class="method" style="font-family:Arial,Helvetica,sans-serif; font-size:12px" x="26" y="280">SetFont()</text>
<text class="method" style="font-family:Arial,Helvetica,sans-serif; font-size:12px" x="26" y="296">SetTextPad()</text>
<text class="method" style="font-family:Arial,Helvetica,sans-serif; font-size:12px" x="26" y="312">SetX()</text>
<text class="method" style="font-family:Arial,Helvetica,sans-serif; font-size:12px" x="26" y="328">SetY()</text>
<text class="method" style="font-family:Arial,Helvetica,sans-serif; font-size:12px" x="26" y="344">String()</text>
<text class="method" style="font-family:Arial,Helvetica,sans-serif; font-size:12px" x="26" y="360">Width()</text>
<text class="method" style="font-family:Arial,Helvetica,sans-serif; font-size:12px" x="26" y="376">WriteSvg()</text>
<text class="record-title" style="font-family:Arial,Helvetica,sans-serif; font-size:12px" x="26" y="40">shape.Record struct</text>
<rect class="record" style="fill:#ffffcc;stroke:black" x="239" y="20" width="141" height="132"/>
<line class="line" style="stroke:#d3d3d3" x1="239" y1="50" x2="380" y2="50"/><text class="method" style="font-family:Arial,Helvetica,sans-serif; font-size:12px" x="245" y="66">Direction()</text>
<text class="method" style="font-family:Arial,Helvetica,sans-serif; font-size:12px" x="245" y="82">Height()</text>
<text class="method" style="font-family:Arial,Helvetica,sans-serif; font-size:12px" x="245" y="98">Position()</text>
<text class="method" style="font-family:Arial,Helvetica,sans-serif; font-size:12px" x="245" y="114">SetX()</text>
<text class="method" style="font-family:Arial,Helvetica,sans-serif; font-size:12px" x="245" y="130">SetY()</text>
<text class="method" style="font-family:Arial,Helvetica,sans-serif; font-size:12px" x="245" y="146">Width()</text>
<text class="record-title" style="font-family:Arial,Helvetica,sans-serif; font-size:12px" x="245" y="40">shape.Shape interface</text>
<rect class="record" style="fill:#ffffcc;stroke:black" x="470" y="60" width="123" height="282"/>
<line class="line" style="stroke:#d3d3d3" x1="470" y1="90" x2="593" y2="90"/><text class="field" style="font-family:Arial,Helvetica,sans-serif; font-size:12px" x="476" y="106">Start</text>
<text class="field" style="font-family:Arial,Helvetica,sans-serif; font-size:12px" x="476" y="122">End</text>
<text class="field" style="font-family:Arial,Helvetica,sans-serif; font-size:12px" x="476" y="138">Tail</text>
<text class="field" style="font-family:Arial,Helvetica,sans-serif; font-size:12px" x="476" y="154">Class</text>
<line class="line" style="stroke:#d3d3d3" x1="470" y1="160" x2="593" y2="160"/><text class="method" style="font-family:Arial,Helvetica,sans-serif; font-size:12px" x="476" y="176">DirQ1()</text>
<text class="method" style="font-family:Arial,Helvetica,sans-serif; font-size:12px" x="476" y="192">DirQ2()</text>
<text class="method" style="font-family:Arial,Helvetica,sans-serif; font-size:12px" x="476" y="208">DirQ3()</text>
<text class="method" style="font-family:Arial,Helvetica,sans-serif; font-size:12px" x="476" y="224">DirQ4()</text>
<text class="method" style="font-family:Arial,Helvetica,sans-serif; font-size:12px" x="476" y="240">Direction()</text>
<text class="method" style="font-family:Arial,Helvetica,sans-serif; font-size:12px" x="476" y="256">Height()</text>
<text class="method" style="font-family:Arial,Helvetica,sans-serif; font-size:12px" x="476" y="272">Position()</text>
<text class="method" style="font-family:Arial,Helvetica,sans-serif; font-size:12px" x="476" y="288">SetX()</text>
<text class="method" style="font-family:Arial,Helvetica,sans-serif; font-size:12px" x="476" y="304">SetY()</text>
<text class="method" style="font-family:Arial,Helvetica,sans-serif; font-size:12px" x="476" y="320">Width()</text>
<text class="method" style="font-family:Arial,Helvetica,sans-serif; font-size:12px" x="476" y="336">WriteSvg()</text>
<text class="record-title" style="font-family:Arial,Helvetica,sans-serif; font-size:12px" x="476" y="80">shape.Arrow struct</text>
<rect class="record" style="fill:#ffffcc;stroke:black" x="211" y="222" width="197" height="148"/>
<line class="line" style="stroke:#d3d3d3" x1="211" y1="252" x2="408" y2="252"/><text class="method" style="font-family:Arial,Helvetica,sans-serif; font-size:12px" x="217" y="268">Direction()</text>
<text class="method" style="font-family:Arial,Helvetica,sans-serif; font-size:12px" x="217" y="284">Height()</text>
<text class="method" style="font-family:Arial,Helvetica,sans-serif; font-size:12px" x="217" y="300">Position()</text>
<text class="method" style="font-family:Arial,Helvetica,sans-serif; font-size:12px" x="217" y="316">SetX()</text>
<text class="method" style="font-family:Arial,Helvetica,sans-serif; font-size:12px" x="217" y="332">SetY()</text>
<text class="method" style="font-family:Arial,Helvetica,sans-serif; font-size:12px" x="217" y="348">Width()</text>
<text class="method" style="font-family:Arial,Helvetica,sans-serif; font-size:12px" x="217" y="364">WriteSvg()</text>
<text class="record-title" style="font-family:Arial,Helvetica,sans-serif; font-size:12px" x="217" y="242">shape.SvgWriterShape interface</text>
<rect class="record" style="fill:#ffffcc;stroke:black" x="470" y="392" width="117" height="202"/>
<line class="line" style="stroke:#d3d3d3" x1="470" y1="422" x2="587" y2="422"/><text class="field" style="font-family:Arial,Helvetica,sans-serif; font-size:12px" x="476" y="438">Start</text>
<text class="field" style="font-family:Arial,Helvetica,sans-serif; font-size:12px" x="476" y="454">End</text>
<text class="field" style="font-family:Arial,Helvetica,sans-serif; font-size:12px" x="476" y="470">Class</text>
<line class="line" style="stroke:#d3d3d3" x1="470" y1="476" x2="587" y2="476"/><text class="method" style="font-family:Arial,Helvetica,sans-serif; font-size:12px" x="476" y="492">Direction()</text>
<text class="method" style="font-family:Arial,Helvetica,sans-serif; font-size:12px" x="476" y="508">Height()</text>
<text class="method" style="font-family:Arial,Helvetica,sans-serif; font-size:12px" x="476" y="524">Position()</text>
<text class="method" style="font-family:Arial,Helvetica,sans-serif; font-size:12px" x="476" y="540">SetX()</text>
<text class="method" style="font-family:Arial,Helvetica,sans-serif; font-size:12px" x="476" y="556">SetY()</text>
<text class="method" style="font-family:Arial,Helvetica,sans-serif; font-size:12px" x="476" y="572">Width()</text>
<text class="method" style="font-family:Arial,Helvetica,sans-serif; font-size:12px" x="476" y="588">WriteSvg()</text>
<text class="record-title" style="font-family:Arial,Helvetica,sans-serif; font-size:12px" x="476" y="412">shape.Line struct</text>
<rect class="record" style="fill:#ffffcc;stroke:black" x="20" y="422" width="117" height="106"/>
<line class="line" style="stroke:#d3d3d3" x1="20" y1="452" x2="137" y2="452"/><text class="field" style="font-family:Arial,Helvetica,sans-serif; font-size:12px" x="26" y="468">Height</text>
<text class="field" style="font-family:Arial,Helvetica,sans-serif; font-size:12px" x="26" y="484">Width</text>
<text class="field" style="font-family:Arial,Helvetica,sans-serif; font-size:12px" x="26" y="500">LineHeight</text>
<line class="line" style="stroke:#d3d3d3" x1="20" y1="506" x2="137" y2="506"/><text class="method" style="font-family:Arial,Helvetica,sans-serif; font-size:12px" x="26" y="522">TextWidth()</text>
<text class="record-title" style="font-family:Arial,Helvetica,sans-serif; font-size:12px" x="26" y="442">shape.Font struct</text>
<rect class="record" style="fill:#ffffcc;stroke:black" x="167" y="422" width="135" height="132"/>
<line class="line" style="stroke:#d3d3d3" x1="167" y1="452" x2="302" y2="452"/><text class="method" style="font-family:Arial,Helvetica,sans-serif; font-size:12px" x="173" y="468">HAlignBottom()</text>
<text class="method" style="font-family:Arial,Helvetica,sans-serif; font-size:12px" x="173" y="484">HAlignCenter()</text>
<text class="method" style="font-family:Arial,Helvetica,sans-serif; font-size:12px" x="173" y="500">HAlignTop()</text>
<text class="method" style="font-family:Arial,Helvetica,sans-serif; font-size:12px" x="173" y="516">VAlignCenter()</text>
<text class="method" style="font-family:Arial,Helvetica,sans-serif; font-size:12px" x="173" y="532">VAlignLeft()</text>
<text class="method" style="font-family:Arial,Helvetica,sans-serif; font-size:12px" x="173" y="548">VAlignRight()</text>
<text class="record-title" style="font-family:Arial,Helvetica,sans-serif; font-size:12px" x="173" y="442">shape.Aligner struct</text>
<rect class="record" style="fill:#ffffcc;stroke:black" x="20" y="628" width="190" height="394"/>
<line class="line" style="stroke:#d3d3d3" x1="20" y1="658" x2="210" y2="658"/><text class="field" style="font-family:Arial,Helvetica,sans-serif; font-size:12px" x="26" y="674">Diagram</text>
<text class="field" style="font-family:Arial,Helvetica,sans-serif; font-size:12px" x="26" y="690">ColWidth</text>
<text class="field" style="font-family:Arial,Helvetica,sans-serif; font-size:12px" x="26" y="706">VMargin</text>
<line class="line" style="stroke:#d3d3d3" x1="20" y1="712" x2="210" y2="712"/><text class="method" style="font-family:Arial,Helvetica,sans-serif; font-size:12px" x="26" y="728">AdaptSize()</text>
<text class="method" style="font-family:Arial,Helvetica,sans-serif; font-size:12px" x="26" y="744">AddColumns()</text>
<text class="method" style="font-family:Arial,Helvetica,sans-serif; font-size:12px" x="26" y="760">Append()</text>
<text class="method" style="font-family:Arial,Helvetica,sans-serif; font-size:12px" x="26" y="776">ClearLinks()</text>
<text class="method" style="font-family:Arial,Helvetica,sans-serif; font-size:12px" x="26" y="792">HAlignBottom()</text>
<text class="method" style="font-family:Arial,Helvetica,sans-serif; font-size:12px" x="26" y="808">HAlignCenter()</text>
<text class="method" style="font-family:Arial,Helvetica,sans-serif; font-size:12px" x="26" y="824">HAlignTop()</text>
<text class="method" style="font-family:Arial,Helvetica,sans-serif; font-size:12px" x="26" y="840">Height()</text>
<text class="method" style="font-family:Arial,Helvetica,sans-serif; font-size:12px" x="26" y="856">Link()</text>
<text class="method" style="font-family:Arial,Helvetica,sans-serif; font-size:12px" x="26" y="872">Place()</text>
<text class="method" style="font-family:Arial,Helvetica,sans-serif; font-size:12px" x="26" y="888">Prepend()</text>
<text class="method" style="font-family:Arial,Helvetica,sans-serif; font-size:12px" x="26" y="904">SaveAs()</text>
<text class="method" style="font-family:Arial,Helvetica,sans-serif; font-size:12px" x="26" y="920">SetHeight()</text>
<text class="method" style="font-family:Arial,Helvetica,sans-serif; font-size:12px" x="26" y="936">SetWidth()</text>
<text class="method" style="font-family:Arial,Helvetica,sans-serif; font-size:12px" x="26" y="952">VAlignCenter()</text>
<text class="method" style="font-family:Arial,Helvetica,sans-serif; font-size:12px" x="26" y="968">VAlignLeft()</text>
<text class="method" style="font-family:Arial,Helvetica,sans-serif; font-size:12px" x="26" y="984">VAlignRight()</text>
<text class="method" style="font-family:Arial,Helvetica,sans-serif; font-size:12px" x="26" y="1000">Width()</text>
<text class="method" style="font-family:Arial,Helvetica,sans-serif; font-size:12px" x="26" y="1016">WriteSvg()</text>
<text class="record-title" style="font-family:Arial,Helvetica,sans-serif; font-size:12px" x="26" y="648">design.SequenceDiagram struct</text>
<rect class="record" style="fill:#ffffcc;stroke:black" x="240" y="628" width="141" height="346"/>
<line class="line" style="stroke:#d3d3d3" x1="240" y1="658" x2="381" y2="658"/><text class="field" style="font-family:Arial,Helvetica,sans-serif; font-size:12px" x="246" y="674">Svg</text>
<text class="field" style="font-family:Arial,Helvetica,sans-serif; font-size:12px" x="246" y="690">Aligner</text>
<text class="field" style="font-family:Arial,Helvetica,sans-serif; font-size:12px" x="246" y="706">Font</text>
<text class="field" style="font-family:Arial,Helvetica,sans-serif; font-size:12px" x="246" y="722">TextPad</text>
<text class="field" style="font-family:Arial,Helvetica,sans-serif; font-size:12px" x="246" y="738">Pad</text>
<line class="line" style="stroke:#d3d3d3" x1="240" y1="744" x2="381" y2="744"/><text class="method" style="font-family:Arial,Helvetica,sans-serif; font-size:12px" x="246" y="760">AdaptSize()</text>
<text class="method" style="font-family:Arial,Helvetica,sans-serif; font-size:12px" x="246" y="776">Append()</text>
<text class="method" style="font-family:Arial,Helvetica,sans-serif; font-size:12px" x="246" y="792">HAlignBottom()</text>
<text class="method" style="font-family:Arial,Helvetica,sans-serif; font-size:12px" x="246" y="808">HAlignCenter()</text>
<text class="method" style="font-family:Arial,Helvetica,sans-serif; font-size:12px" x="246" y="824">HAlignTop()</text>
<text class="method" style="font-family:Arial,Helvetica,sans-serif; font-size:12px" x="246" y="840">Place()</text>
<text class="method" style="font-family:Arial,Helvetica,sans-serif; font-size:12px" x="246" y="856">Prepend()</text>
<text class="method" style="font-family:Arial,Helvetica,sans-serif; font-size:12px" x="246" y="872">SaveAs()</text>
<text class="method" style="font-family:Arial,Helvetica,sans-serif; font-size:12px" x="246" y="888">SetHeight()</text>
<text class="method" style="font-family:Arial,Helvetica,sans-serif; font-size:12px" x="246" y="904">SetWidth()</text>
<text class="method" style="font-family:Arial,Helvetica,sans-serif; font-size:12px" x="246" y="920">VAlignCenter()</text>
<text class="method" style="font-family:Arial,Helvetica,sans-serif; font-size:12px" x="246" y="936">VAlignLeft()</text>
<text class="method" style="font-family:Arial,Helvetica,sans-serif; font-size:12px" x="246" y="952">VAlignRight()</text>
<text class="method" style="font-family:Arial,Helvetica,sans-serif; font-size:12px" x="246" y="968">WriteSvg()</text>
<text class="record-title" style="font-family:Arial,Helvetica,sans-serif; font-size:12px" x="246" y="648">design.Diagram struct</text></svg>