<svg
  xmlns="http://www.w3.org/2000/svg"
  xmlns:xlink="http://www.w3.org/1999/xlink"
  width="517" height="319" font-family="Arial, Helvetica, sans-serif">
<rect class="record" style="fill:#ffffcc;stroke:black" x="10" y="30" width="167" height="220"/>
<line class="line" style="stroke:#d3d3d3" x1="10" y1="56" x2="177" y2="56"/><text x="20" y="71">Svg</text>
<text x="20" y="86">Font</text>
<text x="20" y="101">TextPad</text>
<text x="20" y="116">Pad</text>
<line class="line" style="stroke:#d3d3d3" x1="10" y1="123" x2="177" y2="123"/><text x="20" y="138">AdaptSize()</text>
<text x="20" y="153">Append()</text>
<text x="20" y="168">HAlignCenter()</text>
<text x="20" y="183">Place()</text>
<text x="20" y="198">SaveAs()</text>
<text x="20" y="213">SetHeight()</text>
<text x="20" y="228">SetWidth()</text>
<text x="20" y="243">WriteSvg()</text>
<text x="20" y="47">design.Diagram struct</text>
<rect class="record" style="fill:#ffffcc;stroke:black" x="187" y="0" width="153" height="280"/>
<line class="line" style="stroke:#d3d3d3" x1="187" y1="26" x2="340" y2="26"/><text x="197" y="41">X</text>
<text x="197" y="56">Y</text>
<text x="197" y="71">Title</text>
<text x="197" y="86">Fields</text>
<text x="197" y="101">Methods</text>
<text x="197" y="116">Font</text>
<text x="197" y="131">Pad</text>
<line class="line" style="stroke:#d3d3d3" x1="187" y1="138" x2="340" y2="138"/><text x="197" y="153">Direction()</text>
<text x="197" y="168">Height()</text>
<text x="197" y="183">Position()</text>
<text x="197" y="198">SetFont()</text>
<text x="197" y="213">SetTextPad()</text>
<text x="197" y="228">SetX()</text>
<text x="197" y="243">SetY()</text>
<text x="197" y="258">Width()</text>
<text x="197" y="273">WriteSvg()</text>
<text x="197" y="17">shape.Record struct</text>
<rect class="record" style="fill:#ffffcc;stroke:black" x="350" y="93" width="167" height="93"/>
<line class="line" style="stroke:#d3d3d3" x1="350" y1="119" x2="517" y2="119"/><text x="360" y="134">At()</text>
<text x="360" y="149">Below()</text>
<text x="360" y="164">RightOf()</text>
<text x="360" y="179">Space()</text>
<text x="360" y="110">shape.Adjuster struct</text>
<rect class="record" style="fill:#ffffcc;stroke:black" x="350" y="196" width="167" height="123"/>
<line class="line" style="stroke:#d3d3d3" x1="350" y1="222" x2="517" y2="222"/><text x="360" y="237">Direction()</text>
<text x="360" y="252">Height()</text>
<text x="360" y="267">Position()</text>
<text x="360" y="282">SetX()</text>
<text x="360" y="297">SetY()</text>
<text x="360" y="312">Width()</text>
<text x="360" y="213">shape.Shape interface</text></svg>