<svg
  xmlns="http://www.w3.org/2000/svg"
  xmlns:xlink="http://www.w3.org/1999/xlink"
  width="865" height="850" font-family="Arial, Helvetica, sans-serif">
<path stroke="black" stroke-dasharray="5,5,5" d="M168,173 L220,145" />
<g transform="rotate(-28 220 145)"><path stroke="black" fill="#ffffff" d="M220,145 l-8,-4 l 0,8 Z" /></g>

<path stroke="black" stroke-dasharray="5,5,5" d="M458,206 L382,155" />
<g transform="rotate(213 382 155)"><path stroke="black" fill="#ffffff" d="M382,155 l-8,-4 l 0,8 Z" /></g>

<path stroke="black" stroke-dasharray="5,5,5" d="M301,256 L301,184" />
<g transform="rotate(-90 301 184)"><path stroke="black" fill="#ffffff" d="M301,184 l-8,-4 l 0,8 Z" /></g>

<path stroke="black" d="M94,346 L94,436" />
<g transform="rotate(90 94 436)"><path stroke="black" fill="#ffffff" d="M94,436 l-8,-4 l 0,8 Z" /></g>

<path stroke="black" d="M230,489 L161,489" />
<g transform="rotate(180 161 489)"><path stroke="black" fill="#ffffff" d="M161,489 l-8,-4 l 0,8 Z" /></g>

<path stroke="black" d="M246,709 L461,601" />
<g transform="rotate(-26 461 601)"><path stroke="black" fill="#ffffff" d="M461,601 l-8,-4 l 0,8 Z" /></g>

<path stroke="black" d="M542,744 L542,694" />
<g transform="rotate(-90 542 694)"><path stroke="black" fill="#ffffff" d="M542,694 l-8,-4 l 0,8 Z" /></g>

<path stroke="black" d="M623,537 L703,515" />
<g transform="rotate(-15 703 515)"><path stroke="black" fill="#ffffff" d="M703,515 l-8,-4 l 0,8 Z" /></g>

<rect stroke="black" fill="#ffffcc" x="220" y="20" width="162" height="164"/>
<line stroke="#d3d3d3" x1="220" y1="50" x2="382" y2="50"/><text font-family="Arial" Helvetica="sans-serif" font-size="12px" x="226" y="66">Direction()</text>
<text font-family="Arial" Helvetica="sans-serif" font-size="12px" x="226" y="82">Height()</text>
<text font-family="Arial" Helvetica="sans-serif" font-size="12px" x="226" y="98">Position()</text>
<text font-family="Arial" Helvetica="sans-serif" font-size="12px" x="226" y="114">SetClass()</text>
<text font-family="Arial" Helvetica="sans-serif" font-size="12px" x="226" y="130">SetX()</text>
<text font-family="Arial" Helvetica="sans-serif" font-size="12px" x="226" y="146">SetY()</text>
<text font-family="Arial" Helvetica="sans-serif" font-size="12px" x="226" y="162">Width()</text>
<text font-family="Arial" Helvetica="sans-serif" font-size="12px" x="226" y="178">WriteSvg()</text>
<text font-family="Arial" Helvetica="sans-serif" font-size="12px" x="226" y="40">shape.Shape interface</text>
<rect stroke="black" fill="#ffffcc" x="20" y="80" width="148" height="266"/>
<line stroke="#d3d3d3" x1="20" y1="110" x2="168" y2="110"/><text font-family="Arial" Helvetica="sans-serif" font-size="12px" x="26" y="126">X</text>
<text font-family="Arial" Helvetica="sans-serif" font-size="12px" x="26" y="142">Y</text>
<text font-family="Arial" Helvetica="sans-serif" font-size="12px" x="26" y="158">Title</text>
<text font-family="Arial" Helvetica="sans-serif" font-size="12px" x="26" y="174">Fields</text>
<text font-family="Arial" Helvetica="sans-serif" font-size="12px" x="26" y="190">Methods</text>
<text font-family="Arial" Helvetica="sans-serif" font-size="12px" x="26" y="206">Font</text>
<text font-family="Arial" Helvetica="sans-serif" font-size="12px" x="26" y="222">Pad</text>
<line stroke="#d3d3d3" x1="20" y1="228" x2="168" y2="228"/><text font-family="Arial" Helvetica="sans-serif" font-size="12px" x="26" y="244">Edge()</text>
<text font-family="Arial" Helvetica="sans-serif" font-size="12px" x="26" y="260">HideFields()</text>
<text font-family="Arial" Helvetica="sans-serif" font-size="12px" x="26" y="276">HideMethod()</text>
<text font-family="Arial" Helvetica="sans-serif" font-size="12px" x="26" y="292">HideMethods()</text>
<text font-family="Arial" Helvetica="sans-serif" font-size="12px" x="26" y="308">SetFont()</text>
<text font-family="Arial" Helvetica="sans-serif" font-size="12px" x="26" y="324">SetTextPad()</text>
<text font-family="Arial" Helvetica="sans-serif" font-size="12px" x="26" y="340">String()</text>
<text font-family="Arial" Helvetica="sans-serif" font-size="12px" x="26" y="100">shape.Record struct</text>
<rect stroke="black" fill="#ffffcc" x="234" y="256" width="134" height="90"/>
<line stroke="#d3d3d3" x1="234" y1="286" x2="368" y2="286"/><text font-family="Arial" Helvetica="sans-serif" font-size="12px" x="240" y="302">Start</text>
<text font-family="Arial" Helvetica="sans-serif" font-size="12px" x="240" y="318">End</text>
<line stroke="#d3d3d3" x1="234" y1="324" x2="368" y2="324"/><text font-family="Arial" Helvetica="sans-serif" font-size="12px" x="240" y="340">String()</text>
<text font-family="Arial" Helvetica="sans-serif" font-size="12px" x="240" y="276">shape.Line struct</text>
<rect stroke="black" fill="#ffffcc" x="458" y="160" width="141" height="186"/>
<line stroke="#d3d3d3" x1="458" y1="190" x2="599" y2="190"/><text font-family="Arial" Helvetica="sans-serif" font-size="12px" x="464" y="206">Start</text>
<text font-family="Arial" Helvetica="sans-serif" font-size="12px" x="464" y="222">End</text>
<text font-family="Arial" Helvetica="sans-serif" font-size="12px" x="464" y="238">Tail</text>
<text font-family="Arial" Helvetica="sans-serif" font-size="12px" x="464" y="254">Head</text>
<line stroke="#d3d3d3" x1="458" y1="260" x2="599" y2="260"/><text font-family="Arial" Helvetica="sans-serif" font-size="12px" x="464" y="276">DirQ1()</text>
<text font-family="Arial" Helvetica="sans-serif" font-size="12px" x="464" y="292">DirQ2()</text>
<text font-family="Arial" Helvetica="sans-serif" font-size="12px" x="464" y="308">DirQ3()</text>
<text font-family="Arial" Helvetica="sans-serif" font-size="12px" x="464" y="324">DirQ4()</text>
<text font-family="Arial" Helvetica="sans-serif" font-size="12px" x="464" y="340">String()</text>
<text font-family="Arial" Helvetica="sans-serif" font-size="12px" x="464" y="180">shape.Arrow struct</text>
<rect stroke="black" fill="#ffffcc" x="27" y="436" width="134" height="106"/>
<line stroke="#d3d3d3" x1="27" y1="466" x2="161" y2="466"/><text font-family="Arial" Helvetica="sans-serif" font-size="12px" x="33" y="482">Height</text>
<text font-family="Arial" Helvetica="sans-serif" font-size="12px" x="33" y="498">Width</text>
<text font-family="Arial" Helvetica="sans-serif" font-size="12px" x="33" y="514">LineHeight</text>
<line stroke="#d3d3d3" x1="27" y1="520" x2="161" y2="520"/><text font-family="Arial" Helvetica="sans-serif" font-size="12px" x="33" y="536">TextWidth()</text>
<text font-family="Arial" Helvetica="sans-serif" font-size="12px" x="33" y="456">shape.Font struct</text>
<rect stroke="black" fill="#ffffcc" x="230" y="428" width="141" height="122"/>
<line stroke="#d3d3d3" x1="230" y1="458" x2="371" y2="458"/><text font-family="Arial" Helvetica="sans-serif" font-size="12px" x="236" y="474">Font</text>
<text font-family="Arial" Helvetica="sans-serif" font-size="12px" x="236" y="490">TextPad</text>
<text font-family="Arial" Helvetica="sans-serif" font-size="12px" x="236" y="506">Pad</text>
<line stroke="#d3d3d3" x1="230" y1="512" x2="371" y2="512"/><text font-family="Arial" Helvetica="sans-serif" font-size="12px" x="236" y="528">SetOutput()</text>
<text font-family="Arial" Helvetica="sans-serif" font-size="12px" x="236" y="544">Write()</text>
<text font-family="Arial" Helvetica="sans-serif" font-size="12px" x="236" y="448">shape.Style struct</text>
<rect stroke="black" fill="#ffffcc" x="461" y="428" width="162" height="266"/>
<line stroke="#d3d3d3" x1="461" y1="458" x2="623" y2="458"/><text font-family="Arial" Helvetica="sans-serif" font-size="12px" x="467" y="474">Svg</text>
<text font-family="Arial" Helvetica="sans-serif" font-size="12px" x="467" y="490">Aligner</text>
<text font-family="Arial" Helvetica="sans-serif" font-size="12px" x="467" y="506">Style</text>
<line stroke="#d3d3d3" x1="461" y1="512" x2="623" y2="512"/><text font-family="Arial" Helvetica="sans-serif" font-size="12px" x="467" y="528">AdaptSize()</text>
<text font-family="Arial" Helvetica="sans-serif" font-size="12px" x="467" y="544">Append()</text>
<text font-family="Arial" Helvetica="sans-serif" font-size="12px" x="467" y="560">Place()</text>
<text font-family="Arial" Helvetica="sans-serif" font-size="12px" x="467" y="576">Prepend()</text>
<text font-family="Arial" Helvetica="sans-serif" font-size="12px" x="467" y="592">SaveAs()</text>
<text font-family="Arial" Helvetica="sans-serif" font-size="12px" x="467" y="608">SetHeight()</text>
<text font-family="Arial" Helvetica="sans-serif" font-size="12px" x="467" y="624">SetOutput()</text>
<text font-family="Arial" Helvetica="sans-serif" font-size="12px" x="467" y="640">SetWidth()</text>
<text font-family="Arial" Helvetica="sans-serif" font-size="12px" x="467" y="656">TextWidth()</text>
<text font-family="Arial" Helvetica="sans-serif" font-size="12px" x="467" y="672">Write()</text>
<text font-family="Arial" Helvetica="sans-serif" font-size="12px" x="467" y="688">WriteSvg()</text>
<text font-family="Arial" Helvetica="sans-serif" font-size="12px" x="467" y="448">design.Diagram struct</text>
<rect stroke="black" fill="#ffffcc" x="703" y="428" width="155" height="132"/>
<line stroke="#d3d3d3" x1="703" y1="458" x2="858" y2="458"/><text font-family="Arial" Helvetica="sans-serif" font-size="12px" x="709" y="474">HAlignBottom()</text>
<text font-family="Arial" Helvetica="sans-serif" font-size="12px" x="709" y="490">HAlignCenter()</text>
<text font-family="Arial" Helvetica="sans-serif" font-size="12px" x="709" y="506">HAlignTop()</text>
<text font-family="Arial" Helvetica="sans-serif" font-size="12px" x="709" y="522">VAlignCenter()</text>
<text font-family="Arial" Helvetica="sans-serif" font-size="12px" x="709" y="538">VAlignLeft()</text>
<text font-family="Arial" Helvetica="sans-serif" font-size="12px" x="709" y="554">VAlignRight()</text>
<text font-family="Arial" Helvetica="sans-serif" font-size="12px" x="709" y="448">shape.Aligner struct</text>
<rect stroke="black" fill="#ffffcc" x="27" y="680" width="219" height="170"/>
<line stroke="#d3d3d3" x1="27" y1="710" x2="246" y2="710"/><text font-family="Arial" Helvetica="sans-serif" font-size="12px" x="33" y="726">Diagram</text>
<text font-family="Arial" Helvetica="sans-serif" font-size="12px" x="33" y="742">ColWidth</text>
<text font-family="Arial" Helvetica="sans-serif" font-size="12px" x="33" y="758">VMargin</text>
<line stroke="#d3d3d3" x1="27" y1="764" x2="246" y2="764"/><text font-family="Arial" Helvetica="sans-serif" font-size="12px" x="33" y="780">AddColumns()</text>
<text font-family="Arial" Helvetica="sans-serif" font-size="12px" x="33" y="796">ClearLinks()</text>
<text font-family="Arial" Helvetica="sans-serif" font-size="12px" x="33" y="812">Height()</text>
<text font-family="Arial" Helvetica="sans-serif" font-size="12px" x="33" y="828">Link()</text>
<text font-family="Arial" Helvetica="sans-serif" font-size="12px" x="33" y="844">Width()</text>
<text font-family="Arial" Helvetica="sans-serif" font-size="12px" x="33" y="700">design.SequenceDiagram struct</text>
<rect stroke="black" fill="#ffffcc" x="703" y="630" width="162" height="116"/>
<line stroke="#d3d3d3" x1="703" y1="660" x2="865" y2="660"/><text font-family="Arial" Helvetica="sans-serif" font-size="12px" x="709" y="676">Above()</text>
<text font-family="Arial" Helvetica="sans-serif" font-size="12px" x="709" y="692">At()</text>
<text font-family="Arial" Helvetica="sans-serif" font-size="12px" x="709" y="708">Below()</text>
<text font-family="Arial" Helvetica="sans-serif" font-size="12px" x="709" y="724">LeftOf()</text>
<text font-family="Arial" Helvetica="sans-serif" font-size="12px" x="709" y="740">RightOf()</text>
<text font-family="Arial" Helvetica="sans-serif" font-size="12px" x="709" y="650">shape.Adjuster struct</text>
<rect stroke="black" fill="#ffffcc" x="443" y="744" width="198" height="106"/>
<line stroke="#d3d3d3" x1="443" y1="774" x2="641" y2="774"/><text font-family="Arial" Helvetica="sans-serif" font-size="12px" x="449" y="790">Diagram</text>
<line stroke="#d3d3d3" x1="443" y1="796" x2="641" y2="796"/><text font-family="Arial" Helvetica="sans-serif" font-size="12px" x="449" y="812">HideRealizations()</text>
<text font-family="Arial" Helvetica="sans-serif" font-size="12px" x="449" y="828">Interface()</text>
<text font-family="Arial" Helvetica="sans-serif" font-size="12px" x="449" y="844">Struct()</text>
<text font-family="Arial" Helvetica="sans-serif" font-size="12px" x="449" y="764">design.ClassDiagram struct</text></svg>