<svg
  xmlns="http://www.w3.org/2000/svg"
  xmlns:xlink="http://www.w3.org/1999/xlink"
  width="649" height="1062" font-family="Arial, Helvetica, sans-serif">
<path class="implements-arrow" style="stroke:black;stroke-dasharray:5,5,5" d="M149,177 L220,139" />
<g transform="rotate(-28 220 139)"><path class="implements-arrow-head" style="stroke:black;fill:#ffffff" d="M220,139 l-8,-4 l 0,8 Z" /></g>

<path class="implements-arrow" style="stroke:black;stroke-dasharray:5,5,5" d="M290,256 L290,184" />
<g transform="rotate(-90 290 184)"><path class="implements-arrow-head" style="stroke:black;fill:#ffffff" d="M290,184 l-8,-4 l 0,8 Z" /></g>

<path class="implements-arrow" style="stroke:black;stroke-dasharray:5,5,5" d="M439,209 L361,153" />
<g transform="rotate(215 361 153)"><path class="implements-arrow-head" style="stroke:black;fill:#ffffff" d="M361,153 l-8,-4 l 0,8 Z" /></g>

<path class="arrow" style="stroke:black" d="M81,346 L79,436" />
<g transform="rotate(92 79 436)"><path class="arrow-head" style="stroke:black;fill:#ffffff" d="M79,436 l-8,-4 l 0,8 Z" /></g>

<path class="arrow" style="stroke:black" d="M428,541 L508,520" />
<g transform="rotate(-14 508 520)"><path class="arrow-head" style="stroke:black;fill:#ffffff" d="M508,520 l-8,-4 l 0,8 Z" /></g>

<path class="arrow" style="stroke:black" d="M287,542 L137,504" />
<g transform="rotate(194 137 504)"><path class="arrow-head" style="stroke:black;fill:#ffffff" d="M137,504 l-8,-4 l 0,8 Z" /></g>

<path class="arrow" style="stroke:black" d="M210,655 L287,606" />
<g transform="rotate(-32 287 606)"><path class="arrow-head" style="stroke:black;fill:#ffffff" d="M287,606 l-8,-4 l 0,8 Z" /></g>

<path class="arrow" style="stroke:black" d="M358,874 L357,686" />
<g transform="rotate(269 357 686)"><path class="arrow-head" style="stroke:black;fill:#ffffff" d="M357,686 l-8,-4 l 0,8 Z" /></g>

<rect class="record" style="fill:#ffffcc;stroke:black" x="220" y="20" width="141" height="164"/>
<line class="line" style="stroke:#d3d3d3" x1="220" y1="50" x2="361" y2="50"/><text class="method" style="font-family:Arial,Helvetica,sans-serif; font-size:12px" x="226" y="66">Direction()</text>
<text class="method" style="font-family:Arial,Helvetica,sans-serif; font-size:12px" x="226" y="82">Height()</text>
<text class="method" style="font-family:Arial,Helvetica,sans-serif; font-size:12px" x="226" y="98">Position()</text>
<text class="method" style="font-family:Arial,Helvetica,sans-serif; font-size:12px" x="226" y="114">SetClass()</text>
<text class="method" style="font-family:Arial,Helvetica,sans-serif; font-size:12px" x="226" y="130">SetX()</text>
<text class="method" style="font-family:Arial,Helvetica,sans-serif; font-size:12px" x="226" y="146">SetY()</text>
<text class="method" style="font-family:Arial,Helvetica,sans-serif; font-size:12px" x="226" y="162">Width()</text>
<text class="method" style="font-family:Arial,Helvetica,sans-serif; font-size:12px" x="226" y="178">WriteSvg()</text>
<text class="record-title" style="font-family:Arial,Helvetica,sans-serif; font-size:12px" x="226" y="40">shape.Shape interface</text>
<rect class="record" style="fill:#ffffcc;stroke:black" x="20" y="80" width="129" height="266"/>
<line class="line" style="stroke:#d3d3d3" x1="20" y1="110" x2="149" y2="110"/><text class="field" style="font-family:Arial,Helvetica,sans-serif; font-size:12px" x="26" y="126">X</text>
<text class="field" style="font-family:Arial,Helvetica,sans-serif; font-size:12px" x="26" y="142">Y</text>
<text class="field" style="font-family:Arial,Helvetica,sans-serif; font-size:12px" x="26" y="158">Title</text>
<text class="field" style="font-family:Arial,Helvetica,sans-serif; font-size:12px" x="26" y="174">Fields</text>
<text class="field" style="font-family:Arial,Helvetica,sans-serif; font-size:12px" x="26" y="190">Methods</text>
<text class="field" style="font-family:Arial,Helvetica,sans-serif; font-size:12px" x="26" y="206">Font</text>
<text class="field" style="font-family:Arial,Helvetica,sans-serif; font-size:12px" x="26" y="222">Pad</text>
<line class="line" style="stroke:#d3d3d3" x1="20" y1="228" x2="149" y2="228"/><text class="method" style="font-family:Arial,Helvetica,sans-serif; font-size:12px" x="26" y="244">Edge()</text>
<text class="method" style="font-family:Arial,Helvetica,sans-serif; font-size:12px" x="26" y="260">HideFields()</text>
<text class="method" style="font-family:Arial,Helvetica,sans-serif; font-size:12px" x="26" y="276">HideMethod()</text>
<text class="method" style="font-family:Arial,Helvetica,sans-serif; font-size:12px" x="26" y="292">HideMethods()</text>
<text class="method" style="font-family:Arial,Helvetica,sans-serif; font-size:12px" x="26" y="308">SetFont()</text>
<text class="method" style="font-family:Arial,Helvetica,sans-serif; font-size:12px" x="26" y="324">SetTextPad()</text>
<text class="method" style="font-family:Arial,Helvetica,sans-serif; font-size:12px" x="26" y="340">String()</text>
<text class="record-title" style="font-family:Arial,Helvetica,sans-serif; font-size:12px" x="26" y="100">shape.Record struct</text>
<rect class="record" style="fill:#ffffcc;stroke:black" x="232" y="256" width="117" height="90"/>
<line class="line" style="stroke:#d3d3d3" x1="232" y1="286" x2="349" y2="286"/><text class="field" style="font-family:Arial,Helvetica,sans-serif; font-size:12px" x="238" y="302">Start</text>
<text class="field" style="font-family:Arial,Helvetica,sans-serif; font-size:12px" x="238" y="318">End</text>
<line class="line" style="stroke:#d3d3d3" x1="232" y1="324" x2="349" y2="324"/><text class="method" style="font-family:Arial,Helvetica,sans-serif; font-size:12px" x="238" y="340">String()</text>
<text class="record-title" style="font-family:Arial,Helvetica,sans-serif; font-size:12px" x="238" y="276">shape.Line struct</text>
<rect class="record" style="fill:#ffffcc;stroke:black" x="439" y="160" width="123" height="186"/>
<line class="line" style="stroke:#d3d3d3" x1="439" y1="190" x2="562" y2="190"/><text class="field" style="font-family:Arial,Helvetica,sans-serif; font-size:12px" x="445" y="206">Start</text>
<text class="field" style="font-family:Arial,Helvetica,sans-serif; font-size:12px" x="445" y="222">End</text>
<text class="field" style="font-family:Arial,Helvetica,sans-serif; font-size:12px" x="445" y="238">Tail</text>
<text class="field" style="font-family:Arial,Helvetica,sans-serif; font-size:12px" x="445" y="254">Head</text>
<line class="line" style="stroke:#d3d3d3" x1="439" y1="260" x2="562" y2="260"/><text class="method" style="font-family:Arial,Helvetica,sans-serif; font-size:12px" x="445" y="276">DirQ1()</text>
<text class="method" style="font-family:Arial,Helvetica,sans-serif; font-size:12px" x="445" y="292">DirQ2()</text>
<text class="method" style="font-family:Arial,Helvetica,sans-serif; font-size:12px" x="445" y="308">DirQ3()</text>
<text class="method" style="font-family:Arial,Helvetica,sans-serif; font-size:12px" x="445" y="324">DirQ4()</text>
<text class="method" style="font-family:Arial,Helvetica,sans-serif; font-size:12px" x="445" y="340">String()</text>
<text class="record-title" style="font-family:Arial,Helvetica,sans-serif; font-size:12px" x="445" y="180">shape.Arrow struct</text>
<rect class="record" style="fill:#ffffcc;stroke:black" x="20" y="436" width="117" height="106"/>
<line class="line" style="stroke:#d3d3d3" x1="20" y1="466" x2="137" y2="466"/><text class="field" style="font-family:Arial,Helvetica,sans-serif; font-size:12px" x="26" y="482">Height</text>
<text class="field" style="font-family:Arial,Helvetica,sans-serif; font-size:12px" x="26" y="498">Width</text>
<text class="field" style="font-family:Arial,Helvetica,sans-serif; font-size:12px" x="26" y="514">LineHeight</text>
<line class="line" style="stroke:#d3d3d3" x1="20" y1="520" x2="137" y2="520"/><text class="method" style="font-family:Arial,Helvetica,sans-serif; font-size:12px" x="26" y="536">TextWidth()</text>
<text class="record-title" style="font-family:Arial,Helvetica,sans-serif; font-size:12px" x="26" y="456">shape.Font struct</text>
<rect class="record" style="fill:#ffffcc;stroke:black" x="287" y="436" width="141" height="250"/>
<line class="line" style="stroke:#d3d3d3" x1="287" y1="466" x2="428" y2="466"/><text class="field" style="font-family:Arial,Helvetica,sans-serif; font-size:12px" x="293" y="482">Svg</text>
<text class="field" style="font-family:Arial,Helvetica,sans-serif; font-size:12px" x="293" y="498">Aligner</text>
<text class="field" style="font-family:Arial,Helvetica,sans-serif; font-size:12px" x="293" y="514">Font</text>
<text class="field" style="font-family:Arial,Helvetica,sans-serif; font-size:12px" x="293" y="530">TextPad</text>
<text class="field" style="font-family:Arial,Helvetica,sans-serif; font-size:12px" x="293" y="546">Pad</text>
<line class="line" style="stroke:#d3d3d3" x1="287" y1="552" x2="428" y2="552"/><text class="method" style="font-family:Arial,Helvetica,sans-serif; font-size:12px" x="293" y="568">AdaptSize()</text>
<text class="method" style="font-family:Arial,Helvetica,sans-serif; font-size:12px" x="293" y="584">Append()</text>
<text class="method" style="font-family:Arial,Helvetica,sans-serif; font-size:12px" x="293" y="600">Place()</text>
<text class="method" style="font-family:Arial,Helvetica,sans-serif; font-size:12px" x="293" y="616">Prepend()</text>
<text class="method" style="font-family:Arial,Helvetica,sans-serif; font-size:12px" x="293" y="632">SaveAs()</text>
<text class="method" style="font-family:Arial,Helvetica,sans-serif; font-size:12px" x="293" y="648">SetHeight()</text>
<text class="method" style="font-family:Arial,Helvetica,sans-serif; font-size:12px" x="293" y="664">SetWidth()</text>
<text class="method" style="font-family:Arial,Helvetica,sans-serif; font-size:12px" x="293" y="680">WriteSvg()</text>
<text class="record-title" style="font-family:Arial,Helvetica,sans-serif; font-size:12px" x="293" y="456">design.Diagram struct</text>
<rect class="record" style="fill:#ffffcc;stroke:black" x="508" y="436" width="135" height="132"/>
<line class="line" style="stroke:#d3d3d3" x1="508" y1="466" x2="643" y2="466"/><text class="method" style="font-family:Arial,Helvetica,sans-serif; font-size:12px" x="514" y="482">HAlignBottom()</text>
<text class="method" style="font-family:Arial,Helvetica,sans-serif; font-size:12px" x="514" y="498">HAlignCenter()</text>
<text class="method" style="font-family:Arial,Helvetica,sans-serif; font-size:12px" x="514" y="514">HAlignTop()</text>
<text class="method" style="font-family:Arial,Helvetica,sans-serif; font-size:12px" x="514" y="530">VAlignCenter()</text>
<text class="method" style="font-family:Arial,Helvetica,sans-serif; font-size:12px" x="514" y="546">VAlignLeft()</text>
<text class="method" style="font-family:Arial,Helvetica,sans-serif; font-size:12px" x="514" y="562">VAlignRight()</text>
<text class="record-title" style="font-family:Arial,Helvetica,sans-serif; font-size:12px" x="514" y="456">shape.Aligner struct</text>
<rect class="record" style="fill:#ffffcc;stroke:black" x="20" y="632" width="190" height="170"/>
<line class="line" style="stroke:#d3d3d3" x1="20" y1="662" x2="210" y2="662"/><text class="field" style="font-family:Arial,Helvetica,sans-serif; font-size:12px" x="26" y="678">Diagram</text>
<text class="field" style="font-family:Arial,Helvetica,sans-serif; font-size:12px" x="26" y="694">ColWidth</text>
<text class="field" style="font-family:Arial,Helvetica,sans-serif; font-size:12px" x="26" y="710">VMargin</text>
<line class="line" style="stroke:#d3d3d3" x1="20" y1="716" x2="210" y2="716"/><text class="method" style="font-family:Arial,Helvetica,sans-serif; font-size:12px" x="26" y="732">AddColumns()</text>
<text class="method" style="font-family:Arial,Helvetica,sans-serif; font-size:12px" x="26" y="748">ClearLinks()</text>
<text class="method" style="font-family:Arial,Helvetica,sans-serif; font-size:12px" x="26" y="764">Height()</text>
<text class="method" style="font-family:Arial,Helvetica,sans-serif; font-size:12px" x="26" y="780">Link()</text>
<text class="method" style="font-family:Arial,Helvetica,sans-serif; font-size:12px" x="26" y="796">Width()</text>
<text class="record-title" style="font-family:Arial,Helvetica,sans-serif; font-size:12px" x="26" y="652">design.SequenceDiagram struct</text>
<rect class="record" style="fill:#ffffcc;stroke:black" x="508" y="658" width="141" height="116"/>
<line class="line" style="stroke:#d3d3d3" x1="508" y1="688" x2="649" y2="688"/><text class="method" style="font-family:Arial,Helvetica,sans-serif; font-size:12px" x="514" y="704">Above()</text>
<text class="method" style="font-family:Arial,Helvetica,sans-serif; font-size:12px" x="514" y="720">At()</text>
<text class="method" style="font-family:Arial,Helvetica,sans-serif; font-size:12px" x="514" y="736">Below()</text>
<text class="method" style="font-family:Arial,Helvetica,sans-serif; font-size:12px" x="514" y="752">LeftOf()</text>
<text class="method" style="font-family:Arial,Helvetica,sans-serif; font-size:12px" x="514" y="768">RightOf()</text>
<text class="record-title" style="font-family:Arial,Helvetica,sans-serif; font-size:12px" x="514" y="678">shape.Adjuster struct</text>
<rect class="record" style="fill:#ffffcc;stroke:black" x="272" y="736" width="172" height="138"/>
<line class="line" style="stroke:#d3d3d3" x1="272" y1="766" x2="444" y2="766"/><text class="field" style="font-family:Arial,Helvetica,sans-serif; font-size:12px" x="278" y="782">Diagram</text>
<text class="field" style="font-family:Arial,Helvetica,sans-serif; font-size:12px" x="278" y="798">Interfaces</text>
<text class="field" style="font-family:Arial,Helvetica,sans-serif; font-size:12px" x="278" y="814">Structs</text>
<line class="line" style="stroke:#d3d3d3" x1="272" y1="820" x2="444" y2="820"/><text class="method" style="font-family:Arial,Helvetica,sans-serif; font-size:12px" x="278" y="836">HideRealizations()</text>
<text class="method" style="font-family:Arial,Helvetica,sans-serif; font-size:12px" x="278" y="852">Interface()</text>
<text class="method" style="font-family:Arial,Helvetica,sans-serif; font-size:12px" x="278" y="868">Struct()</text>
<text class="record-title" style="font-family:Arial,Helvetica,sans-serif; font-size:12px" x="278" y="756">design.ClassDiagram struct</text></svg>