<svg
  xmlns="http://www.w3.org/2000/svg"
  xmlns:xlink="http://www.w3.org/1999/xlink"
  width="557" height="440" font-family="Arial, Helvetica, sans-serif">
<rect class="record" style="fill:#ffffcc;stroke:black" x="10" y="8" width="167" height="325"/>
<line class="line" style="stroke:#d3d3d3" x1="10" y1="34" x2="177" y2="34"/><text class="field" style="font-family:Arial,Helvetica,sans-serif; font-size:12px" x="20" y="49">Svg</text>
<text class="field" style="font-family:Arial,Helvetica,sans-serif; font-size:12px" x="20" y="64">Aligner</text>
<text class="field" style="font-family:Arial,Helvetica,sans-serif; font-size:12px" x="20" y="79">Font</text>
<text class="field" style="font-family:Arial,Helvetica,sans-serif; font-size:12px" x="20" y="94">TextPad</text>
<text class="field" style="font-family:Arial,Helvetica,sans-serif; font-size:12px" x="20" y="109">Pad</text>
<line class="line" style="stroke:#d3d3d3" x1="10" y1="116" x2="177" y2="116"/><text class="method" style="font-family:Arial,Helvetica,sans-serif; font-size:12px" x="20" y="131">AdaptSize()</text>
<text class="method" style="font-family:Arial,Helvetica,sans-serif; font-size:12px" x="20" y="146">Append()</text>
<text class="method" style="font-family:Arial,Helvetica,sans-serif; font-size:12px" x="20" y="161">HAlignBottom()</text>
<text class="method" style="font-family:Arial,Helvetica,sans-serif; font-size:12px" x="20" y="176">HAlignCenter()</text>
<text class="method" style="font-family:Arial,Helvetica,sans-serif; font-size:12px" x="20" y="191">HAlignTop()</text>
<text class="method" style="font-family:Arial,Helvetica,sans-serif; font-size:12px" x="20" y="206">Place()</text>
<text class="method" style="font-family:Arial,Helvetica,sans-serif; font-size:12px" x="20" y="221">Prepend()</text>
<text class="method" style="font-family:Arial,Helvetica,sans-serif; font-size:12px" x="20" y="236">SaveAs()</text>
<text class="method" style="font-family:Arial,Helvetica,sans-serif; font-size:12px" x="20" y="251">SetHeight()</text>
<text class="method" style="font-family:Arial,Helvetica,sans-serif; font-size:12px" x="20" y="266">SetWidth()</text>
<text class="method" style="font-family:Arial,Helvetica,sans-serif; font-size:12px" x="20" y="281">VAlignCenter()</text>
<text class="method" style="font-family:Arial,Helvetica,sans-serif; font-size:12px" x="20" y="296">VAlignLeft()</text>
<text class="method" style="font-family:Arial,Helvetica,sans-serif; font-size:12px" x="20" y="311">VAlignRight()</text>
<text class="method" style="font-family:Arial,Helvetica,sans-serif; font-size:12px" x="20" y="326">WriteSvg()</text>
<text class="record-title" style="font-family:Arial,Helvetica,sans-serif; font-size:12px" x="20" y="25">design.Diagram struct</text>
<rect class="record" style="fill:#ffffcc;stroke:black" x="207" y="30" width="153" height="280"/>
<line class="line" style="stroke:#d3d3d3" x1="207" y1="56" x2="360" y2="56"/><text class="field" style="font-family:Arial,Helvetica,sans-serif; font-size:12px" x="217" y="71">X</text>
<text class="field" style="font-family:Arial,Helvetica,sans-serif; font-size:12px" x="217" y="86">Y</text>
<text class="field" style="font-family:Arial,Helvetica,sans-serif; font-size:12px" x="217" y="101">Title</text>
<text class="field" style="font-family:Arial,Helvetica,sans-serif; font-size:12px" x="217" y="116">Fields</text>
<text class="field" style="font-family:Arial,Helvetica,sans-serif; font-size:12px" x="217" y="131">Methods</text>
<text class="field" style="font-family:Arial,Helvetica,sans-serif; font-size:12px" x="217" y="146">Font</text>
<text class="field" style="font-family:Arial,Helvetica,sans-serif; font-size:12px" x="217" y="161">Pad</text>
<line class="line" style="stroke:#d3d3d3" x1="207" y1="168" x2="360" y2="168"/><text class="method" style="font-family:Arial,Helvetica,sans-serif; font-size:12px" x="217" y="183">Direction()</text>
<text class="method" style="font-family:Arial,Helvetica,sans-serif; font-size:12px" x="217" y="198">Height()</text>
<text class="method" style="font-family:Arial,Helvetica,sans-serif; font-size:12px" x="217" y="213">Position()</text>
<text class="method" style="font-family:Arial,Helvetica,sans-serif; font-size:12px" x="217" y="228">SetFont()</text>
<text class="method" style="font-family:Arial,Helvetica,sans-serif; font-size:12px" x="217" y="243">SetTextPad()</text>
<text class="method" style="font-family:Arial,Helvetica,sans-serif; font-size:12px" x="217" y="258">SetX()</text>
<text class="method" style="font-family:Arial,Helvetica,sans-serif; font-size:12px" x="217" y="273">SetY()</text>
<text class="method" style="font-family:Arial,Helvetica,sans-serif; font-size:12px" x="217" y="288">Width()</text>
<text class="method" style="font-family:Arial,Helvetica,sans-serif; font-size:12px" x="217" y="303">WriteSvg()</text>
<text class="record-title" style="font-family:Arial,Helvetica,sans-serif; font-size:12px" x="217" y="47">shape.Record struct</text>
<rect class="record" style="fill:#ffffcc;stroke:black" x="390" y="30" width="167" height="78"/>
<line class="line" style="stroke:#d3d3d3" x1="390" y1="56" x2="557" y2="56"/><text class="method" style="font-family:Arial,Helvetica,sans-serif; font-size:12px" x="400" y="71">At()</text>
<text class="method" style="font-family:Arial,Helvetica,sans-serif; font-size:12px" x="400" y="86">Below()</text>
<text class="method" style="font-family:Arial,Helvetica,sans-serif; font-size:12px" x="400" y="101">RightOf()</text>
<text class="record-title" style="font-family:Arial,Helvetica,sans-serif; font-size:12px" x="400" y="47">shape.Adjuster struct</text>
<rect class="record" style="fill:#ffffcc;stroke:black" x="390" y="187" width="167" height="123"/>
<line class="line" style="stroke:#d3d3d3" x1="390" y1="213" x2="557" y2="213"/><text class="method" style="font-family:Arial,Helvetica,sans-serif; font-size:12px" x="400" y="228">Direction()</text>
<text class="method" style="font-family:Arial,Helvetica,sans-serif; font-size:12px" x="400" y="243">Height()</text>
<text class="method" style="font-family:Arial,Helvetica,sans-serif; font-size:12px" x="400" y="258">Position()</text>
<text class="method" style="font-family:Arial,Helvetica,sans-serif; font-size:12px" x="400" y="273">SetX()</text>
<text class="method" style="font-family:Arial,Helvetica,sans-serif; font-size:12px" x="400" y="288">SetY()</text>
<text class="method" style="font-family:Arial,Helvetica,sans-serif; font-size:12px" x="400" y="303">Width()</text>
<text class="record-title" style="font-family:Arial,Helvetica,sans-serif; font-size:12px" x="400" y="204">shape.Shape interface</text>
<path class="arrow" style="stroke:black" d="M230,400 L280,390" />
<g transform="rotate(-11 280 390)"><path class="arrow-head" style="stroke:black;fill:#ffffff" d="M280,390 l-8,-4 l 0,8 Z" /></g>

<path class="arrow" style="stroke:black" d="M230,400 L200,390" />
<g transform="rotate(198 200 390)"><path class="arrow-head" style="stroke:black;fill:#ffffff" d="M200,390 l-8,-4 l 0,8 Z" /></g>

<path class="arrow" style="stroke:black" d="M230,400 L180,420" />
<g transform="rotate(159 180 420)"><path class="arrow-head" style="stroke:black;fill:#ffffff" d="M180,420 l-8,-4 l 0,8 Z" /></g>

<path class="arrow" style="stroke:black" d="M230,400 L270,420" />
<g transform="rotate(26 270 420)"><path class="arrow-head" style="stroke:black;fill:#ffffff" d="M270,420 l-8,-4 l 0,8 Z" /></g>

<path class="arrow" style="stroke:black" d="M230,400 L320,400" />
<g transform="rotate(0 320 400)"><path class="arrow-head" style="stroke:black;fill:#ffffff" d="M320,400 l-8,-4 l 0,8 Z" /></g>

<path class="arrow" style="stroke:black" d="M230,400 L180,400" />
<g transform="rotate(180 180 400)"><path class="arrow-head" style="stroke:black;fill:#ffffff" d="M180,400 l-8,-4 l 0,8 Z" /></g>

<path class="arrow" style="stroke:black" d="M230,400 L230,360" />
<g transform="rotate(-90 230 360)"><path class="arrow-head" style="stroke:black;fill:#ffffff" d="M230,360 l-8,-4 l 0,8 Z" /></g>

<path class="arrow" style="stroke:black" d="M230,400 L230,440" />
<g transform="rotate(90 230 440)"><path class="arrow-head" style="stroke:black;fill:#ffffff" d="M230,440 l-8,-4 l 0,8 Z" /></g>
</svg>