<svg
  xmlns="http://www.w3.org/2000/svg"
  xmlns:xlink="http://www.w3.org/1999/xlink"
  width="570" height="247" font-family="Arial, Helvetica, sans-serif">
<line class="column-line" style="stroke:#d3d3d3" x1="31" y1="42" x2="31" y2="247"/>
<text class="" x="10" y="35">Client</text>
<line class="column-line" style="stroke:#d3d3d3" x1="221" y1="42" x2="221" y2="247"/>
<text class="" x="200" y="35">Server</text>
<line class="column-line" style="stroke:#d3d3d3" x1="411" y1="42" x2="411" y2="247"/>
<text class="" x="383" y="35">Database</text>
<path class="arrow" style="stroke:black" d="M31,74 L221,74" />
<g transform="rotate(0 221 74)"><path class="arrow-head" style="stroke:black;fill:#ffffff" d="M221,74 l-8,-4 l 0,8 Z" /></g>

<text class="" x="94" y="72">connect()</text>
<path class="highlight" style="stroke:red" d="M221,106 L411,106" />
<g transform="rotate(0 411 106)"><path class="highlight-head" style="stroke:red;fill:#ffffff" d="M411,106 l-8,-4 l 0,8 Z" /></g>

<text class="" x="295" y="104">SELECT</text>
<path class="arrow" style="stroke:black" d="M411,138 L221,138" />
<g transform="rotate(180 221 138)"><path class="arrow-head" style="stroke:black;fill:#ffffff" d="M221,138 l-8,-4 l 0,8 Z" /></g>

<text class="" x="302" y="136">Rows</text>
<line class="highlight" style="stroke:red" x1="221" y1="170" x2="236" y2="170"/>
<line class="highlight" style="stroke:red" x1="236" y1="170" x2="236" y2="200"/>
<path class="highlight" style="stroke:red" d="M236,200 L221,200" />
<g transform="rotate(180 221 200)"><path class="highlight-head" style="stroke:red;fill:#ffffff" d="M221,200 l-8,-4 l 0,8 Z" /></g>

<text class="" x="246" y="189">Transform to view model</text>
<path class="arrow" style="stroke:black" d="M221,222 L31,222" />
<g transform="rotate(180 31 222)"><path class="arrow-head" style="stroke:black;fill:#ffffff" d="M31,222 l-8,-4 l 0,8 Z" /></g>

<text class="" x="95" y="220">Send HTML</text></svg>