<svg
  xmlns="http://www.w3.org/2000/svg"
  xmlns:xlink="http://www.w3.org/1999/xlink"
  width="570" height="238" font-family="Arial, Helvetica, sans-serif">
<line stroke="#d3d3d3" x1="31" y1="24" x2="31" y2="238"/>
<text font-family="Arial" Helvetica="sans-serif" font-size="12px" x="10" y="18">Client</text>
<line stroke="#d3d3d3" x1="221" y1="24" x2="221" y2="238"/>
<text font-family="Arial" Helvetica="sans-serif" font-size="12px" x="200" y="18">Server</text>
<line stroke="#d3d3d3" x1="411" y1="24" x2="411" y2="238"/>
<text font-family="Arial" Helvetica="sans-serif" font-size="12px" x="383" y="18">Database</text>
<path stroke="black" d="M31,57 L221,57" />
<g transform="rotate(0 221 57)"><path stroke="black" fill="#ffffff" d="M221,57 l-8,-4 l 0,8 Z" /></g>

<text font-family="Arial" Helvetica="sans-serif" font-size="12px" x="93" y="55">connect()</text>
<path stroke="red" d="M221,90 L411,90" />
<g transform="rotate(0 411 90)"><path stroke="red" fill="#ffffff" d="M411,90 l-8,-4 l 0,8 Z" /></g>

<text font-family="Arial" Helvetica="sans-serif" font-size="12px" x="292" y="88">SELECT</text>
<path stroke="black" d="M411,123 L221,123" />
<g transform="rotate(180 221 123)"><path stroke="black" fill="#ffffff" d="M221,123 l-8,-4 l 0,8 Z" /></g>

<text font-family="Arial" Helvetica="sans-serif" font-size="12px" x="302" y="121">Rows</text>
<line stroke="red" x1="221" y1="156" x2="236" y2="156"/>
<line stroke="red" x1="236" y1="156" x2="236" y2="188"/>
<path stroke="red" d="M236,188 L221,188" />
<g transform="rotate(180 221 188)"><path stroke="red" fill="#ffffff" d="M221,188 l-8,-4 l 0,8 Z" /></g>

<text font-family="Arial" Helvetica="sans-serif" font-size="12px" x="242" y="176">Transform to view model</text>
<path stroke="black" d="M221,211 L31,211" />
<g transform="rotate(180 31 211)"><path stroke="black" fill="#ffffff" d="M31,211 l-8,-4 l 0,8 Z" /></g>

<text font-family="Arial" Helvetica="sans-serif" font-size="12px" x="92" y="209">Send HTML</text></svg>