<svg
  xmlns="http://www.w3.org/2000/svg"
  xmlns:xlink="http://www.w3.org/1999/xlink"
  width="421" height="274" font-family="Arial, Helvetica, sans-serif">
<path class="implements-arrow" style="stroke:black;stroke-dasharray:5,5,5" d="M206,26 L107,100" />
<g transform="rotate(144 107 100)"><path class="implements-arrow-head" style="stroke:black;fill:#ffffff" d="M107,100 l-8,-4 l 0,8 Z" /></g>

<path class="implements-arrow" style="stroke:black;stroke-dasharray:5,5,5" d="M240,26 L333,100" />
<g transform="rotate(38 333 100)"><path class="implements-arrow-head" style="stroke:black;fill:#ffffff" d="M333,100 l-8,-4 l 0,8 Z" /></g>

<path class="implements-arrow" style="stroke:black;stroke-dasharray:5,5,5" d="M206,200 L107,126" />
<g transform="rotate(216 107 126)"><path class="implements-arrow-head" style="stroke:black;fill:#ffffff" d="M107,126 l-8,-4 l 0,8 Z" /></g>

<path class="implements-arrow" style="stroke:black;stroke-dasharray:5,5,5" d="M240,200 L333,126" />
<g transform="rotate(-38 333 126)"><path class="implements-arrow-head" style="stroke:black;fill:#ffffff" d="M333,126 l-8,-4 l 0,8 Z" /></g>

<rect class="record" style="fill:#ffffcc;stroke:black" x="20" y="100" width="141" height="26"/>
<text class="record-title" style="font-family:Arial,Helvetica,sans-serif; font-size:12px" x="26" y="120">shape.Shape interface</text>
<rect class="record" style="fill:#ffffcc;stroke:black" x="160" y="0" width="129" height="26"/>
<text class="record-title" style="font-family:Arial,Helvetica,sans-serif; font-size:12px" x="166" y="20">shape.Record struct</text>
<rect class="record" style="fill:#ffffcc;stroke:black" x="280" y="100" width="141" height="26"/>
<text class="record-title" style="font-family:Arial,Helvetica,sans-serif; font-size:12px" x="286" y="120">shape.Shape interface</text>
<rect class="record" style="fill:#ffffcc;stroke:black" x="163" y="200" width="123" height="26"/>
<text class="record-title" style="font-family:Arial,Helvetica,sans-serif; font-size:12px" x="169" y="220">shape.Arrow struct</text></svg>